<svg xmlns="http://www.w3.org/2000/svg" width="632.337" height="232.17" viewBox="0 0 632.337 232.17">
  <defs>
    <style>
      .cls-1 {
        fill: #f0e55d;
      }

      .cls-2 {
        fill: #fff;
      }

      .cls-3 {
        fill: #fd7d9c;
      }
    </style>
  </defs>
  <g id="组_203" data-name="组 203" transform="translate(-1174.447 -140.33)">
    <path id="路径_609" data-name="路径 609" class="cls-1" d="M185.409-55.59V0H19.947V-232.17H182.466v55.59H83.712v32.7h84.366v51.666H83.712V-55.59Z" transform="translate(1154.5 372.5)"/>
    <path id="路径_610" data-name="路径 610" class="cls-2" d="M83.712-114.123V0H19.947V-232.17h49.7l93.2,118.047V-232.17h63.765V0H175.926Z" transform="translate(1345.5 372.5)"/>
    <path id="路径_611" data-name="路径 611" class="cls-3" d="M19.947,0V-232.17h89.271q28.776,0,50.685,9.156t36.624,24.852a104.361,104.361,0,0,1,22.236,36.787,132.874,132.874,0,0,1,7.521,44.963q0,26.487-8.339,47.905a103.707,103.707,0,0,1-23.708,36.624A106.242,106.242,0,0,1,157.287-8.339Q135.7,0,109.218,0ZM161.538-116.412a79.342,79.342,0,0,0-3.6-24.525,54.765,54.765,0,0,0-10.3-18.966,46.47,46.47,0,0,0-16.513-12.263,52.8,52.8,0,0,0-21.909-4.414H83.712V-55.59h25.506a51.983,51.983,0,0,0,22.236-4.578,46.458,46.458,0,0,0,16.513-12.753A56.2,56.2,0,0,0,158.1-92.214,81.655,81.655,0,0,0,161.538-116.412Z" transform="translate(1580.5 372.5)"/>
  </g>
</svg>
