<svg id="组_164" data-name="组 164" xmlns="http://www.w3.org/2000/svg" width="550.128" height="147.429" viewBox="0 0 550.128 147.429">
  <defs>
    <style>
      .cls-1, .cls-9 {
        fill: none;
      }

      .cls-1 {
        stroke: #fff;
        stroke-miterlimit: 10;
        stroke-width: 9px;
      }

      .cls-2 {
        fill: #56b4f6;
      }

      .cls-3 {
        fill: #f0e55d;
      }

      .cls-4 {
        fill: #0543c0;
      }

      .cls-5 {
        fill: #fd7d9c;
      }

      .cls-6 {
        fill: #cc4465;
      }

      .cls-7 {
        fill: #fdc254;
      }

      .cls-8 {
        stroke: none;
      }
    </style>
  </defs>
  <g id="矩形_152" data-name="矩形 152" class="cls-1" transform="translate(378.33)">
    <rect class="cls-8" width="126.537" height="147.429" rx="9.718"/>
    <rect class="cls-9" x="4.5" y="4.5" width="117.537" height="138.429" rx="5.218"/>
  </g>
  <rect id="矩形_154" data-name="矩形 154" class="cls-2" width="193.403" height="147.429" rx="13.252" transform="translate(166.241)"/>
  <g id="组_163" data-name="组 163">
    <rect id="矩形_156" data-name="矩形 156" class="cls-3" width="147.429" height="147.429" rx="9.718"/>
    <circle id="椭圆_180" data-name="椭圆 180" class="cls-2" cx="25.73" cy="25.73" r="25.73" transform="translate(47.985 37.279)"/>
    <path id="路径_568" data-name="路径 568" class="cls-4" d="M3246.329-6285.18a50.012,50.012,0,0,1,50.012-50.012,50.012,50.012,0,0,1,50.012,50.012" transform="translate(-3222.627 6432.608)"/>
  </g>
  <rect id="矩形_157" data-name="矩形 157" class="cls-5" width="19.861" height="147.429" transform="translate(530.267)"/>
  <rect id="矩形_158" data-name="矩形 158" class="cls-6" width="19.861" height="44.033" transform="translate(530.267 18.977)"/>
  <path id="路径_574" data-name="路径 574" class="cls-7" d="M3567.791-6360.548h-.932c-1.864-.466-3.262-1.4-3.729-3.262l-11.185-40.547-6.99,16.778a4.48,4.48,0,0,1-4.195,2.8h-34.954a4.4,4.4,0,0,1-4.66-4.661,4.4,4.4,0,0,1,4.66-4.661H3537.5l11.185-26.1a5.128,5.128,0,0,1,4.661-2.8,4.477,4.477,0,0,1,4.195,3.263l12.118,43.81,11.185-16.312a4.24,4.24,0,0,1,3.729-1.865h14.914l9.321-16.312a4.895,4.895,0,0,1,4.195-2.33,4.479,4.479,0,0,1,4.195,2.8l10.719,23.769,2.8-5.592a4.894,4.894,0,0,1,4.194-2.331h34.022a4.4,4.4,0,0,1,4.66,4.661,4.4,4.4,0,0,1-4.66,4.661H3637.7l-6.059,11.186a4.894,4.894,0,0,1-4.195,2.33,4.478,4.478,0,0,1-4.195-2.8l-11.185-24.235-6.059,10.719a4.894,4.894,0,0,1-4.194,2.33H3586.9l-15.846,22.371a3.5,3.5,0,0,1-3.262,2.33Z" transform="translate(-3324.424 6467.687)"/>
  <path id="路径_575" data-name="路径 575" class="cls-3" d="M3917.333-6395.124a3.754,3.754,0,0,0-5.293-.187,41.964,41.964,0,0,0-14.226,31.231,3.754,3.754,0,0,0,3.755,3.752,3.754,3.754,0,0,0,3.752-3.752,34.345,34.345,0,0,1,11.825-25.75,3.754,3.754,0,0,0,.188-5.293Zm38.176,17.417a40.778,40.778,0,0,0-6.006-11.261,53.718,53.718,0,0,0-13.926-12.65c8.408-5.368,22.3-17.267,22.3-37.538a3.753,3.753,0,0,0-3.757-3.75,3.753,3.753,0,0,0-3.751,3.75c0,20.271-17.23,30.668-22.522,33.371a50.367,50.367,0,0,1-10.1-7.094h10.1a3.754,3.754,0,0,0,3.754-3.754,3.754,3.754,0,0,0-3.754-3.754h-16.7a35.29,35.29,0,0,1-3.754-7.507H3939.1a3.754,3.754,0,0,0,3.753-3.755,3.753,3.753,0,0,0-3.753-3.753h-33.559a30.665,30.665,0,0,1-.225-3.754,3.754,3.754,0,0,0-3.754-3.754,3.754,3.754,0,0,0-3.753,3.754c0,28.416,27.4,40.5,28.566,40.991a48.511,48.511,0,0,1,11.6,7.808h-10.135a3.754,3.754,0,0,0-3.751,3.756,3.753,3.753,0,0,0,3.751,3.751h16.629a34.079,34.079,0,0,1,3.754,7.508h-31.644a3.754,3.754,0,0,0-3.751,3.757,3.754,3.754,0,0,0,3.751,3.751h33.558a31,31,0,0,1,.225,3.753,3.753,3.753,0,0,0,3.757,3.75,3.754,3.754,0,0,0,3.751-3.75,39.461,39.461,0,0,0-.826-8.221,34.756,34.756,0,0,0-1.539-5.405Z" transform="translate(-3482.888 6475.641)"/>
</svg>
