<svg id="组_167" data-name="组 167" xmlns="http://www.w3.org/2000/svg" width="355.872" height="156.211" viewBox="0 0 355.872 156.211">
  <defs>
    <style>
      .cls-1 {
        fill: #f0e55d;
      }

      .cls-2 {
        fill: #61a7d6;
      }

      .cls-3 {
        fill: #fd7d9c;
      }

      .cls-4 {
        fill: #0543c0;
      }
    </style>
  </defs>
  <g id="组_166" data-name="组 166" transform="translate(199.66)">
    <path id="路径_571" data-name="路径 571" class="cls-1" d="M4797.773-6677.123a78.1,78.1,0,0,0-110.458,0,78.105,78.105,0,0,0,0,110.458,78.105,78.105,0,0,0,110.458,0A78.105,78.105,0,0,0,4797.773-6677.123Zm-93.017,93.017a53.441,53.441,0,0,1,0-75.577,53.44,53.44,0,0,1,75.577,0,53.441,53.441,0,0,1,0,75.577A53.44,53.44,0,0,1,4704.756-6584.106Z" transform="translate(-4664.438 6700)"/>
    <path id="路径_572" data-name="路径 572" class="cls-2" d="M4874.872-6661.9l-17.44,17.44a53.441,53.441,0,0,1,0,75.577l17.44,17.441A78.106,78.106,0,0,0,4874.872-6661.9Z" transform="translate(-4741.537 6684.781)"/>
  </g>
  <g id="组_165" data-name="组 165" transform="translate(0 0)">
    <circle id="椭圆_182" data-name="椭圆 182" class="cls-3" cx="78.105" cy="78.105" r="78.105"/>
    <path id="路径_573" data-name="路径 573" class="cls-4" d="M4462.02-6523.38a78.105,78.105,0,0,0,78.105-78.105,77.746,77.746,0,0,0-16.062-47.427l-62.043,48.34Z" transform="translate(-4383.914 6679.591)"/>
  </g>
</svg>
