<svg xmlns="http://www.w3.org/2000/svg" width="173.478" height="156.464" viewBox="0 0 173.478 156.464">
  <defs>
    <style>
      .cls-1 {
        fill: #56b4f6;
      }

      .cls-2 {
        fill: #fdfbd7;
      }

      .cls-3 {
        fill: #0543c0;
      }

      .cls-4 {
        fill: #f0e55d;
      }

      .cls-5 {
        fill: #fd7d9c;
      }
    </style>
  </defs>
  <g id="组_168" data-name="组 168" transform="translate(0)">
    <g id="组_161" data-name="组 161" transform="translate(0)">
      <rect id="矩形_183" data-name="矩形 183" class="cls-1" width="173.478" height="156.464" rx="6.374" transform="translate(0 0)"/>
      <path id="矩形_184" data-name="矩形 184" class="cls-2" d="M0,0H173.478a0,0,0,0,1,0,0V122.938a6.374,6.374,0,0,1-6.374,6.374H6.374A6.374,6.374,0,0,1,0,122.938V0A0,0,0,0,1,0,0Z" transform="translate(0 27.152)"/>
      <circle id="椭圆_200" data-name="椭圆 200" class="cls-3" cx="5.57" cy="5.57" r="5.57" transform="translate(12.025 7.611)"/>
      <circle id="椭圆_201" data-name="椭圆 201" class="cls-4" cx="5.57" cy="5.57" r="5.57" transform="translate(31.167 7.611)"/>
      <rect id="矩形_185" data-name="矩形 185" class="cls-5" width="137.314" height="37.401" transform="translate(17.595 46.25)"/>
      <rect id="矩形_186" data-name="矩形 186" class="cls-5" width="81.61" height="37.401" transform="translate(17.595 96.649)"/>
      <rect id="矩形_187" data-name="矩形 187" class="cls-5" width="37.401" height="37.401" transform="translate(117.509 96.649)"/>
    </g>
  </g>
</svg>
