<svg xmlns="http://www.w3.org/2000/svg" width="277.723" height="160.097" viewBox="0 0 277.723 160.097">
  <defs>
    <style>
      .cls-1 {
        fill: #fdfbd7;
      }

      .cls-2 {
        fill: #56b4f6;
      }

      .cls-3 {
        fill: #fd7d9c;
      }
    </style>
  </defs>
  <g id="组_172" data-name="组 172" transform="translate(0)">
    <g id="组_155" data-name="组 155" transform="translate(0 0)">
      <rect id="矩形_163" data-name="矩形 163" class="cls-1" width="277.723" height="160.097" rx="19.14" transform="translate(0 0)"/>
      <rect id="矩形_164" data-name="矩形 164" class="cls-2" width="72.415" height="6.669" transform="translate(65.352 71.923)"/>
      <rect id="矩形_165" data-name="矩形 165" class="cls-2" width="212.717" height="6.669" transform="translate(33.077 31.332)"/>
      <rect id="矩形_166" data-name="矩形 166" class="cls-2" width="143.417" height="6.669" transform="translate(33.077 46.187)"/>
      <rect id="矩形_167" data-name="矩形 167" class="cls-2" width="46.066" height="6.669" transform="translate(176.494 71.923)"/>
      <rect id="矩形_168" data-name="矩形 168" class="cls-3" width="46.066" height="6.669" transform="translate(38.915 86.07)"/>
      <g id="组_153" data-name="组 153" transform="translate(30.075 105.694)">
        <path id="路径_576" data-name="路径 576" class="cls-2" d="M4405.583-5586.111h-25.155a5.818,5.818,0,0,1-5.812-5.812v-25.154a5.818,5.818,0,0,1,5.812-5.812h25.155a5.818,5.818,0,0,1,5.812,5.812v25.154A5.818,5.818,0,0,1,4405.583-5586.111Zm-25.155-33.776a2.812,2.812,0,0,0-2.809,2.81v25.154a2.812,2.812,0,0,0,2.809,2.81h25.155a2.812,2.812,0,0,0,2.809-2.81v-25.154a2.813,2.813,0,0,0-2.809-2.81Z" transform="translate(-4374.616 5622.89)"/>
      </g>
      <g id="组_154" data-name="组 154" transform="translate(84.438 108.697)">
        <circle id="椭圆_183" data-name="椭圆 183" class="cls-3" cx="2.226" cy="2.226" r="2.226" transform="translate(1.78 21.451)"/>
        <circle id="椭圆_184" data-name="椭圆 184" class="cls-3" cx="4.006" cy="4.006" r="4.006" transform="translate(19.833 19.671)"/>
        <circle id="椭圆_185" data-name="椭圆 185" class="cls-3" cx="3.102" cy="3.102" r="3.102" transform="translate(42.134 20.575)"/>
        <circle id="椭圆_186" data-name="椭圆 186" class="cls-3" cx="4.006" cy="4.006" r="4.006" transform="translate(65.28 19.671)"/>
        <circle id="椭圆_187" data-name="椭圆 187" class="cls-3" cx="4.006" cy="4.006" r="4.006" transform="translate(88.065 19.671)"/>
        <circle id="椭圆_188" data-name="椭圆 188" class="cls-3" cx="2.78" cy="2.78" r="2.78" transform="translate(109.123 20.896)"/>
        <circle id="椭圆_189" data-name="椭圆 189" class="cls-3" cx="3.102" cy="3.102" r="3.102" transform="translate(130.199 20.575)"/>
        <circle id="椭圆_190" data-name="椭圆 190" class="cls-3" cx="4.006" cy="4.006" r="4.006" transform="translate(153.345 19.671)"/>
        <circle id="椭圆_191" data-name="椭圆 191" class="cls-3" cx="4.006" cy="4.006" r="4.006"/>
        <circle id="椭圆_192" data-name="椭圆 192" class="cls-3" cx="2.515" cy="2.515" r="2.515" transform="translate(21.323 1.491)"/>
        <circle id="椭圆_193" data-name="椭圆 193" class="cls-3" cx="4.006" cy="4.006" r="4.006" transform="translate(41.23)"/>
        <circle id="椭圆_194" data-name="椭圆 194" class="cls-3" cx="2.02" cy="2.02" r="2.02" transform="translate(67.265 1.985)"/>
        <circle id="椭圆_195" data-name="椭圆 195" class="cls-3" cx="4.006" cy="4.006" r="4.006" transform="translate(88.065)"/>
        <circle id="椭圆_196" data-name="椭圆 196" class="cls-3" cx="3.112" cy="3.112" r="3.112" transform="translate(108.792 0.894)"/>
        <circle id="椭圆_197" data-name="椭圆 197" class="cls-3" cx="4.006" cy="4.006" r="4.006" transform="translate(129.295)"/>
        <circle id="椭圆_198" data-name="椭圆 198" class="cls-3" cx="2.515" cy="2.515" r="2.515" transform="translate(154.836 1.491)"/>
      </g>
    </g>
  </g>
</svg>
