<svg id="组_175" data-name="组 175" xmlns="http://www.w3.org/2000/svg" width="301.332" height="168.854" viewBox="0 0 301.332 168.854">
  <defs>
    <style>
      .cls-1 {
        fill: #56b4f6;
      }

      .cls-2 {
        fill: #f0e55d;
      }

      .cls-3 {
        fill: #fdc254;
      }

      .cls-4 {
        fill: #d74465;
      }
    </style>
  </defs>
  <g id="组_150" data-name="组 150" transform="translate(0)">
    <rect id="矩形_155" data-name="矩形 155" class="cls-1" width="301.331" height="140.72" rx="7.874" transform="translate(0)"/>
    <path id="路径_564" data-name="路径 564" class="cls-2" d="M5662.459-5058.122h268.224a4.713,4.713,0,0,0,3-1.077L5798.61-5194.273Z" transform="translate(-5634.08 5198.842)"/>
    <path id="路径_565" data-name="路径 565" class="cls-3" d="M5936.9-5061.161h47.2a4.729,4.729,0,0,0,4.729-4.729v-131.263a4.729,4.729,0,0,0-4.729-4.729h-187.92l96.49,96.489Z" transform="translate(-5687.501 5201.881)"/>
    <path id="路径_566" data-name="路径 566" class="cls-4" d="M5903.4-5130.972a30.239,30.239,0,0,0-30.239,30.239,30.165,30.165,0,0,0,10.639,23.018l19.6,19.6,19.6-19.6a30.162,30.162,0,0,0,10.64-23.018A30.239,30.239,0,0,0,5903.4-5130.972Zm0,45.58a16.048,16.048,0,0,1-16.048-16.048,16.048,16.048,0,0,1,16.048-16.048,16.048,16.048,0,0,1,16.048,16.048A16.049,16.049,0,0,1,5903.4-5085.392Z" transform="translate(-5718.251 5173.553)"/>
    <path id="路径_567" data-name="路径 567" class="cls-1" d="M5615.2-5014.4l28.135,28.135-28.135,28.135v-56.27Z" transform="translate(-5615.2 5126.984)"/>
  </g>
</svg>
