<svg xmlns="http://www.w3.org/2000/svg" width="777.881" height="253.911" viewBox="0 0 777.881 253.911">
  <g id="logo" transform="translate(-3723.697 436.639)">
    <path id="路径_1" data-name="路径 1" d="M3913.752-276.8v-65.77c0-19.4-4.082-36.368-12.136-50.436-8.223-14.356-20.334-25.406-35.994-32.843-15.088-7.161-33.337-10.791-54.242-10.791H3723.7V-182.73h87.524c21.531,0,40.157-3.884,55.35-11.542,15.662-7.89,27.616-19.169,35.529-33.526C3909.833-241.82,3913.752-258.308,3913.752-276.8Zm-67.134-67.048v68.326c0,9.463-2.651,16.395-8.106,21.186-5.792,5.086-14.6,7.666-26.173,7.666h-23.106V-372.7h23.106c11.573,0,20.379,2.58,26.173,7.666C3843.966-360.24,3846.618-353.309,3846.618-343.847Z" transform="translate(0 0)" fill="#fff"/>
    <path id="路径_2" data-name="路径 2" d="M3910.467-436.639,3813.374-182.73h236.964l-97.093-253.909Zm21.39,117.443,25.418,72.527h-50.836Z" transform="translate(88.014 0)" fill="#fff"/>
    <path id="路径_3" data-name="路径 3" d="M4093.78-436.639,3996.687-182.73H4233.65l-97.093-253.909ZM4115.17-319.2l25.418,72.527h-50.836Z" transform="translate(267.927 0)" fill="#fff"/>
    <path id="路径_4" data-name="路径 4" d="M4106.61-436.639H3914.64V-372.7h63.217v189.97h65.537V-372.7h63.217Z" transform="translate(187.401 0)" fill="#fff"/>
  </g>
</svg>
