<svg xmlns="http://www.w3.org/2000/svg" width="629.87" height="605.407" viewBox="0 0 629.87 605.407">
  <g id="组_198" data-name="组 198" transform="translate(-1000 -675)">
    <g id="组_177" data-name="组 177" transform="translate(-5439.645 6285.209)">
      <rect id="矩形_194" data-name="矩形 194" width="629.87" height="546.583" transform="translate(6439.645 -5610.208)" fill="#f0e55d"/>
      <rect id="矩形_195" data-name="矩形 195" width="629.87" height="179.687" transform="translate(6439.645 -5610.208)" fill="#56b4f6"/>
      <circle id="椭圆_202" data-name="椭圆 202" cx="35.729" cy="35.729" r="35.729" transform="translate(6478.176 -5580.601)" fill="#d74465"/>
      <circle id="椭圆_203" data-name="椭圆 203" cx="5.765" cy="5.765" r="5.765" transform="translate(7023.192 -5580.601)" fill="#0c52d8"/>
      <circle id="椭圆_204" data-name="椭圆 204" cx="5.765" cy="5.765" r="5.765" transform="translate(7023.192 -5557.617)" fill="#0c52d8"/>
      <rect id="矩形_196" data-name="矩形 196" width="210.61" height="21.73" transform="translate(6593.088 -5531.456)" fill="#fdfbd7"/>
      <rect id="矩形_197" data-name="矩形 197" width="424.476" height="21.73" transform="translate(6478.176 -5481.311)" fill="#fdfbd7"/>
      <rect id="矩形_198" data-name="矩形 198" width="71.184" height="21.73" transform="translate(6593.088 -5576.343)" fill="#fdfbd7"/>
      <circle id="椭圆_205" data-name="椭圆 205" cx="62.055" cy="62.055" r="62.055" transform="translate(6692.524 -5330.649)" fill="#59b7f7"/>
      <path id="路径_582" data-name="路径 582" d="M6573.236-5188.012A125.363,125.363,0,0,1,6698.6-5313.374a125.362,125.362,0,0,1,125.363,125.362" transform="translate(55.98 124.386)" fill="#0e56de"/>
    </g>
    <path id="路径_600" data-name="路径 600" d="M13.4.408q-5.1,0-7.939-2.822T2.618-10.472V-23.8H8.126v13.124q0,6.392,5.3,6.392a4.972,4.972,0,0,0,3.944-1.547,7.211,7.211,0,0,0,1.36-4.845V-23.8h5.44v13.328q0,5.236-2.839,8.058T13.4.408ZM51.442-23.8V0H46.92L35.054-14.45V0h-5.44V-23.8H34.17L46-9.35V-23.8Zm10.574,4.488H54.4V-23.8H75.14v4.488H67.524V0H62.016ZM92.582-5.1H81.532L79.424,0H73.78L84.388-23.8h5.44L100.47,0H94.69ZM90.848-9.282l-3.774-9.112L83.3-9.282Zm27.846-2.992h5.032v9.656a14.377,14.377,0,0,1-4.488,2.244A17.424,17.424,0,0,1,114.1.408a13.913,13.913,0,0,1-6.664-1.581A11.769,11.769,0,0,1,102.8-5.559a12.084,12.084,0,0,1-1.683-6.341,12.084,12.084,0,0,1,1.683-6.341,11.712,11.712,0,0,1,4.675-4.386,14.185,14.185,0,0,1,6.732-1.581,14.732,14.732,0,0,1,5.678,1.054,11.251,11.251,0,0,1,4.284,3.06l-3.536,3.264a8.178,8.178,0,0,0-6.154-2.686,8.4,8.4,0,0,0-4.046.952,6.83,6.83,0,0,0-2.754,2.686,7.906,7.906,0,0,0-.986,3.978,7.837,7.837,0,0,0,.986,3.944,6.974,6.974,0,0,0,2.737,2.7,8.112,8.112,0,0,0,4,.969,8.927,8.927,0,0,0,4.284-1.02Zm31.178,3.842V0h-5.508V-8.5L135.15-23.8H141l6.358,10.574L153.714-23.8h5.406ZM171.938.408a13.892,13.892,0,0,1-6.681-1.6,11.86,11.86,0,0,1-4.658-4.4,12.02,12.02,0,0,1-1.683-6.307,12.02,12.02,0,0,1,1.683-6.307,11.86,11.86,0,0,1,4.658-4.4,13.892,13.892,0,0,1,6.681-1.6,13.793,13.793,0,0,1,6.664,1.6,12.014,12.014,0,0,1,4.658,4.4,11.928,11.928,0,0,1,1.7,6.307,11.928,11.928,0,0,1-1.7,6.307,12.014,12.014,0,0,1-4.658,4.4A13.793,13.793,0,0,1,171.938.408Zm0-4.692a7.552,7.552,0,0,0,3.808-.969,6.954,6.954,0,0,0,2.669-2.7,7.946,7.946,0,0,0,.969-3.944,7.946,7.946,0,0,0-.969-3.944,6.954,6.954,0,0,0-2.669-2.7,7.552,7.552,0,0,0-3.808-.969,7.552,7.552,0,0,0-3.808.969,6.954,6.954,0,0,0-2.669,2.7,7.946,7.946,0,0,0-.969,3.944,7.946,7.946,0,0,0,.969,3.944,6.954,6.954,0,0,0,2.669,2.7A7.552,7.552,0,0,0,171.938-4.284ZM199.682.408q-5.1,0-7.939-2.822T188.9-10.472V-23.8h5.508v13.124q0,6.392,5.3,6.392a4.972,4.972,0,0,0,3.944-1.547,7.211,7.211,0,0,0,1.36-4.845V-23.8h5.44v13.328q0,5.236-2.839,8.058T199.682.408ZM231.064,0l-4.59-6.63h-5.066V0H215.9V-23.8h10.3a13.222,13.222,0,0,1,5.491,1.054,8.158,8.158,0,0,1,3.587,2.992,8.243,8.243,0,0,1,1.258,4.59,8.078,8.078,0,0,1-1.275,4.573,8.081,8.081,0,0,1-3.621,2.941L236.98,0Zm-.1-15.164a3.77,3.77,0,0,0-1.292-3.077,5.785,5.785,0,0,0-3.774-1.071h-4.488v8.3H225.9A5.721,5.721,0,0,0,229.67-12.1,3.78,3.78,0,0,0,230.962-15.164ZM248.71.408a19.473,19.473,0,0,1-5.457-.765,12.8,12.8,0,0,1-4.233-1.989l1.87-4.148a12.69,12.69,0,0,0,3.638,1.8,13.665,13.665,0,0,0,4.216.68,6.735,6.735,0,0,0,3.468-.7,2.106,2.106,0,0,0,1.122-1.853,1.771,1.771,0,0,0-.663-1.411,5.026,5.026,0,0,0-1.7-.9q-1.037-.34-2.8-.748a38.775,38.775,0,0,1-4.454-1.292,7.236,7.236,0,0,1-2.975-2.074A5.6,5.6,0,0,1,239.5-16.8a6.624,6.624,0,0,1,1.122-3.757A7.547,7.547,0,0,1,244-23.222a13.8,13.8,0,0,1,5.525-.986,18.3,18.3,0,0,1,4.454.544,13.158,13.158,0,0,1,3.808,1.564l-1.7,4.182a13.271,13.271,0,0,0-6.6-1.87,6.184,6.184,0,0,0-3.417.748,2.283,2.283,0,0,0-1.1,1.972,1.928,1.928,0,0,0,1.275,1.819,20.018,20.018,0,0,0,3.893,1.173,38.776,38.776,0,0,1,4.454,1.292,7.376,7.376,0,0,1,2.975,2.04,5.47,5.47,0,0,1,1.241,3.774,6.5,6.5,0,0,1-1.139,3.723,7.653,7.653,0,0,1-3.417,2.669A13.93,13.93,0,0,1,248.71.408Zm32.3-4.828V0H262.582V-23.8h17.986v4.42H268.056v5.168h11.05v4.284h-11.05V-4.42ZM285.4-23.8H290.9V-4.488h11.934V0H285.4Zm26.044,4.42v6.29h11.016v4.42H311.44V0h-5.508V-23.8h17.986v4.42ZM352.954-5.1H341.9L339.8,0h-5.644L344.76-23.8h5.44L360.842,0h-5.78ZM351.22-9.282l-3.774-9.112-3.774,9.112ZM385.152-23.8V0H380.63L368.764-14.45V0h-5.44V-23.8h4.556L379.712-9.35V-23.8Zm5.644,0h10.812a15.2,15.2,0,0,1,6.851,1.479,11.074,11.074,0,0,1,4.624,4.165,11.715,11.715,0,0,1,1.649,6.256,11.715,11.715,0,0,1-1.649,6.256,11.074,11.074,0,0,1-4.624,4.165A15.2,15.2,0,0,1,401.608,0H390.8Zm10.54,19.278a8,8,0,0,0,5.7-1.989,7.025,7.025,0,0,0,2.125-5.389,7.025,7.025,0,0,0-2.125-5.389,8,8,0,0,0-5.7-1.989H396.3V-4.522ZM440.028.408a13.892,13.892,0,0,1-6.681-1.6,11.86,11.86,0,0,1-4.658-4.4,12.02,12.02,0,0,1-1.683-6.307,12.02,12.02,0,0,1,1.683-6.307,11.86,11.86,0,0,1,4.658-4.4,13.892,13.892,0,0,1,6.681-1.6,13.793,13.793,0,0,1,6.664,1.6,12.014,12.014,0,0,1,4.658,4.4,11.928,11.928,0,0,1,1.7,6.307,11.928,11.928,0,0,1-1.7,6.307,12.014,12.014,0,0,1-4.658,4.4A13.793,13.793,0,0,1,440.028.408Zm0-4.692a7.552,7.552,0,0,0,3.808-.969,6.954,6.954,0,0,0,2.669-2.7,7.946,7.946,0,0,0,.969-3.944,7.946,7.946,0,0,0-.969-3.944,6.954,6.954,0,0,0-2.669-2.7,7.552,7.552,0,0,0-3.808-.969,7.552,7.552,0,0,0-3.808.969,6.954,6.954,0,0,0-2.669,2.7,7.946,7.946,0,0,0-.969,3.944,7.946,7.946,0,0,0,.969,3.944,6.954,6.954,0,0,0,2.669,2.7A7.552,7.552,0,0,0,440.028-4.284Zm21.76-15.028h-7.616V-23.8h20.74v4.488H467.3V0h-5.508ZM499.7-23.8V0H494.19V-9.758H483.378V0H477.87V-23.8h5.508v9.384H494.19V-23.8ZM523.77-4.42V0H505.342V-23.8h17.986v4.42H510.816v5.168h11.05v4.284h-11.05V-4.42ZM543.32,0l-4.59-6.63h-5.066V0h-5.508V-23.8h10.3a13.221,13.221,0,0,1,5.491,1.054,8.158,8.158,0,0,1,3.587,2.992,8.242,8.242,0,0,1,1.258,4.59,8.078,8.078,0,0,1-1.275,4.573A8.082,8.082,0,0,1,543.9-7.65L549.236,0Zm-.1-15.164a3.77,3.77,0,0,0-1.292-3.077,5.784,5.784,0,0,0-3.774-1.071h-4.488v8.3h4.488a5.721,5.721,0,0,0,3.774-1.088A3.781,3.781,0,0,0,543.218-15.164ZM560.966.408a19.473,19.473,0,0,1-5.457-.765,12.8,12.8,0,0,1-4.233-1.989l1.87-4.148a12.689,12.689,0,0,0,3.638,1.8,13.665,13.665,0,0,0,4.216.68,6.735,6.735,0,0,0,3.468-.7,2.106,2.106,0,0,0,1.122-1.853,1.771,1.771,0,0,0-.663-1.411,5.026,5.026,0,0,0-1.7-.9q-1.037-.34-2.8-.748a38.775,38.775,0,0,1-4.454-1.292,7.236,7.236,0,0,1-2.975-2.074,5.6,5.6,0,0,1-1.241-3.808,6.624,6.624,0,0,1,1.122-3.757,7.547,7.547,0,0,1,3.383-2.669,13.8,13.8,0,0,1,5.525-.986,18.294,18.294,0,0,1,4.454.544,13.157,13.157,0,0,1,3.808,1.564l-1.7,4.182a13.271,13.271,0,0,0-6.6-1.87,6.184,6.184,0,0,0-3.417.748,2.283,2.283,0,0,0-1.105,1.972,1.928,1.928,0,0,0,1.275,1.819,20.02,20.02,0,0,0,3.893,1.173,38.778,38.778,0,0,1,4.454,1.292,7.376,7.376,0,0,1,2.975,2.04,5.47,5.47,0,0,1,1.241,3.774,6.5,6.5,0,0,1-1.139,3.723,7.653,7.653,0,0,1-3.417,2.669A13.93,13.93,0,0,1,560.966.408Z" transform="translate(1029 1280)" fill="#fff"/>
  </g>
</svg>
