<svg xmlns="http://www.w3.org/2000/svg" width="492.483" height="561.408" viewBox="0 0 492.483 561.408">
  <g id="组_199" data-name="组 199" transform="translate(-353 -1008)">
    <path id="路径_599" data-name="路径 599" d="M2.822-23.8H8.33V-4.488H20.264V0H2.822ZM34.476.408A13.892,13.892,0,0,1,27.8-1.19a11.86,11.86,0,0,1-4.658-4.4A12.02,12.02,0,0,1,21.454-11.9a12.02,12.02,0,0,1,1.683-6.307,11.86,11.86,0,0,1,4.658-4.4,13.892,13.892,0,0,1,6.681-1.6,13.793,13.793,0,0,1,6.664,1.6,12.014,12.014,0,0,1,4.658,4.4A11.928,11.928,0,0,1,47.5-11.9a11.928,11.928,0,0,1-1.7,6.307,12.014,12.014,0,0,1-4.658,4.4A13.793,13.793,0,0,1,34.476.408Zm0-4.692a7.552,7.552,0,0,0,3.808-.969,6.954,6.954,0,0,0,2.669-2.7,7.946,7.946,0,0,0,.969-3.944,7.946,7.946,0,0,0-.969-3.944,6.954,6.954,0,0,0-2.669-2.7,7.552,7.552,0,0,0-3.808-.969,7.552,7.552,0,0,0-3.808.969A6.954,6.954,0,0,0,28-15.844,7.946,7.946,0,0,0,27.03-11.9,7.946,7.946,0,0,0,28-7.956a6.954,6.954,0,0,0,2.669,2.7A7.552,7.552,0,0,0,34.476-4.284ZM63.036.408a13.671,13.671,0,0,1-6.579-1.581,11.8,11.8,0,0,1-4.624-4.386A12.084,12.084,0,0,1,50.15-11.9a12.084,12.084,0,0,1,1.683-6.341,11.8,11.8,0,0,1,4.624-4.386,13.742,13.742,0,0,1,6.613-1.581,13.871,13.871,0,0,1,5.593,1.088,11.2,11.2,0,0,1,4.2,3.128l-3.536,3.264a7.6,7.6,0,0,0-5.984-2.788,7.946,7.946,0,0,0-3.944.969,6.889,6.889,0,0,0-2.7,2.7,7.946,7.946,0,0,0-.969,3.944,7.946,7.946,0,0,0,.969,3.944,6.889,6.889,0,0,0,2.7,2.7,7.946,7.946,0,0,0,3.944.969,7.566,7.566,0,0,0,5.984-2.822l3.536,3.264A11.022,11.022,0,0,1,68.646-.68,13.993,13.993,0,0,1,63.036.408Zm22.2-9.758-3.2,3.332V0H76.568V-23.8h5.474v11.118L92.582-23.8H98.7l-9.86,10.608L99.28,0H92.854Zm37.536.918V0h-5.508V-8.5l-9.214-15.3H113.9l6.358,10.574L126.616-23.8h5.406ZM144.84.408a13.892,13.892,0,0,1-6.681-1.6,11.86,11.86,0,0,1-4.658-4.4,12.02,12.02,0,0,1-1.683-6.307,12.02,12.02,0,0,1,1.683-6.307,11.86,11.86,0,0,1,4.658-4.4,13.892,13.892,0,0,1,6.681-1.6,13.793,13.793,0,0,1,6.664,1.6,12.014,12.014,0,0,1,4.658,4.4,11.928,11.928,0,0,1,1.7,6.307,11.928,11.928,0,0,1-1.7,6.307,12.014,12.014,0,0,1-4.658,4.4A13.793,13.793,0,0,1,144.84.408Zm0-4.692a7.552,7.552,0,0,0,3.808-.969,6.954,6.954,0,0,0,2.669-2.7,7.946,7.946,0,0,0,.969-3.944,7.946,7.946,0,0,0-.969-3.944,6.954,6.954,0,0,0-2.669-2.7,7.552,7.552,0,0,0-3.808-.969,7.552,7.552,0,0,0-3.808.969,6.954,6.954,0,0,0-2.669,2.7,7.946,7.946,0,0,0-.969,3.944,7.946,7.946,0,0,0,.969,3.944,6.954,6.954,0,0,0,2.669,2.7A7.552,7.552,0,0,0,144.84-4.284ZM172.584.408q-5.1,0-7.939-2.822t-2.839-8.058V-23.8h5.508v13.124q0,6.392,5.3,6.392a4.972,4.972,0,0,0,3.944-1.547,7.211,7.211,0,0,0,1.36-4.845V-23.8h5.44v13.328q0,5.236-2.839,8.058T172.584.408ZM203.966,0l-4.59-6.63H194.31V0H188.8V-23.8h10.3a13.222,13.222,0,0,1,5.491,1.054,8.158,8.158,0,0,1,3.587,2.992,8.243,8.243,0,0,1,1.258,4.59,8.078,8.078,0,0,1-1.275,4.573,8.081,8.081,0,0,1-3.621,2.941L209.882,0Zm-.1-15.164a3.77,3.77,0,0,0-1.292-3.077,5.785,5.785,0,0,0-3.774-1.071H194.31v8.3H198.8a5.721,5.721,0,0,0,3.774-1.088A3.78,3.78,0,0,0,203.864-15.164Zm19.55-8.636h10.812a15.2,15.2,0,0,1,6.851,1.479,11.074,11.074,0,0,1,4.624,4.165A11.715,11.715,0,0,1,247.35-11.9,11.715,11.715,0,0,1,245.7-5.644a11.074,11.074,0,0,1-4.624,4.165A15.2,15.2,0,0,1,234.226,0H223.414Zm10.54,19.278a8,8,0,0,0,5.7-1.989,7.025,7.025,0,0,0,2.125-5.389,7.025,7.025,0,0,0-2.125-5.389,8,8,0,0,0-5.7-1.989h-5.032V-4.522ZM251.5-23.8h5.508V0H251.5Zm27.234,11.526h5.032v9.656a14.377,14.377,0,0,1-4.488,2.244,17.424,17.424,0,0,1-5.134.782,13.913,13.913,0,0,1-6.664-1.581,11.769,11.769,0,0,1-4.641-4.386,12.084,12.084,0,0,1-1.683-6.341,12.084,12.084,0,0,1,1.683-6.341,11.712,11.712,0,0,1,4.675-4.386,14.185,14.185,0,0,1,6.732-1.581,14.732,14.732,0,0,1,5.678,1.054,11.25,11.25,0,0,1,4.284,3.06L280.67-16.83a8.178,8.178,0,0,0-6.154-2.686,8.4,8.4,0,0,0-4.046.952,6.829,6.829,0,0,0-2.754,2.686,7.906,7.906,0,0,0-.986,3.978,7.837,7.837,0,0,0,.986,3.944,6.974,6.974,0,0,0,2.737,2.7,8.112,8.112,0,0,0,3.995.969,8.927,8.927,0,0,0,4.284-1.02ZM288.864-23.8h5.508V0h-5.508Zm16.082,4.488H297.33V-23.8h20.74v4.488h-7.616V0h-5.508ZM335.512-5.1h-11.05L322.354,0H316.71l10.608-23.8h5.44L343.4,0h-5.78Zm-1.734-4.182L330-18.394,326.23-9.282Zm12.1-14.518h5.508V-4.488h11.934V0H345.882Zm30.158,0h10.812a15.2,15.2,0,0,1,6.851,1.479,11.074,11.074,0,0,1,4.624,4.165,11.715,11.715,0,0,1,1.649,6.256,11.715,11.715,0,0,1-1.649,6.256A11.074,11.074,0,0,1,393.7-1.479,15.2,15.2,0,0,1,386.852,0H376.04ZM386.58-4.522a8,8,0,0,0,5.7-1.989A7.025,7.025,0,0,0,394.4-11.9a7.025,7.025,0,0,0-2.125-5.389,8,8,0,0,0-5.7-1.989h-5.032V-4.522ZM415.65.408a13.892,13.892,0,0,1-6.681-1.6,11.86,11.86,0,0,1-4.658-4.4,12.02,12.02,0,0,1-1.683-6.307,12.02,12.02,0,0,1,1.683-6.307,11.86,11.86,0,0,1,4.658-4.4,13.892,13.892,0,0,1,6.681-1.6,13.793,13.793,0,0,1,6.664,1.6,12.014,12.014,0,0,1,4.658,4.4,11.928,11.928,0,0,1,1.7,6.307,11.928,11.928,0,0,1-1.7,6.307,12.014,12.014,0,0,1-4.658,4.4A13.793,13.793,0,0,1,415.65.408Zm0-4.692a7.552,7.552,0,0,0,3.808-.969,6.954,6.954,0,0,0,2.669-2.7A7.946,7.946,0,0,0,423.1-11.9a7.946,7.946,0,0,0-.969-3.944,6.954,6.954,0,0,0-2.669-2.7,7.552,7.552,0,0,0-3.808-.969,7.552,7.552,0,0,0-3.808.969,6.954,6.954,0,0,0-2.669,2.7A7.946,7.946,0,0,0,408.2-11.9a7.946,7.946,0,0,0,.969,3.944,6.954,6.954,0,0,0,2.669,2.7A7.552,7.552,0,0,0,415.65-4.284Zm28.7,4.692a13.892,13.892,0,0,1-6.681-1.6,11.86,11.86,0,0,1-4.658-4.4,12.02,12.02,0,0,1-1.683-6.307,12.02,12.02,0,0,1,1.683-6.307,11.86,11.86,0,0,1,4.658-4.4,13.892,13.892,0,0,1,6.681-1.6,13.793,13.793,0,0,1,6.664,1.6,12.014,12.014,0,0,1,4.658,4.4,11.928,11.928,0,0,1,1.7,6.307,11.928,11.928,0,0,1-1.7,6.307,12.014,12.014,0,0,1-4.658,4.4A13.793,13.793,0,0,1,444.346.408Zm0-4.692a7.552,7.552,0,0,0,3.808-.969,6.954,6.954,0,0,0,2.669-2.7,7.946,7.946,0,0,0,.969-3.944,7.946,7.946,0,0,0-.969-3.944,6.954,6.954,0,0,0-2.669-2.7,7.552,7.552,0,0,0-3.808-.969,7.552,7.552,0,0,0-3.808.969,6.954,6.954,0,0,0-2.669,2.7A7.946,7.946,0,0,0,436.9-11.9a7.946,7.946,0,0,0,.969,3.944,6.954,6.954,0,0,0,2.669,2.7A7.552,7.552,0,0,0,444.346-4.284ZM476.68,0l-4.59-6.63h-5.066V0h-5.508V-23.8h10.3a13.221,13.221,0,0,1,5.491,1.054,8.158,8.158,0,0,1,3.587,2.992,8.243,8.243,0,0,1,1.258,4.59,8.078,8.078,0,0,1-1.275,4.573,8.081,8.081,0,0,1-3.621,2.941L482.6,0Zm-.1-15.164a3.77,3.77,0,0,0-1.292-3.077,5.785,5.785,0,0,0-3.774-1.071h-4.488v8.3h4.488a5.721,5.721,0,0,0,3.774-1.088A3.781,3.781,0,0,0,476.578-15.164Z" transform="translate(357 1569)" fill="#fff"/>
    <g id="组_197" data-name="组 197" transform="translate(10)">
      <g id="组_188" data-name="组 188" transform="translate(-6688.988 6589.218)">
        <rect id="矩形_199" data-name="矩形 199" width="492.483" height="492.483" transform="translate(7031.988 -5581.218)" fill="#0e56de"/>
        <path id="路径_583" data-name="路径 583" d="M7213.6-5390.328v86.023h-86.022v-86.023Zm68.814,68.813v17.21H7265.2v-17.21Zm34.411,0v17.21h-17.21v-17.21Zm-34.411-68.813v17.2h17.2v-17.2h17.21v51.612H7265.2v-17.2H7248v51.611h-17.2v-86.023Zm-86.025,17.2h-51.611v51.486H7196.4v-51.486Zm-17.19,17.211v17.2h-17.21v-17.2h17.21Zm34.4-137.636v86.024h-86.022v-86.024Zm103.225,0v86.024H7230.8v-86.024Zm-120.436,17.2h-51.611v51.624H7196.4v-51.624Zm103.226,0H7248v51.624h51.623v-51.624Zm-120.416,17.211v17.2h-17.21v-17.2h17.21Zm103.225,0v17.2H7265.2v-17.2h17.222Z" transform="translate(2.818 2.584)" fill="#56b4f6"/>
        <g id="组_179" data-name="组 179" transform="translate(7084.114 -5538.166)">
          <g id="组_178" data-name="组 178">
            <rect id="矩形_200" data-name="矩形 200" width="12.72" height="62.088" fill="#fbee54"/>
            <rect id="矩形_201" data-name="矩形 201" width="62.088" height="12.72" fill="#fbee54"/>
          </g>
        </g>
        <g id="组_181" data-name="组 181" transform="translate(7302.438 -5538.166)">
          <g id="组_180" data-name="组 180">
            <rect id="矩形_202" data-name="矩形 202" width="62.088" height="12.72" fill="#fbee54"/>
            <rect id="矩形_203" data-name="矩形 203" width="12.72" height="62.088" transform="translate(49.368)" fill="#fbee54"/>
          </g>
        </g>
        <g id="组_183" data-name="组 183" transform="translate(7302.438 -5319.962)">
          <g id="组_182" data-name="组 182">
            <rect id="矩形_204" data-name="矩形 204" width="12.72" height="62.088" transform="translate(49.368)" fill="#fbee54"/>
            <rect id="矩形_205" data-name="矩形 205" width="62.088" height="12.72" transform="translate(0 49.367)" fill="#fbee54"/>
          </g>
        </g>
        <g id="组_185" data-name="组 185" transform="translate(7084.114 -5319.962)">
          <g id="组_184" data-name="组 184">
            <rect id="矩形_206" data-name="矩形 206" width="62.088" height="12.72" transform="translate(0 49.367)" fill="#fbee54"/>
            <rect id="矩形_207" data-name="矩形 207" width="12.72" height="62.088" fill="#fbee54"/>
          </g>
        </g>
      </g>
      <path id="减去_1" data-name="减去 1" d="M-2045.5-4991a42.229,42.229,0,0,1-16.543-3.34,42.362,42.362,0,0,1-13.509-9.108,42.361,42.361,0,0,1-9.108-13.509A42.241,42.241,0,0,1-2088-5033.5a42.237,42.237,0,0,1,3.34-16.543,42.363,42.363,0,0,1,9.108-13.509,42.365,42.365,0,0,1,13.509-9.108A42.229,42.229,0,0,1-2045.5-5076a42.228,42.228,0,0,1,16.543,3.34,42.362,42.362,0,0,1,13.509,9.108,42.365,42.365,0,0,1,9.108,13.509A42.231,42.231,0,0,1-2003-5033.5a42.235,42.235,0,0,1-3.34,16.543,42.367,42.367,0,0,1-9.108,13.509,42.362,42.362,0,0,1-13.509,9.108A42.228,42.228,0,0,1-2045.5-4991Zm0-65.084a22.61,22.61,0,0,0-22.584,22.584,22.609,22.609,0,0,0,22.584,22.583,22.609,22.609,0,0,0,22.584-22.583A22.61,22.61,0,0,0-2045.5-5056.084Z" transform="translate(2790 6387)" fill="#f0e55d"/>
      <rect id="矩形_233" data-name="矩形 233" width="114" height="115" transform="translate(687 1353)" fill="#fc7d9b"/>
      <path id="联合_1" data-name="联合 1" d="M-2082-5034v-21.2a11,11,0,0,1-6-9.8,11,11,0,0,1,11-11,11,11,0,0,1,11,11,11,11,0,0,1-6,9.8v21.2Z" transform="translate(2822 6466)" fill="#0e56de"/>
    </g>
  </g>
</svg>
