<svg xmlns="http://www.w3.org/2000/svg" width="590.699" height="430.407" viewBox="0 0 590.699 430.407">
  <g id="组_200" data-name="组 200" transform="translate(-333 -1751)">
    <path id="路径_598" data-name="路径 598" d="M2.822-23.8H8.33V0H2.822Zm11.152,0H24.786a15.2,15.2,0,0,1,6.851,1.479,11.074,11.074,0,0,1,4.624,4.165A11.715,11.715,0,0,1,37.91-11.9a11.715,11.715,0,0,1-1.649,6.256,11.074,11.074,0,0,1-4.624,4.165A15.2,15.2,0,0,1,24.786,0H13.974ZM24.514-4.522a8,8,0,0,0,5.7-1.989A7.025,7.025,0,0,0,32.334-11.9a7.025,7.025,0,0,0-2.125-5.389,8,8,0,0,0-5.7-1.989H19.482V-4.522Zm35.972.1V0H42.058V-23.8H60.044v4.42H47.532v5.168h11.05v4.284H47.532V-4.42ZM86.7-23.8V0H82.178L70.312-14.45V0h-5.44V-23.8h4.556L81.26-9.35V-23.8Zm10.574,4.488H89.658V-23.8H110.4v4.488h-7.616V0H97.274ZM113.356-23.8h5.508V0h-5.508Zm16.66,4.42v6.29h11.016v4.42H130.016V0h-5.508V-23.8h17.986v4.42ZM157.658-8.432V0H152.15V-8.5l-9.214-15.3h5.848l6.358,10.574L161.5-23.8h5.406Zm26.112-10.88h-7.616V-23.8h20.74v4.488h-7.616V0H183.77ZM221.68-23.8V0h-5.508V-9.758H205.36V0h-5.508V-23.8h5.508v9.384h10.812V-23.8ZM245.752-4.42V0H227.324V-23.8H245.31v4.42H232.8v5.168h11.05v4.284H232.8V-4.42ZM259.76-23.8h10.812a15.2,15.2,0,0,1,6.851,1.479,11.074,11.074,0,0,1,4.624,4.165A11.715,11.715,0,0,1,283.7-11.9a11.715,11.715,0,0,1-1.649,6.256,11.074,11.074,0,0,1-4.624,4.165A15.2,15.2,0,0,1,270.572,0H259.76ZM270.3-4.522a8,8,0,0,0,5.7-1.989A7.025,7.025,0,0,0,278.12-11.9a7.025,7.025,0,0,0-2.125-5.389,8,8,0,0,0-5.7-1.989h-5.032V-4.522Zm35.972.1V0H287.844V-23.8H305.83v4.42H293.318v5.168h11.05v4.284h-11.05V-4.42ZM318.478.408a19.473,19.473,0,0,1-5.457-.765,12.8,12.8,0,0,1-4.233-1.989l1.87-4.148a12.689,12.689,0,0,0,3.638,1.8,13.665,13.665,0,0,0,4.216.68,6.736,6.736,0,0,0,3.468-.7A2.106,2.106,0,0,0,323.1-6.562a1.771,1.771,0,0,0-.663-1.411,5.026,5.026,0,0,0-1.7-.9q-1.037-.34-2.805-.748a38.774,38.774,0,0,1-4.454-1.292,7.236,7.236,0,0,1-2.975-2.074,5.6,5.6,0,0,1-1.241-3.808,6.624,6.624,0,0,1,1.122-3.757,7.548,7.548,0,0,1,3.383-2.669,13.8,13.8,0,0,1,5.525-.986,18.294,18.294,0,0,1,4.454.544,13.157,13.157,0,0,1,3.808,1.564l-1.7,4.182a13.271,13.271,0,0,0-6.6-1.87,6.185,6.185,0,0,0-3.417.748,2.283,2.283,0,0,0-1.1,1.972,1.928,1.928,0,0,0,1.275,1.819,20.019,20.019,0,0,0,3.893,1.173,38.774,38.774,0,0,1,4.454,1.292,7.376,7.376,0,0,1,2.975,2.04,5.47,5.47,0,0,1,1.241,3.774,6.5,6.5,0,0,1-1.139,3.723A7.653,7.653,0,0,1,324.02-.578,13.93,13.93,0,0,1,318.478.408ZM332.35-23.8h5.508V0H332.35Zm27.234,11.526h5.032v9.656a14.377,14.377,0,0,1-4.488,2.244,17.424,17.424,0,0,1-5.134.782,13.913,13.913,0,0,1-6.664-1.581,11.769,11.769,0,0,1-4.641-4.386,12.084,12.084,0,0,1-1.683-6.341,12.084,12.084,0,0,1,1.683-6.341,11.712,11.712,0,0,1,4.675-4.386,14.185,14.185,0,0,1,6.732-1.581,14.732,14.732,0,0,1,5.678,1.054,11.25,11.25,0,0,1,4.284,3.06l-3.536,3.264a8.178,8.178,0,0,0-6.154-2.686,8.4,8.4,0,0,0-4.046.952,6.829,6.829,0,0,0-2.754,2.686,7.906,7.906,0,0,0-.986,3.978,7.837,7.837,0,0,0,.986,3.944,6.974,6.974,0,0,0,2.737,2.7,8.112,8.112,0,0,0,3.995.969,8.927,8.927,0,0,0,4.284-1.02ZM391.544-23.8V0h-4.522L375.156-14.45V0h-5.44V-23.8h4.556L386.1-9.35V-23.8Zm20.2,4.488h-7.616V-23.8h20.74v4.488h-7.616V0H411.74ZM442.986,0,438.4-6.63H433.33V0h-5.508V-23.8h10.3a13.221,13.221,0,0,1,5.491,1.054,8.158,8.158,0,0,1,3.587,2.992,8.243,8.243,0,0,1,1.258,4.59,8.078,8.078,0,0,1-1.275,4.573,8.081,8.081,0,0,1-3.621,2.941L448.9,0Zm-.1-15.164a3.77,3.77,0,0,0-1.292-3.077,5.785,5.785,0,0,0-3.774-1.071H433.33v8.3h4.488a5.721,5.721,0,0,0,3.774-1.088A3.781,3.781,0,0,0,442.884-15.164Zm9.928-8.636h5.508V0h-5.508ZM475.354.408a13.671,13.671,0,0,1-6.579-1.581,11.8,11.8,0,0,1-4.624-4.386,12.084,12.084,0,0,1-1.683-6.341,12.084,12.084,0,0,1,1.683-6.341,11.8,11.8,0,0,1,4.624-4.386,13.742,13.742,0,0,1,6.613-1.581,13.871,13.871,0,0,1,5.593,1.088,11.2,11.2,0,0,1,4.2,3.128l-3.536,3.264a7.6,7.6,0,0,0-5.984-2.788,7.946,7.946,0,0,0-3.944.969,6.888,6.888,0,0,0-2.7,2.7,7.946,7.946,0,0,0-.969,3.944,7.946,7.946,0,0,0,.969,3.944,6.888,6.888,0,0,0,2.7,2.7,7.946,7.946,0,0,0,3.944.969,7.566,7.566,0,0,0,5.984-2.822l3.536,3.264A11.022,11.022,0,0,1,480.964-.68,13.993,13.993,0,0,1,475.354.408Zm22.2-9.758-3.2,3.332V0h-5.474V-23.8h5.474v11.118L504.9-23.8h6.12l-9.86,10.608L511.6,0h-6.426Zm23.8,9.758A19.472,19.472,0,0,1,515.9-.357a12.8,12.8,0,0,1-4.233-1.989l1.87-4.148a12.69,12.69,0,0,0,3.638,1.8,13.665,13.665,0,0,0,4.216.68,6.735,6.735,0,0,0,3.468-.7,2.106,2.106,0,0,0,1.122-1.853,1.771,1.771,0,0,0-.663-1.411,5.026,5.026,0,0,0-1.7-.9q-1.037-.34-2.8-.748a38.777,38.777,0,0,1-4.454-1.292,7.237,7.237,0,0,1-2.975-2.074,5.6,5.6,0,0,1-1.241-3.808,6.624,6.624,0,0,1,1.122-3.757,7.547,7.547,0,0,1,3.383-2.669,13.8,13.8,0,0,1,5.525-.986,18.3,18.3,0,0,1,4.454.544,13.158,13.158,0,0,1,3.808,1.564l-1.7,4.182a13.271,13.271,0,0,0-6.6-1.87,6.185,6.185,0,0,0-3.417.748,2.283,2.283,0,0,0-1.1,1.972,1.928,1.928,0,0,0,1.275,1.819,20.02,20.02,0,0,0,3.893,1.173,38.776,38.776,0,0,1,4.454,1.292,7.375,7.375,0,0,1,2.975,2.04,5.47,5.47,0,0,1,1.241,3.774,6.5,6.5,0,0,1-1.139,3.723A7.652,7.652,0,0,1,526.9-.578,13.93,13.93,0,0,1,521.356.408Z" transform="translate(362 2181)" fill="#fff"/>
    <g id="组_192" data-name="组 192" transform="translate(-5887.736 6684.271)">
      <rect id="矩形_227" data-name="矩形 227" width="590.699" height="355.576" rx="12.589" transform="translate(6220.736 -4933.271)" fill="#56b4f6"/>
      <rect id="矩形_228" data-name="矩形 228" width="481.844" height="212.108" transform="translate(6281.567 -4819.614)" fill="#fd7d9c"/>
      <path id="路径_588" data-name="路径 588" d="M6287.877-4578.321s24.013-34.817,45.623-34.817,40.821,22.812,57.63,22.812,39.62-32.417,56.429-32.417,33.616,33.617,52.826,33.617,13.207-17.209,46.823-17.209,26.053-22.264,48.318,0,69.342,0,74.144,0,39.621,20.81,64.833,20.81,35.22,7.2,35.22,7.2Z" transform="translate(-6.311 -29.184)" fill="#0543c0"/>
      <g id="组_190" data-name="组 190" transform="translate(6754.737 -4905.435)">
        <rect id="矩形_229" data-name="矩形 229" width="8.425" height="26.203" transform="translate(18.528 0) rotate(45)" fill="#f0e55d"/>
        <rect id="矩形_230" data-name="矩形 230" width="8.425" height="26.203" transform="translate(24.486 18.528) rotate(135)" fill="#f0e55d"/>
      </g>
      <g id="组_191" data-name="组 191" transform="translate(6283.058 -4892.082)">
        <path id="路径_589" data-name="路径 589" d="M6305.792-4887.324l-16.269,42.543h8.632l2.39-6.817h15.586l2.389,6.817h8.632l-16.268-42.543Zm-2.54,28,5.086-14.514,5.085,14.514Z" transform="translate(-6289.523 4887.764)" fill="#f0e55d"/>
        <path id="路径_590" data-name="路径 590" d="M6360.028-4885.54a21.043,21.043,0,0,0-9.085-1.785h-14.074v42.543h14.045a20.388,20.388,0,0,0,9.247-1.9,12.885,12.885,0,0,0,5.661-5.326,16.341,16.341,0,0,0,1.887-8.017v-12.056a16.359,16.359,0,0,0-1.959-8.251A12.662,12.662,0,0,0,6360.028-4885.54Zm-.629,25.749a6.786,6.786,0,0,1-2.164,5.383,8.967,8.967,0,0,1-6.115,1.9h-6.233V-4879.6h6.233a8.975,8.975,0,0,1,6.115,1.9,6.79,6.79,0,0,1,2.164,5.384Z" transform="translate(-6293.973 4887.764)" fill="#f0e55d"/>
        <path id="路径_591" data-name="路径 591" d="M6406.477-4864.182a10.5,10.5,0,0,0-4.52-3.628,35.524,35.524,0,0,0-6.746-1.917c-.116-.02-.229-.044-.335-.074s-.22-.054-.337-.073a1.88,1.88,0,0,0-.234-.043,2.2,2.2,0,0,1-.234-.044,41.326,41.326,0,0,1-4.359-1.053,6.272,6.272,0,0,1-2.6-1.565,3.965,3.965,0,0,1-1.053-2.911v-.03a3.787,3.787,0,0,1,2.019-3.408,11.138,11.138,0,0,1,5.706-1.214,15.571,15.571,0,0,1,5.135.936,21.51,21.51,0,0,1,5.135,2.633l3.394-6.788a25.95,25.95,0,0,0-4.329-2.4,25.5,25.5,0,0,0-4.667-1.523,21.644,21.644,0,0,0-4.667-.526,21.089,21.089,0,0,0-8.485,1.537,11.628,11.628,0,0,0-5.354,4.462,12.955,12.955,0,0,0-1.843,7.052v.029q0,4.652,1.96,7.184a10.411,10.411,0,0,0,4.769,3.54,39.445,39.445,0,0,0,7.081,1.683l.645.088a.505.505,0,0,0,.159.03.492.492,0,0,1,.161.028,30.9,30.9,0,0,1,3.981.848,5.744,5.744,0,0,1,2.516,1.463,3.7,3.7,0,0,1,.966,2.691v.03a4.189,4.189,0,0,1-2.166,3.76,11.655,11.655,0,0,1-6.086,1.33,20.355,20.355,0,0,1-6.612-1.1,17.951,17.951,0,0,1-5.677-3.117l-3.716,6.613a20.92,20.92,0,0,0,4.578,2.853,25.526,25.526,0,0,0,5.473,1.8,28.736,28.736,0,0,0,5.954.615,22.687,22.687,0,0,0,8.764-1.522,11.889,11.889,0,0,0,5.545-4.419,12.4,12.4,0,0,0,1.9-6.963v-.059A11.421,11.421,0,0,0,6406.477-4864.182Z" transform="translate(-6297.659 4887.81)" fill="#f0e55d"/>
      </g>
    </g>
    <path id="联合_3" data-name="联合 3" d="M37.378,102.812l-.16.16L0,65.76l9.946-9.945L30.4,76.267V0H44.466V76.156L64.81,55.815l9.946,9.945L37.538,102.973Z" transform="translate(599 1921.302)" fill="#fefbd8"/>
  </g>
</svg>
