<svg xmlns="http://www.w3.org/2000/svg" width="565.55" height="640.407" viewBox="0 0 565.55 640.407">
  <g id="组_201" data-name="组 201" transform="translate(-1064 -1468)">
    <path id="路径_597" data-name="路径 597" d="M7.752-19.312H.136V-23.8h20.74v4.488H13.26V0H7.752ZM23.834-23.8h5.508V0H23.834Zm11.152,0H45.8a15.2,15.2,0,0,1,6.851,1.479,11.074,11.074,0,0,1,4.624,4.165A11.715,11.715,0,0,1,58.922-11.9a11.715,11.715,0,0,1-1.649,6.256,11.074,11.074,0,0,1-4.624,4.165A15.2,15.2,0,0,1,45.8,0H34.986ZM45.526-4.522a8,8,0,0,0,5.695-1.989A7.025,7.025,0,0,0,53.346-11.9a7.025,7.025,0,0,0-2.125-5.389,8,8,0,0,0-5.695-1.989H40.494V-4.522Zm27.948-3.91V0H67.966V-8.5L58.752-23.8H64.6l6.358,10.574L77.316-23.8h5.406ZM105.23.408q-5.1,0-7.939-2.822t-2.839-8.058V-23.8H99.96v13.124q0,6.392,5.3,6.392a4.972,4.972,0,0,0,3.944-1.547,7.211,7.211,0,0,0,1.36-4.845V-23.8h5.44v13.328q0,5.236-2.839,8.058T105.23.408ZM131.75-23.8a13.222,13.222,0,0,1,5.491,1.054,8.158,8.158,0,0,1,3.587,2.992,8.243,8.243,0,0,1,1.258,4.59,8.264,8.264,0,0,1-1.258,4.573A8.012,8.012,0,0,1,137.241-7.6a13.41,13.41,0,0,1-5.491,1.037h-4.794V0h-5.508V-23.8Zm-.306,12.75a5.784,5.784,0,0,0,3.774-1.071,3.73,3.73,0,0,0,1.292-3.043,3.77,3.77,0,0,0-1.292-3.077,5.785,5.785,0,0,0-3.774-1.071h-4.488v8.262Zm35.938,2.618V0h-5.508V-8.5L152.66-23.8h5.848l6.358,10.574L171.224-23.8h5.406ZM189.448.408a13.892,13.892,0,0,1-6.681-1.6,11.86,11.86,0,0,1-4.658-4.4,12.02,12.02,0,0,1-1.683-6.307,12.02,12.02,0,0,1,1.683-6.307,11.86,11.86,0,0,1,4.658-4.4,13.892,13.892,0,0,1,6.681-1.6,13.793,13.793,0,0,1,6.664,1.6,12.014,12.014,0,0,1,4.658,4.4,11.928,11.928,0,0,1,1.7,6.307,11.928,11.928,0,0,1-1.7,6.307,12.014,12.014,0,0,1-4.658,4.4A13.793,13.793,0,0,1,189.448.408Zm0-4.692a7.552,7.552,0,0,0,3.808-.969,6.954,6.954,0,0,0,2.669-2.7,7.946,7.946,0,0,0,.969-3.944,7.946,7.946,0,0,0-.969-3.944,6.954,6.954,0,0,0-2.669-2.7,7.552,7.552,0,0,0-3.808-.969,7.552,7.552,0,0,0-3.808.969,6.954,6.954,0,0,0-2.669,2.7A7.946,7.946,0,0,0,182-11.9a7.946,7.946,0,0,0,.969,3.944,6.954,6.954,0,0,0,2.669,2.7A7.552,7.552,0,0,0,189.448-4.284ZM217.192.408q-5.1,0-7.939-2.822t-2.839-8.058V-23.8h5.508v13.124q0,6.392,5.3,6.392a4.972,4.972,0,0,0,3.944-1.547,7.211,7.211,0,0,0,1.36-4.845V-23.8h5.44v13.328q0,5.236-2.839,8.058T217.192.408ZM248.574,0l-4.59-6.63h-5.066V0H233.41V-23.8h10.3a13.222,13.222,0,0,1,5.491,1.054,8.158,8.158,0,0,1,3.587,2.992,8.243,8.243,0,0,1,1.258,4.59,8.078,8.078,0,0,1-1.275,4.573,8.081,8.081,0,0,1-3.621,2.941L254.49,0Zm-.1-15.164a3.77,3.77,0,0,0-1.292-3.077,5.785,5.785,0,0,0-3.774-1.071h-4.488v8.3h4.488A5.721,5.721,0,0,0,247.18-12.1,3.78,3.78,0,0,0,248.472-15.164ZM283.7-5.1h-11.05L270.538,0h-5.644L275.5-23.8h5.44L291.584,0H285.8Zm-1.734-4.182-3.774-9.112-3.774,9.112ZM304.368-23.8a13.221,13.221,0,0,1,5.491,1.054,8.158,8.158,0,0,1,3.587,2.992,8.243,8.243,0,0,1,1.258,4.59,8.264,8.264,0,0,1-1.258,4.573A8.012,8.012,0,0,1,309.859-7.6a13.41,13.41,0,0,1-5.491,1.037h-4.794V0h-5.508V-23.8Zm-.306,12.75a5.785,5.785,0,0,0,3.774-1.071,3.73,3.73,0,0,0,1.292-3.043,3.77,3.77,0,0,0-1.292-3.077,5.785,5.785,0,0,0-3.774-1.071h-4.488v8.262ZM328.916-23.8a13.221,13.221,0,0,1,5.491,1.054,8.158,8.158,0,0,1,3.587,2.992,8.243,8.243,0,0,1,1.258,4.59,8.264,8.264,0,0,1-1.258,4.573A8.012,8.012,0,0,1,334.407-7.6a13.41,13.41,0,0,1-5.491,1.037h-4.794V0h-5.508V-23.8Zm-.306,12.75a5.785,5.785,0,0,0,3.774-1.071,3.73,3.73,0,0,0,1.292-3.043,3.77,3.77,0,0,0-1.292-3.077,5.785,5.785,0,0,0-3.774-1.071h-4.488v8.262ZM351.322.408a19.473,19.473,0,0,1-5.457-.765,12.8,12.8,0,0,1-4.233-1.989l1.87-4.148a12.689,12.689,0,0,0,3.638,1.8,13.665,13.665,0,0,0,4.216.68,6.736,6.736,0,0,0,3.468-.7,2.106,2.106,0,0,0,1.122-1.853,1.771,1.771,0,0,0-.663-1.411,5.026,5.026,0,0,0-1.7-.9q-1.037-.34-2.805-.748a38.774,38.774,0,0,1-4.454-1.292,7.236,7.236,0,0,1-2.975-2.074,5.6,5.6,0,0,1-1.241-3.808,6.624,6.624,0,0,1,1.122-3.757,7.548,7.548,0,0,1,3.383-2.669,13.8,13.8,0,0,1,5.525-.986,18.294,18.294,0,0,1,4.454.544A13.157,13.157,0,0,1,360.4-22.1l-1.7,4.182a13.271,13.271,0,0,0-6.6-1.87,6.185,6.185,0,0,0-3.417.748,2.283,2.283,0,0,0-1.1,1.972,1.928,1.928,0,0,0,1.275,1.819,20.019,20.019,0,0,0,3.893,1.173,38.774,38.774,0,0,1,4.454,1.292,7.376,7.376,0,0,1,2.975,2.04A5.47,5.47,0,0,1,361.42-6.97a6.5,6.5,0,0,1-1.139,3.723,7.653,7.653,0,0,1-3.417,2.669A13.93,13.93,0,0,1,351.322.408Z" transform="translate(1166 2108)" fill="#fff"/>
    <g id="组_189" data-name="组 189" transform="translate(-6600.086 6922.73)">
      <rect id="矩形_208" data-name="矩形 208" width="565.55" height="565.55" transform="translate(7664.086 -5454.73)" fill="#fc7d9b"/>
      <path id="矩形_209" data-name="矩形 209" d="M43.9,0H365.894a43.9,43.9,0,0,1,43.9,43.9V460.324a0,0,0,0,1,0,0H0a0,0,0,0,1,0,0V43.9A43.9,43.9,0,0,1,43.9,0Z" transform="translate(7741.169 -5349.504)" fill="#f0e55d"/>
      <path id="矩形_210" data-name="矩形 210" d="M29.458,0h288.3a29.458,29.458,0,0,1,29.458,29.458v403.5a0,0,0,0,1,0,0H0a0,0,0,0,1,0,0V29.458A29.458,29.458,0,0,1,29.458,0Z" transform="translate(7770.619 -5322.133)" fill="#5cbafa"/>
      <rect id="矩形_211" data-name="矩形 211" width="57.932" height="57.932" rx="8.437" transform="translate(7801.505 -5269.606)" fill="#fc7d9b"/>
      <rect id="矩形_212" data-name="矩形 212" width="57.932" height="57.932" rx="8.437" transform="translate(7874.507 -5269.606)" fill="#0e56de"/>
      <rect id="矩形_213" data-name="矩形 213" width="57.932" height="57.932" rx="8.437" transform="translate(7947.51 -5269.606)" fill="#d74465"/>
      <rect id="矩形_214" data-name="矩形 214" width="57.932" height="57.932" rx="8.437" transform="translate(8020.513 -5269.606)" fill="#f0e55d"/>
      <rect id="矩形_215" data-name="矩形 215" width="57.932" height="57.932" rx="8.437" transform="translate(7801.505 -5184.643)" fill="#fdee55"/>
      <rect id="矩形_216" data-name="矩形 216" width="57.932" height="57.932" rx="8.437" transform="translate(7874.507 -5184.643)" fill="#fc7d9b"/>
      <rect id="矩形_217" data-name="矩形 217" width="57.932" height="57.932" rx="8.437" transform="translate(7947.51 -5184.643)" fill="#fefbd8"/>
      <rect id="矩形_218" data-name="矩形 218" width="57.932" height="57.932" rx="8.437" transform="translate(8020.513 -5184.643)" fill="#fc7d9b"/>
      <rect id="矩形_219" data-name="矩形 219" width="57.932" height="57.932" rx="8.437" transform="translate(7801.505 -5099.68)" fill="#fc7d9b"/>
      <rect id="矩形_220" data-name="矩形 220" width="57.932" height="57.932" rx="8.437" transform="translate(7874.507 -5099.68)" fill="#0c54da"/>
      <rect id="矩形_221" data-name="矩形 221" width="285.443" height="169.492" transform="translate(7801.505 -5184.426)" fill="#fefbd8"/>
      <rect id="矩形_222" data-name="矩形 222" width="111.271" height="22.797" transform="translate(7836.239 -5149.508)" fill="#0e56de"/>
      <rect id="矩形_223" data-name="矩形 223" width="91.104" height="22.797" transform="translate(7964.393 -5149.508)" fill="#0e56de"/>
      <rect id="矩形_224" data-name="矩形 224" width="154.02" height="22.797" transform="translate(7836.239 -5111.078)" fill="#0e56de"/>
      <rect id="矩形_225" data-name="矩形 225" width="70.284" height="22.797" transform="translate(7836.239 -5061.622)" fill="#fc7d9b"/>
      <rect id="矩形_226" data-name="矩形 226" width="70.284" height="22.797" transform="translate(7986.911 -5061.622)" fill="#5cbafa"/>
    </g>
  </g>
</svg>
