<svg xmlns="http://www.w3.org/2000/svg" width="1920" height="1080" viewBox="0 0 1920 1080">
  <g id="组_149" data-name="组 149" transform="translate(-916.396 3095.891)">
    <g id="组_145" data-name="组 145">
      <rect id="矩形_145" data-name="矩形 145" width="1920" height="1080" transform="translate(916.396 -3095.891)" fill="#3b8cf0"/>
      <path id="路径_536" data-name="路径 536" d="M916.4-3092.4v1076.51h1104.7C1962.452-2592.282,1496.983-3048.355,916.4-3092.4Z" fill="#56b4f6"/>
    </g>
    <g id="组_146" data-name="组 146">
      <path id="路径_537" data-name="路径 537" d="M1454.459-2231.2H2690.378l-212.025-37.64H1633.269Z" fill="#2166ea"/>
      <path id="路径_538" data-name="路径 538" d="M1475.661-2334.559l-21.2,103.361h17.227l68.908-100.382Z" fill="#013dba"/>
      <path id="路径_539" data-name="路径 539" d="M2393.52-2334.559l21.2,103.361h-17.227l-68.908-100.382Z" fill="#013dba"/>
      <path id="路径_540" data-name="路径 540" d="M1654.471-2367.587l-21.2,103.361H1650.5l68.908-100.382Z" fill="#013dba"/>
      <path id="矩形_146" data-name="矩形 146" d="M57.644,0H157.929a0,0,0,0,1,0,0V246.1a0,0,0,0,1,0,0H53.511A53.511,53.511,0,0,1,0,192.586V57.644A57.644,57.644,0,0,1,57.644,0Z" transform="translate(1382.665 -2556.584)" fill="#fd7d9c"/>
      <rect id="矩形_147" data-name="矩形 147" width="1068.074" height="245.403" rx="47.041" transform="translate(1435.962 -2555.891)" fill="#d74465"/>
      <path id="矩形_148" data-name="矩形 148" d="M65.926,0H821.418a71.533,71.533,0,0,1,71.533,71.533V234.979a0,0,0,0,1,0,0H0a0,0,0,0,1,0,0V65.926A65.926,65.926,0,0,1,65.926,0Z" transform="translate(1558.078 -2726.626)" fill="#fd7d9c"/>
      <path id="矩形_149" data-name="矩形 149" d="M65.926,0h944.581a0,0,0,0,1,0,0V84.166a0,0,0,0,1,0,0H0a0,0,0,0,1,0,0V65.926A65.926,65.926,0,0,1,65.926,0Z" transform="translate(1440.523 -2487.601)" fill="#fd7d9c"/>
      <path id="矩形_150" data-name="矩形 150" d="M57.644,0h53.669a0,0,0,0,1,0,0V199.056a0,0,0,0,1,0,0H0a0,0,0,0,1,0,0V57.644A57.644,57.644,0,0,1,57.644,0Z" transform="translate(2392.723 -2556.584)" fill="#d74465"/>
    </g>
    <path id="路径_541" data-name="路径 541" d="M1758.525-2305.726l61.338,17.207-23.6,69.114s-6.279,18.393-15.184,13.486-11.393-21.315-11.393-21.315-14.643-35.493-16.452-42.956S1758.525-2305.726,1758.525-2305.726Z" fill="#f0e55d"/>
    <path id="路径_542" data-name="路径 542" d="M2004.894-2778.417s170.333,1.08,189.553,50.553v8.814H2004.894Z" fill="#fdfbd6"/>
    <path id="路径_543" data-name="路径 543" d="M1781.969-2495.3l-34.454,195.239,71.559,13.252,85.693-193.472s46.822-77.918,0-117.585h-75.092Z" fill="#02399b"/>
    <path id="路径_544" data-name="路径 544" d="M1906.248-2599.869l-249.234.592v112.859l249.234-7.288Z" fill="#0b3582"/>
    <path id="路径_545" data-name="路径 545" d="M1675.649-2698.862l-30.037,53.889,4.417,21.2,69.791,20.319,19.595-16.785.525-26.809-8.635-31.173Z" fill="#fdfbd5"/>
    <path id="路径_546" data-name="路径 546" d="M1807.489-2856.251c0,5.482.108,9.925-3.055,9.925s-8.4-4.443-8.4-9.925.764-9.925,5.727-9.925C1804.925-2866.176,1807.489-2861.732,1807.489-2856.251Z" fill="#f5c59f"/>
    <path id="路径_547" data-name="路径 547" d="M1872.286-2855.18c0,5.112-.1,9.256,2.848,9.256s7.834-4.144,7.834-9.256-.712-9.256-5.341-9.256C1874.677-2864.436,1872.286-2860.292,1872.286-2855.18Z" fill="#f5c59f"/>
    <path id="路径_548" data-name="路径 548" d="M1809.239-2835.36l-3.336,69.687,61.721,2.78-3.336-78.958Z" fill="#fdfbd7"/>
    <path id="路径_549" data-name="路径 549" d="M1818.641-2814.028l48.326,35.612-1.772-41.876Z" fill="#f5c59f"/>
    <path id="路径_550" data-name="路径 550" d="M1874.955-2824.961c0,8.343-9.42,17.763-17.763,17.763l-12.681-.139c-26.566,0-36.484-23.555-37.515-31.745l-1.093-45.843c0-13.358,10.514-23.489,23.873-23.489l47.851,22.744Z" fill="#fdfbd7"/>
    <path id="路径_551" data-name="路径 551" d="M1816.267-2889.639c-1.726,2.508-6.413,10.818-6.413,27.148,0,20.018,7.785,29.1,20.945,29.1s15.94-3.522,19.832-3.522,12.233,5.005,15.755,5.005,9.073-4.513,9.073-4.513l-.594,13.408s-3.12,15.509-18.488,15.815c-17.234.343-4.078,0-17.238,0-16.45,0-34.474-10.253-34.474-45.469,0-12.765-.056-21.061-.006-26.7h0c-3.325-29.289,24.283-29.052,24.283-29.052s10.051-.717,17.852-.717,16.808.717,16.808.717,21.13,3.893,21.13,19.277-13.345,18.905-13.345,18.905h-12.6c-12.6,0-35.272-17.763-37.255-19.276C1818.1-2892.122,1816.267-2889.639,1816.267-2889.639Z" fill="#02399b"/>
    <path id="路径_552" data-name="路径 552" d="M1849.665-2866.012v25.022h-5.742" fill="#f5c59f"/>
    <rect id="矩形_151" data-name="矩形 151" width="0.741" height="25.022" transform="translate(1849.379 -2866.012)" fill="#02399b"/>
    <path id="路径_553" data-name="路径 553" d="M1817.843-2866.247s14.21-4.943,19.276-2.966,1.73,4.2,1.73,4.2-5.808,4.449-17.3,1.854C1821.55-2863.158,1815.76-2865.573,1817.843-2866.247Z" fill="#02399b"/>
    <path id="路径_554" data-name="路径 554" d="M1877.089-2867.032s-10.78-4.079-15.664-1.686-1.373,4.331-1.373,4.331,9.875,2.745,14.844,2.051C1878.617-2862.856,1878-2866.818,1877.089-2867.032Z" fill="#02399b"/>
    <ellipse id="椭圆_175" data-name="椭圆 175" cx="2.595" cy="3.583" rx="2.595" ry="3.583" transform="translate(1829.925 -2859.834)" fill="#02399b"/>
    <ellipse id="椭圆_176" data-name="椭圆 176" cx="2.595" cy="3.583" rx="2.595" ry="3.583" transform="translate(1863.795 -2858.763)" fill="#02399b"/>
    <g id="组_147" data-name="组 147">
      <path id="路径_555" data-name="路径 555" d="M1848.2-2825.54c-4.664,0-7.022-1.464-8.2-2.785a1.505,1.505,0,0,1,.8-2.463l1.346-.309a.377.377,0,0,0-.017-.066c.009.026.943,2.663,7.53,2.215a1.678,1.678,0,0,1,1.792,1.716,1.73,1.73,0,0,1-1.645,1.638C1849.241-2825.557,1848.706-2825.54,1848.2-2825.54Z" fill="#fff"/>
    </g>
    <path id="路径_556" data-name="路径 556" d="M1737.464-2778.5h267.43v74.252l-56.3,2.1-43.986,103.986-152.188-5.514-21.113-74.539-56.3-18.876S1706.674-2778.5,1737.464-2778.5Z" fill="#f0e55d"/>
    <path id="路径_557" data-name="路径 557" d="M1805.96-2801.486s23.1,19.464,61.6,7.272l2.567,34.223-32.084-14.545-35.078,14.545Z" fill="#fdc254"/>
    <path id="路径_558" data-name="路径 558" d="M1686.714-2662.947" fill="#f8f5d5"/>
    <path id="路径_559" data-name="路径 559" d="M1982.518-2778.417l22.376-.087v74.252l-22.376.835Z" fill="#fdc254"/>
    <path id="路径_560" data-name="路径 560" d="M1731.306-2678.218l-4.69-19.625-45.24-14.038L1675-2697.094Z" fill="#fdc254"/>
    <circle id="椭圆_177" data-name="椭圆 177" cx="56.429" cy="56.429" r="56.429" transform="translate(1600.584 -2599.573)" fill="#0543c0"/>
    <path id="路径_561" data-name="路径 561" d="M1657.014-2599.573l250.123,38.429-5.3,68.025-244.822,6.4Z" fill="#0543c0"/>
    <path id="路径_562" data-name="路径 562" d="M1906.427-2556.493l-3.534,63.607h73.031s19.435,0,17.668-10.012-16.491-17.669-16.491-17.669-28.858-25.325-35.337-29.448S1906.427-2556.493,1906.427-2556.493Z" fill="#f0e55d"/>
    <g id="组_148" data-name="组 148">
      <path id="路径_563" data-name="路径 563" d="M1684-2664.383l107.337,25.178s20.761,4.859,48.589-1.767,26.835-5.521,27.5-4.417-21.092,14.687-21.092,14.687,12.92,4.307,25.4,3.313,19.656-1.911,19.767.149-.773,4.71-5.08,7.36c0,0,2.54.884,1.877,3.313s-4.748,5.411-4.748,5.411a2.563,2.563,0,0,1,2.1,2.54c-.11,2.1-7.178,6.847-7.178,6.847s4.012,1.435,1.509,3.5-8.981,5.006-8.981,5.006H1672.516Z" fill="#fdfbd6"/>
      <circle id="椭圆_178" data-name="椭圆 178" cx="36.11" cy="36.11" r="36.11" transform="translate(1641.637 -2664.935)" fill="#fdfbd6"/>
    </g>
  </g>
</svg>
