<svg xmlns="http://www.w3.org/2000/svg" width="1920" height="1080" viewBox="0 0 1920 1080">
  <g id="组_198" data-name="组 198" transform="translate(0 0)">
    <g id="组_144" data-name="组 144" transform="translate(-2995.165 3095.891)">
      <g id="组_135" data-name="组 135">
        <rect id="矩形_133" data-name="矩形 133" width="1920" height="1080" transform="translate(2995.165 -3095.891)" fill="#3b8cf0"/>
        <path id="路径_496" data-name="路径 496" d="M2995.165-3092.4v1076.51h1104.7C4041.222-2592.282,3575.752-3048.355,2995.165-3092.4Z" fill="#56b4f6"/>
      </g>
      <g id="组_136" data-name="组 136">
        <path id="路径_497" data-name="路径 497" d="M3533.228-2231.2H4769.147l-212.024-37.64H3712.038Z" fill="#2166ea"/>
        <path id="路径_498" data-name="路径 498" d="M3554.43-2334.559l-21.2,103.361h17.227l68.908-100.382Z" fill="#013dba"/>
        <path id="路径_499" data-name="路径 499" d="M4472.289-2334.559l21.2,103.361h-17.227l-68.908-100.382Z" fill="#013dba"/>
        <path id="路径_500" data-name="路径 500" d="M3733.241-2367.587l-21.2,103.361h17.227l68.908-100.382Z" fill="#013dba"/>
        <path id="矩形_134" data-name="矩形 134" d="M57.644,0H157.929a0,0,0,0,1,0,0V246.1a0,0,0,0,1,0,0H53.511A53.511,53.511,0,0,1,0,192.586V57.644A57.644,57.644,0,0,1,57.644,0Z" transform="translate(3461.434 -2556.584)" fill="#fd7d9c"/>
        <rect id="矩形_135" data-name="矩形 135" width="1068.074" height="245.403" rx="47.041" transform="translate(3514.731 -2555.891)" fill="#d74465"/>
        <path id="矩形_136" data-name="矩形 136" d="M65.926,0H821.418a71.533,71.533,0,0,1,71.533,71.533V234.979a0,0,0,0,1,0,0H0a0,0,0,0,1,0,0V65.926A65.926,65.926,0,0,1,65.926,0Z" transform="translate(3636.848 -2726.626)" fill="#fd7d9c"/>
        <path id="矩形_137" data-name="矩形 137" d="M65.926,0h944.581a0,0,0,0,1,0,0V84.166a0,0,0,0,1,0,0H0a0,0,0,0,1,0,0V65.926A65.926,65.926,0,0,1,65.926,0Z" transform="translate(3519.292 -2487.601)" fill="#fd7d9c"/>
        <path id="矩形_138" data-name="矩形 138" d="M57.644,0h53.669a0,0,0,0,1,0,0V199.056a0,0,0,0,1,0,0H0a0,0,0,0,1,0,0V57.644A57.644,57.644,0,0,1,57.644,0Z" transform="translate(4471.492 -2556.584)" fill="#d74465"/>
      </g>
      <path id="路径_501" data-name="路径 501" d="M3837.295-2305.726l61.338,17.207-23.6,69.114s-6.279,18.393-15.183,13.486-11.394-21.315-11.394-21.315-14.643-35.493-16.451-42.956S3837.295-2305.726,3837.295-2305.726Z" fill="#f0e55d"/>
      <path id="路径_502" data-name="路径 502" d="M4083.663-2778.417s170.333,1.08,189.553,50.553v8.814H4083.663Z" fill="#fdfbd6"/>
      <path id="路径_503" data-name="路径 503" d="M3860.739-2495.3l-34.454,195.239,71.558,13.252,85.693-193.472s46.822-77.918,0-117.585h-75.092Z" fill="#02399b"/>
      <path id="路径_504" data-name="路径 504" d="M3985.017-2599.869l-249.234.592v112.859l249.234-7.288Z" fill="#0b3582"/>
      <path id="路径_505" data-name="路径 505" d="M3754.419-2698.862l-30.037,53.889,4.417,21.2,69.791,20.319,19.595-16.785.525-26.809-8.635-31.173Z" fill="#fdfbd5"/>
      <path id="路径_506" data-name="路径 506" d="M3886.258-2856.251c0,5.482.109,9.925-3.054,9.925s-8.4-4.443-8.4-9.925.764-9.925,5.728-9.925C3883.694-2866.176,3886.258-2861.732,3886.258-2856.251Z" fill="#f5c59f"/>
      <path id="路径_507" data-name="路径 507" d="M3951.055-2855.18c0,5.112-.1,9.256,2.849,9.256s7.834-4.144,7.834-9.256-.713-9.256-5.342-9.256C3953.446-2864.436,3951.055-2860.292,3951.055-2855.18Z" fill="#f5c59f"/>
      <path id="路径_508" data-name="路径 508" d="M3888.008-2835.36l-3.336,69.687,61.721,2.78-3.336-78.958Z" fill="#fdfbd7"/>
      <path id="路径_509" data-name="路径 509" d="M3897.411-2814.028l48.326,35.612-1.772-41.876Z" fill="#f5c59f"/>
      <path id="路径_510" data-name="路径 510" d="M3953.724-2824.961c0,8.343-9.42,17.763-17.762,17.763l-12.681-.139c-26.567,0-36.485-23.555-37.515-31.745l-1.094-45.843c0-13.358,10.515-23.489,23.873-23.489l47.851,22.744Z" fill="#fdfbd7"/>
      <path id="路径_511" data-name="路径 511" d="M3895.037-2889.639c-1.727,2.508-6.413,10.818-6.413,27.148,0,20.018,7.784,29.1,20.944,29.1s15.94-3.522,19.832-3.522,12.233,5.005,15.755,5.005,9.073-4.513,9.073-4.513l-.594,13.408s-3.12,15.509-18.488,15.815c-17.234.343-4.078,0-17.237,0-16.451,0-34.475-10.253-34.475-45.469,0-12.765-.055-21.061-.005-26.7h0c-3.326-29.289,24.282-29.052,24.282-29.052s10.051-.717,17.852-.717,16.808.717,16.808.717,21.13,3.893,21.13,19.277-13.345,18.905-13.345,18.905h-12.6c-12.6,0-35.272-17.763-37.255-19.276C3896.871-2892.122,3895.037-2889.639,3895.037-2889.639Z" fill="#02399b"/>
      <path id="路径_512" data-name="路径 512" d="M3928.434-2866.012v25.022h-5.742" fill="#f5c59f"/>
      <rect id="矩形_139" data-name="矩形 139" width="0.741" height="25.022" transform="translate(3928.149 -2866.012)" fill="#02399b"/>
      <path id="路径_513" data-name="路径 513" d="M3896.612-2866.247s14.21-4.943,19.276-2.966,1.73,4.2,1.73,4.2-5.807,4.449-17.3,1.854C3900.319-2863.158,3894.529-2865.573,3896.612-2866.247Z" fill="#02399b"/>
      <path id="路径_514" data-name="路径 514" d="M3955.858-2867.032s-10.78-4.079-15.664-1.686-1.373,4.331-1.373,4.331,9.875,2.745,14.844,2.051C3957.386-2862.856,3956.771-2866.818,3955.858-2867.032Z" fill="#02399b"/>
      <ellipse id="椭圆_162" data-name="椭圆 162" cx="2.595" cy="3.583" rx="2.595" ry="3.583" transform="translate(3908.694 -2859.834)" fill="#02399b"/>
      <ellipse id="椭圆_163" data-name="椭圆 163" cx="2.595" cy="3.583" rx="2.595" ry="3.583" transform="translate(3942.564 -2858.763)" fill="#02399b"/>
      <g id="组_137" data-name="组 137">
        <path id="路径_515" data-name="路径 515" d="M3926.969-2825.54c-4.665,0-7.023-1.464-8.2-2.785a1.506,1.506,0,0,1,.8-2.463l1.346-.309a.4.4,0,0,0-.017-.066c.009.026.943,2.663,7.53,2.215a1.678,1.678,0,0,1,1.792,1.716,1.729,1.729,0,0,1-1.645,1.638C3928.01-2825.557,3927.475-2825.54,3926.969-2825.54Z" fill="#fff"/>
      </g>
      <path id="路径_516" data-name="路径 516" d="M3816.233-2778.5h267.43v74.252l-56.3,2.1-43.985,103.986-152.189-5.514-21.113-74.539-56.3-18.876S3785.443-2778.5,3816.233-2778.5Z" fill="#f0e55d"/>
      <path id="路径_517" data-name="路径 517" d="M3884.729-2801.486s23.1,19.464,61.6,7.272l2.567,34.223-32.083-14.545-35.078,14.545Z" fill="#fdc254"/>
      <path id="路径_518" data-name="路径 518" d="M3765.484-2662.947" fill="#f8f5d5"/>
      <path id="路径_519" data-name="路径 519" d="M4061.287-2778.417l22.376-.087v74.252l-22.376.835Z" fill="#fdc254"/>
      <path id="路径_520" data-name="路径 520" d="M3810.075-2678.218l-4.69-19.625-45.24-14.038-6.372,14.787Z" fill="#fdc254"/>
      <circle id="椭圆_164" data-name="椭圆 164" cx="56.429" cy="56.429" r="56.429" transform="translate(3679.354 -2599.573)" fill="#0543c0"/>
      <path id="路径_521" data-name="路径 521" d="M3735.783-2599.573l250.123,38.429-5.3,68.025-244.822,6.4Z" fill="#0543c0"/>
      <path id="路径_522" data-name="路径 522" d="M3985.2-2556.493l-3.534,63.607h73.031s19.435,0,17.669-10.012-16.491-17.669-16.491-17.669-28.859-25.325-35.338-29.448S3985.2-2556.493,3985.2-2556.493Z" fill="#f0e55d"/>
      <g id="组_138" data-name="组 138">
        <ellipse id="椭圆_165" data-name="椭圆 165" cx="304.938" cy="24.086" rx="304.938" ry="24.086" transform="translate(3726.875 -2168.058)" fill="#2166ea"/>
        <path id="路径_523" data-name="路径 523" d="M3793.026-2293.506l-77.165,151.068H3730.2l113.2-135.043Z" fill="#013dba"/>
        <path id="路径_524" data-name="路径 524" d="M4118.652-2293.506l77.165,151.068h-14.333l-113.2-135.043Z" fill="#013dba"/>
        <ellipse id="椭圆_166" data-name="椭圆 166" cx="262.759" cy="41.649" rx="262.759" ry="41.649" transform="translate(3702.652 -2353.375)" fill="#cc4465"/>
        <ellipse id="椭圆_167" data-name="椭圆 167" cx="262.759" cy="41.649" rx="262.759" ry="41.649" transform="translate(3702.652 -2370.424)" fill="#fdfbd7"/>
      </g>
      <g id="组_140" data-name="组 140">
        <ellipse id="椭圆_168" data-name="椭圆 168" cx="47.84" cy="3.222" rx="47.84" ry="3.222" transform="translate(4092.118 -2331.238)" fill="#f3ceb8"/>
        <g id="组_139" data-name="组 139">
          <rect id="矩形_140" data-name="矩形 140" width="2.429" height="55.215" transform="translate(4090.275 -2476.099) rotate(-14.751)" fill="#1e63e6"/>
          <circle id="椭圆_169" data-name="椭圆 169" cx="11.706" cy="11.706" r="11.706" transform="translate(4077.006 -2497.67)" fill="#56b4f6"/>
          <path id="路径_525" data-name="路径 525" d="M4071.628-2459.77l19.832,9.4s-8.547,4.839-13.741.725S4074.144-2454.266,4071.628-2459.77Z" fill="#1e63e6"/>
          <rect id="矩形_141" data-name="矩形 141" width="2.429" height="92.141" transform="translate(4122.399 -2416.621) rotate(-173.477)" fill="#1e63e6"/>
          <circle id="椭圆_170" data-name="椭圆 170" cx="11.706" cy="11.706" r="11.706" transform="translate(4121.296 -2529.859)" fill="#56b4f6"/>
          <path id="路径_526" data-name="路径 526" d="M4150.954-2498.244l-18.282,12.136s9.151,3.566,13.7-1.249S4149.253-2492.437,4150.954-2498.244Z" fill="#1e63e6"/>
          <rect id="矩形_142" data-name="矩形 142" width="2.429" height="55.215" transform="translate(4113.582 -2411.279) rotate(-179.611)" fill="#1e63e6"/>
          <circle id="椭圆_171" data-name="椭圆 171" cx="10.616" cy="10.616" r="10.616" transform="translate(4103.497 -2485.965)" fill="#56b4f6"/>
          <path id="路径_527" data-name="路径 527" d="M4133-2458.561l-16.881,14.021s9.479,2.568,13.491-2.706S4131.93-2452.6,4133-2458.561Z" fill="#1e63e6"/>
        </g>
        <path id="路径_528" data-name="路径 528" d="M4077.776-2434.276l10.789,28.27s-56.539,79.509,20.319,79.509,23.959-79.772,23.959-79.772l10.5-28.007Z" fill="#56b4f6"/>
        <ellipse id="椭圆_172" data-name="椭圆 172" cx="32.781" cy="4.196" rx="32.781" ry="4.196" transform="translate(4077.776 -2438.389)" fill="#1e63e6"/>
      </g>
      <g id="组_141" data-name="组 141">
        <rect id="矩形_143" data-name="矩形 143" width="69.61" height="34.805" rx="5.346" transform="translate(3926.06 -2612.6) rotate(-78.95)" fill="#56b4f6"/>
        <circle id="椭圆_173" data-name="椭圆 173" cx="2.218" cy="2.218" r="2.218" transform="translate(3941.345 -2676.849)" fill="#043699"/>
        <path id="路径_529" data-name="路径 529" d="M3951.583-2647.307a5.94,5.94,0,0,0-2.636-1,3.068,3.068,0,0,0-2.749,1.492c-.852,1.148-1.974,6.014,1.309,8.513,0,0,0,.143.606.118s.933-.389,1.869-.207,1.471.8,2.187.942,2.088-.45,3.534-2.881c0,0-3.2-3.054.663-5.3a4.118,4.118,0,0,0-1.767-1.631c-1.041-.375-2.4.117-2.862.027Z" fill="#043699"/>
        <path id="路径_530" data-name="路径 530" d="M3952-2647.914a3.187,3.187,0,0,1,3.167-2.61S3954.6-2647.5,3952-2647.914Z" fill="#043699"/>
      </g>
      <g id="组_142" data-name="组 142">
        <path id="路径_531" data-name="路径 531" d="M3762.77-2664.383l107.338,25.178s20.76,4.859,48.589-1.767,26.834-5.521,27.5-4.417S3925.1-2630.7,3925.1-2630.7s12.921,4.307,25.4,3.313,19.657-1.911,19.767.149-.773,4.71-5.08,7.36c0,0,2.54.884,1.878,3.313s-4.749,5.411-4.749,5.411a2.562,2.562,0,0,1,2.1,2.54c-.11,2.1-7.178,6.847-7.178,6.847s4.013,1.435,1.51,3.5-8.982,5.006-8.982,5.006H3751.286Z" fill="#fdfbd6"/>
        <circle id="椭圆_174" data-name="椭圆 174" cx="36.11" cy="36.11" r="36.11" transform="translate(3720.406 -2664.935)" fill="#fdfbd6"/>
      </g>
      <g id="组_143" data-name="组 143">
        <rect id="矩形_144" data-name="矩形 144" width="335.18" height="156.527" rx="7.874" transform="translate(4012.591 -2997.234)" fill="#56b4f6"/>
        <path id="路径_532" data-name="路径 532" d="M4044.158-2840.707h298.353a5.234,5.234,0,0,0,3.341-1.2L4195.6-2992.153Z" fill="#f0e55d"/>
        <path id="路径_533" data-name="路径 533" d="M4290.009-2840.707h52.5a5.26,5.26,0,0,0,5.26-5.26v-146.008a5.26,5.26,0,0,0-5.26-5.259H4133.482l107.329,107.328Z" fill="#fdc254"/>
        <path id="路径_534" data-name="路径 534" d="M4218.534-2949.869a33.636,33.636,0,0,0-33.636,33.636,33.554,33.554,0,0,0,11.834,25.6l21.8,21.8,21.8-21.8a33.552,33.552,0,0,0,11.834-25.6A33.635,33.635,0,0,0,4218.534-2949.869Zm0,50.7a17.85,17.85,0,0,1-17.85-17.851,17.851,17.851,0,0,1,17.85-17.851,17.851,17.851,0,0,1,17.851,17.851A17.85,17.85,0,0,1,4218.534-2899.169Z" fill="#d74465"/>
        <path id="路径_535" data-name="路径 535" d="M4012.591-2872l31.3,31.3-31.3,31.295V-2872Z" fill="#56b4f6"/>
      </g>
    </g>
    <path id="路径_597" data-name="路径 597" d="M4.2-42H16.08V-9.42H36.12V0H4.2ZM67.32.84A25.121,25.121,0,0,1,55.35-1.98a21.187,21.187,0,0,1-8.34-7.8A21.156,21.156,0,0,1,43.98-21a21.156,21.156,0,0,1,3.03-11.22,21.188,21.188,0,0,1,8.34-7.8,25.121,25.121,0,0,1,11.97-2.82,25.121,25.121,0,0,1,11.97,2.82,21.188,21.188,0,0,1,8.34,7.8A21.156,21.156,0,0,1,90.66-21,21.156,21.156,0,0,1,87.63-9.78a21.188,21.188,0,0,1-8.34,7.8A25.121,25.121,0,0,1,67.32.84Zm0-9.84a11.249,11.249,0,0,0,5.76-1.5,10.789,10.789,0,0,0,4.08-4.23A12.807,12.807,0,0,0,78.66-21a12.807,12.807,0,0,0-1.5-6.27,10.789,10.789,0,0,0-4.08-4.23A11.249,11.249,0,0,0,67.32-33a11.249,11.249,0,0,0-5.76,1.5,10.789,10.789,0,0,0-4.08,4.23A12.807,12.807,0,0,0,55.98-21a12.807,12.807,0,0,0,1.5,6.27,10.789,10.789,0,0,0,4.08,4.23A11.249,11.249,0,0,0,67.32-9ZM123.84.84a24.856,24.856,0,0,1-11.85-2.79,20.863,20.863,0,0,1-8.25-7.77,21.43,21.43,0,0,1-3-11.28,21.43,21.43,0,0,1,3-11.28,20.863,20.863,0,0,1,8.25-7.77,24.856,24.856,0,0,1,11.85-2.79,25.435,25.435,0,0,1,10.38,2.04,19.971,19.971,0,0,1,7.68,5.88l-7.56,6.84a12.435,12.435,0,0,0-9.9-4.92,12.218,12.218,0,0,0-6.09,1.5,10.411,10.411,0,0,0-4.14,4.23A13.018,13.018,0,0,0,112.74-21a13.018,13.018,0,0,0,1.47,6.27,10.411,10.411,0,0,0,4.14,4.23A12.218,12.218,0,0,0,124.44-9a12.435,12.435,0,0,0,9.9-4.92l7.56,6.84a19.971,19.971,0,0,1-7.68,5.88A25.435,25.435,0,0,1,123.84.84Zm56.76-9H162.84L159.54,0H147.42l18.54-42h11.7l18.6,42H183.9Zm-3.48-8.76-5.4-13.44-5.4,13.44Zm35.34-15.66h-12.9V-42h37.62v9.42H224.34V0H212.46ZM247.62-42H259.5V0H247.62ZM295.14.84a25.121,25.121,0,0,1-11.97-2.82,21.187,21.187,0,0,1-8.34-7.8A21.156,21.156,0,0,1,271.8-21a21.156,21.156,0,0,1,3.03-11.22,21.187,21.187,0,0,1,8.34-7.8,25.121,25.121,0,0,1,11.97-2.82,25.121,25.121,0,0,1,11.97,2.82,21.187,21.187,0,0,1,8.34,7.8A21.156,21.156,0,0,1,318.48-21a21.156,21.156,0,0,1-3.03,11.22,21.187,21.187,0,0,1-8.34,7.8A25.121,25.121,0,0,1,295.14.84Zm0-9.84a11.249,11.249,0,0,0,5.76-1.5,10.789,10.789,0,0,0,4.08-4.23,12.807,12.807,0,0,0,1.5-6.27,12.807,12.807,0,0,0-1.5-6.27,10.789,10.789,0,0,0-4.08-4.23,11.249,11.249,0,0,0-5.76-1.5,11.249,11.249,0,0,0-5.76,1.5,10.789,10.789,0,0,0-4.08,4.23A12.807,12.807,0,0,0,283.8-21a12.807,12.807,0,0,0,1.5,6.27,10.789,10.789,0,0,0,4.08,4.23A11.249,11.249,0,0,0,295.14-9Zm75.54-33V0H360.9L342.36-22.38V0H330.72V-42h9.78l18.54,22.38V-42Z" transform="translate(205 177)" fill="#f0e55d"/>
    <path id="路径_598" data-name="路径 598" d="M22.24-14.44h5.92V-3.08A16.914,16.914,0,0,1,22.88-.44a20.5,20.5,0,0,1-6.04.92A16.368,16.368,0,0,1,9-1.38,13.846,13.846,0,0,1,3.54-6.54,14.216,14.216,0,0,1,1.56-14a14.216,14.216,0,0,1,1.98-7.46,13.779,13.779,0,0,1,5.5-5.16,16.689,16.689,0,0,1,7.92-1.86,17.332,17.332,0,0,1,6.68,1.24,13.236,13.236,0,0,1,5.04,3.6L24.52-19.8a9.622,9.622,0,0,0-7.24-3.16,9.882,9.882,0,0,0-4.76,1.12,8.035,8.035,0,0,0-3.24,3.16A9.3,9.3,0,0,0,8.12-14,9.22,9.22,0,0,0,9.28-9.36,8.2,8.2,0,0,0,12.5-6.18a9.544,9.544,0,0,0,4.7,1.14,10.5,10.5,0,0,0,5.04-1.2ZM43.96.32a12.9,12.9,0,0,1-6.1-1.42,10.556,10.556,0,0,1-4.22-3.94,10.856,10.856,0,0,1-1.52-5.72,10.856,10.856,0,0,1,1.52-5.72,10.556,10.556,0,0,1,4.22-3.94,12.9,12.9,0,0,1,6.1-1.42,12.785,12.785,0,0,1,6.08,1.42,10.589,10.589,0,0,1,4.2,3.94,10.856,10.856,0,0,1,1.52,5.72,10.856,10.856,0,0,1-1.52,5.72,10.589,10.589,0,0,1-4.2,3.94A12.785,12.785,0,0,1,43.96.32Zm0-5.12A5.2,5.2,0,0,0,47.9-6.42a6.039,6.039,0,0,0,1.54-4.34A6.039,6.039,0,0,0,47.9-15.1a5.2,5.2,0,0,0-3.94-1.62A5.262,5.262,0,0,0,40-15.1a5.993,5.993,0,0,0-1.56,4.34A5.993,5.993,0,0,0,40-6.42,5.262,5.262,0,0,0,43.96-4.8ZM70.16.32a12.9,12.9,0,0,1-6.1-1.42,10.556,10.556,0,0,1-4.22-3.94,10.856,10.856,0,0,1-1.52-5.72,10.856,10.856,0,0,1,1.52-5.72,10.556,10.556,0,0,1,4.22-3.94,12.9,12.9,0,0,1,6.1-1.42,12.785,12.785,0,0,1,6.08,1.42,10.589,10.589,0,0,1,4.2,3.94,10.856,10.856,0,0,1,1.52,5.72,10.856,10.856,0,0,1-1.52,5.72,10.589,10.589,0,0,1-4.2,3.94A12.785,12.785,0,0,1,70.16.32Zm0-5.12A5.2,5.2,0,0,0,74.1-6.42a6.039,6.039,0,0,0,1.54-4.34A6.039,6.039,0,0,0,74.1-15.1a5.2,5.2,0,0,0-3.94-1.62A5.262,5.262,0,0,0,66.2-15.1a5.993,5.993,0,0,0-1.56,4.34A5.993,5.993,0,0,0,66.2-6.42,5.262,5.262,0,0,0,70.16-4.8Zm38.16-16.72V-3.6q0,5.92-3.08,8.8t-9,2.88a22.509,22.509,0,0,1-5.92-.76,12.943,12.943,0,0,1-4.64-2.2L88.16.64A10.206,10.206,0,0,0,91.6,2.42a13.688,13.688,0,0,0,4.16.66,6.747,6.747,0,0,0,4.78-1.46,5.819,5.819,0,0,0,1.54-4.42v-.92a8.731,8.731,0,0,1-6.8,2.68,11.419,11.419,0,0,1-5.42-1.3A9.907,9.907,0,0,1,85.96-6a10.234,10.234,0,0,1-1.44-5.44,10.234,10.234,0,0,1,1.44-5.44,9.907,9.907,0,0,1,3.9-3.66,11.419,11.419,0,0,1,5.42-1.3,8.541,8.541,0,0,1,7.12,3.08v-2.76ZM96.52-6.16a5.747,5.747,0,0,0,4.06-1.46,4.959,4.959,0,0,0,1.58-3.82,4.959,4.959,0,0,0-1.58-3.82,5.747,5.747,0,0,0-4.06-1.46,5.819,5.819,0,0,0-4.08,1.46,4.928,4.928,0,0,0-1.6,3.82,4.928,4.928,0,0,0,1.6,3.82A5.819,5.819,0,0,0,96.52-6.16Zm17.6-23.52h6.24V0h-6.24Zm33.12,19q0,.12-.12,1.68H130.84a5.07,5.07,0,0,0,2.08,3.16A6.889,6.889,0,0,0,137-4.68a8.262,8.262,0,0,0,2.98-.5,7.218,7.218,0,0,0,2.42-1.58l3.32,3.6Q142.68.32,136.84.32A14.047,14.047,0,0,1,130.4-1.1a10.409,10.409,0,0,1-4.32-3.94,10.856,10.856,0,0,1-1.52-5.72,11,11,0,0,1,1.5-5.7,10.509,10.509,0,0,1,4.12-3.96,12.1,12.1,0,0,1,5.86-1.42,12,12,0,0,1,5.72,1.36,9.926,9.926,0,0,1,4.02,3.9A11.629,11.629,0,0,1,147.24-10.68Zm-11.16-6.44a5.374,5.374,0,0,0-3.56,1.2,5.108,5.108,0,0,0-1.76,3.28h10.6a5.159,5.159,0,0,0-1.76-3.26A5.261,5.261,0,0,0,136.08-17.12ZM188.64,0l-.04-16.8L180.36-2.96h-2.92l-8.2-13.48V0h-6.08V-28h5.36L179-10.6,189.32-28h5.32l.08,28ZM209.6-21.84q5,0,7.68,2.38t2.68,7.18V0h-5.84V-2.68q-1.76,3-6.56,3a10.181,10.181,0,0,1-4.3-.84,6.412,6.412,0,0,1-2.78-2.32,6.038,6.038,0,0,1-.96-3.36,5.607,5.607,0,0,1,2.26-4.72q2.26-1.72,6.98-1.72h4.96a3.977,3.977,0,0,0-1.24-3.14,5.462,5.462,0,0,0-3.72-1.1,10.862,10.862,0,0,0-3.38.54,8.942,8.942,0,0,0-2.82,1.46l-2.24-4.36a13.515,13.515,0,0,1,4.22-1.92A18.9,18.9,0,0,1,209.6-21.84Zm-.48,17.96a5.434,5.434,0,0,0,2.84-.74,4.049,4.049,0,0,0,1.76-2.18V-9h-4.28q-3.84,0-3.84,2.52a2.244,2.244,0,0,0,.94,1.9A4.234,4.234,0,0,0,209.12-3.88Zm29.2-17.96a10.967,10.967,0,0,1,5.46,1.38,9.909,9.909,0,0,1,3.86,3.88,11.714,11.714,0,0,1,1.4,5.82,11.714,11.714,0,0,1-1.4,5.82,9.909,9.909,0,0,1-3.86,3.88A10.967,10.967,0,0,1,238.32.32a8.311,8.311,0,0,1-6.48-2.6V7.76H225.6V-21.52h5.96v2.48A8.276,8.276,0,0,1,238.32-21.84ZM237.24-4.8a5.2,5.2,0,0,0,3.94-1.62,6.039,6.039,0,0,0,1.54-4.34,6.039,6.039,0,0,0-1.54-4.34,5.2,5.2,0,0,0-3.94-1.62,5.2,5.2,0,0,0-3.94,1.62,6.039,6.039,0,0,0-1.54,4.34,6.039,6.039,0,0,0,1.54,4.34A5.2,5.2,0,0,0,237.24-4.8Z" transform="translate(1389 195)" fill="#fff"/>
    <path id="路径_600" data-name="路径 600" d="M3.32-28H9.8V0H3.32ZM26.64-11,22.88-7.08V0H16.44V-28h6.44v13.08L35.28-28h7.2L30.88-15.52,43.16,0H35.6ZM67.72-5.2V0H46.04V-28H67.2v5.2H52.48v6.08h13v5.04h-13V-5.2ZM91.32-6h-13L75.84,0H69.2L81.68-28h6.4L100.6,0H93.8Zm-2.04-4.92L84.84-21.64,80.4-10.92Zm31.36-11.8h-8.96V-28h24.4v5.28h-8.96V0h-6.48Zm26.08.88q5,0,7.68,2.38t2.68,7.18V0h-5.84V-2.68q-1.76,3-6.56,3a10.181,10.181,0,0,1-4.3-.84,6.412,6.412,0,0,1-2.78-2.32,6.038,6.038,0,0,1-.96-3.36,5.607,5.607,0,0,1,2.26-4.72q2.26-1.72,6.98-1.72h4.96a3.977,3.977,0,0,0-1.24-3.14,5.462,5.462,0,0,0-3.72-1.1,10.862,10.862,0,0,0-3.38.54,8.942,8.942,0,0,0-2.82,1.46l-2.24-4.36a13.515,13.515,0,0,1,4.22-1.92A18.9,18.9,0,0,1,146.72-21.84Zm-.48,17.96a5.434,5.434,0,0,0,2.84-.74,4.049,4.049,0,0,0,1.76-2.18V-9h-4.28q-3.84,0-3.84,2.52a2.244,2.244,0,0,0,.94,1.9A4.234,4.234,0,0,0,146.24-3.88Zm29.2-17.96a10.967,10.967,0,0,1,5.46,1.38,9.909,9.909,0,0,1,3.86,3.88,11.714,11.714,0,0,1,1.4,5.82,11.714,11.714,0,0,1-1.4,5.82,9.909,9.909,0,0,1-3.86,3.88A10.967,10.967,0,0,1,175.44.32a8.276,8.276,0,0,1-6.76-2.8V0h-5.96V-29.68h6.24v10.44A8.311,8.311,0,0,1,175.44-21.84ZM174.36-4.8a5.2,5.2,0,0,0,3.94-1.62,6.039,6.039,0,0,0,1.54-4.34,6.039,6.039,0,0,0-1.54-4.34,5.2,5.2,0,0,0-3.94-1.62,5.2,5.2,0,0,0-3.94,1.62,6.039,6.039,0,0,0-1.54,4.34,6.039,6.039,0,0,0,1.54,4.34A5.2,5.2,0,0,0,174.36-4.8Zm15.96-24.88h6.24V0h-6.24Zm33.12,19q0,.12-.12,1.68H207.04a5.07,5.07,0,0,0,2.08,3.16,6.889,6.889,0,0,0,4.08,1.16,8.262,8.262,0,0,0,2.98-.5,7.218,7.218,0,0,0,2.42-1.58l3.32,3.6Q218.88.32,213.04.32A14.047,14.047,0,0,1,206.6-1.1a10.41,10.41,0,0,1-4.32-3.94,10.856,10.856,0,0,1-1.52-5.72,11,11,0,0,1,1.5-5.7,10.509,10.509,0,0,1,4.12-3.96,12.1,12.1,0,0,1,5.86-1.42,12,12,0,0,1,5.72,1.36,9.927,9.927,0,0,1,4.02,3.9A11.629,11.629,0,0,1,223.44-10.68Zm-11.16-6.44a5.374,5.374,0,0,0-3.56,1.2,5.108,5.108,0,0,0-1.76,3.28h10.6a5.159,5.159,0,0,0-1.76-3.26A5.261,5.261,0,0,0,212.28-17.12Z" transform="translate(1254 871)" fill="#fff"/>
    <path id="路径_599" data-name="路径 599" d="M9.8-22.8v7.4H22.76v5.2H9.8V0H3.32V-28H24.48v5.2Zm18.64-6.88h6.24V0H28.44ZM50.72.32a12.9,12.9,0,0,1-6.1-1.42A10.556,10.556,0,0,1,40.4-5.04a10.856,10.856,0,0,1-1.52-5.72,10.856,10.856,0,0,1,1.52-5.72,10.556,10.556,0,0,1,4.22-3.94,12.9,12.9,0,0,1,6.1-1.42,12.785,12.785,0,0,1,6.08,1.42A10.589,10.589,0,0,1,61-16.48a10.856,10.856,0,0,1,1.52,5.72A10.856,10.856,0,0,1,61-5.04,10.589,10.589,0,0,1,56.8-1.1,12.785,12.785,0,0,1,50.72.32Zm0-5.12a5.2,5.2,0,0,0,3.94-1.62,6.039,6.039,0,0,0,1.54-4.34,6.039,6.039,0,0,0-1.54-4.34,5.2,5.2,0,0,0-3.94-1.62,5.262,5.262,0,0,0-3.96,1.62,5.993,5.993,0,0,0-1.56,4.34,5.993,5.993,0,0,0,1.56,4.34A5.262,5.262,0,0,0,50.72-4.8Zm49.92-16.72L92.84,0h-6L82-13.36,77,0H71L63.24-21.52h5.88L74.2-6.96l5.28-14.56h5.28L89.88-6.96l5.24-14.56Zm23.4,10.84q0,.12-.12,1.68H107.64a5.07,5.07,0,0,0,2.08,3.16,6.889,6.889,0,0,0,4.08,1.16,8.262,8.262,0,0,0,2.98-.5,7.218,7.218,0,0,0,2.42-1.58l3.32,3.6Q119.48.32,113.64.32A14.047,14.047,0,0,1,107.2-1.1a10.409,10.409,0,0,1-4.32-3.94,10.856,10.856,0,0,1-1.52-5.72,11,11,0,0,1,1.5-5.7,10.509,10.509,0,0,1,4.12-3.96,12.1,12.1,0,0,1,5.86-1.42,12,12,0,0,1,5.72,1.36,9.927,9.927,0,0,1,4.02,3.9A11.629,11.629,0,0,1,124.04-10.68Zm-11.16-6.44a5.374,5.374,0,0,0-3.56,1.2,5.108,5.108,0,0,0-1.76,3.28h10.6a5.159,5.159,0,0,0-1.76-3.26A5.261,5.261,0,0,0,112.88-17.12Zm21.28-1.56a6.939,6.939,0,0,1,3.02-2.36,11.209,11.209,0,0,1,4.38-.8v5.76q-1.04-.08-1.4-.08a5.72,5.72,0,0,0-4.2,1.5,6.062,6.062,0,0,0-1.52,4.5V0H128.2V-21.52h5.96ZM166.4.48a22.909,22.909,0,0,1-6.42-.9A15.057,15.057,0,0,1,155-2.76l2.2-4.88a14.929,14.929,0,0,0,4.28,2.12,16.076,16.076,0,0,0,4.96.8,7.924,7.924,0,0,0,4.08-.82,2.477,2.477,0,0,0,1.32-2.18,2.084,2.084,0,0,0-.78-1.66,5.913,5.913,0,0,0-2-1.06q-1.22-.4-3.3-.88a45.617,45.617,0,0,1-5.24-1.52,8.514,8.514,0,0,1-3.5-2.44,6.589,6.589,0,0,1-1.46-4.48,7.793,7.793,0,0,1,1.32-4.42,8.879,8.879,0,0,1,3.98-3.14,16.241,16.241,0,0,1,6.5-1.16,21.523,21.523,0,0,1,5.24.64A15.48,15.48,0,0,1,177.08-26l-2,4.92a15.613,15.613,0,0,0-7.76-2.2,7.276,7.276,0,0,0-4.02.88,2.686,2.686,0,0,0-1.3,2.32,2.268,2.268,0,0,0,1.5,2.14,23.551,23.551,0,0,0,4.58,1.38,45.619,45.619,0,0,1,5.24,1.52,8.677,8.677,0,0,1,3.5,2.4,6.435,6.435,0,0,1,1.46,4.44,7.646,7.646,0,0,1-1.34,4.38,9,9,0,0,1-4.02,3.14A16.388,16.388,0,0,1,166.4.48Zm28.96-22.32a8.856,8.856,0,0,1,6.46,2.4q2.46,2.4,2.46,7.12V0h-6.24V-11.36a5.61,5.61,0,0,0-1.12-3.82,4.107,4.107,0,0,0-3.24-1.26,4.966,4.966,0,0,0-3.76,1.46,6.045,6.045,0,0,0-1.4,4.34V0h-6.24V-29.68h6.24v10.4a8.3,8.3,0,0,1,3-1.9A10.853,10.853,0,0,1,195.36-21.84ZM220.4.32a12.9,12.9,0,0,1-6.1-1.42,10.556,10.556,0,0,1-4.22-3.94,10.856,10.856,0,0,1-1.52-5.72,10.856,10.856,0,0,1,1.52-5.72,10.556,10.556,0,0,1,4.22-3.94,12.9,12.9,0,0,1,6.1-1.42,12.785,12.785,0,0,1,6.08,1.42,10.589,10.589,0,0,1,4.2,3.94,10.856,10.856,0,0,1,1.52,5.72,10.856,10.856,0,0,1-1.52,5.72,10.589,10.589,0,0,1-4.2,3.94A12.785,12.785,0,0,1,220.4.32Zm0-5.12a5.2,5.2,0,0,0,3.94-1.62,6.039,6.039,0,0,0,1.54-4.34,6.039,6.039,0,0,0-1.54-4.34,5.2,5.2,0,0,0-3.94-1.62,5.262,5.262,0,0,0-3.96,1.62,5.993,5.993,0,0,0-1.56,4.34,5.993,5.993,0,0,0,1.56,4.34A5.262,5.262,0,0,0,220.4-4.8Zm28.68-17.04a10.967,10.967,0,0,1,5.46,1.38,9.909,9.909,0,0,1,3.86,3.88,11.714,11.714,0,0,1,1.4,5.82,11.714,11.714,0,0,1-1.4,5.82,9.909,9.909,0,0,1-3.86,3.88A10.967,10.967,0,0,1,249.08.32a8.311,8.311,0,0,1-6.48-2.6V7.76h-6.24V-21.52h5.96v2.48A8.276,8.276,0,0,1,249.08-21.84ZM248-4.8a5.2,5.2,0,0,0,3.94-1.62,6.039,6.039,0,0,0,1.54-4.34,6.039,6.039,0,0,0-1.54-4.34A5.2,5.2,0,0,0,248-16.72a5.2,5.2,0,0,0-3.94,1.62,6.039,6.039,0,0,0-1.54,4.34,6.039,6.039,0,0,0,1.54,4.34A5.2,5.2,0,0,0,248-4.8Z" transform="translate(1192 655)" fill="#fff"/>
  </g>
</svg>
