<svg id="组_200" data-name="组 200" xmlns="http://www.w3.org/2000/svg" width="1920" height="1080" viewBox="0 0 1920 1080">
  <g id="组_119" data-name="组 119" transform="translate(-5044.682 4340.346)">
    <g id="组_102" data-name="组 102">
      <rect id="矩形_105" data-name="矩形 105" width="1920" height="1080" transform="translate(5044.682 -4340.346)" fill="#3b8cf0"/>
      <path id="路径_387" data-name="路径 387" d="M5044.682-4336.856v1076.51h1104.7C6090.739-3836.737,5625.27-4292.81,5044.682-4336.856Z" fill="#56b4f6"/>
    </g>
    <g id="组_103" data-name="组 103">
      <path id="路径_388" data-name="路径 388" d="M5582.745-3475.653H6818.665l-212.025-37.64H5761.556Z" fill="#2166ea"/>
      <path id="路径_389" data-name="路径 389" d="M5603.948-3579.014l-21.2,103.36h17.227l68.908-100.382Z" fill="#013dba"/>
      <path id="路径_390" data-name="路径 390" d="M6521.806-3579.014l21.2,103.36h-17.227l-68.908-100.382Z" fill="#013dba"/>
      <path id="路径_391" data-name="路径 391" d="M5782.758-3612.042l-21.2,103.361h17.227l68.908-100.382Z" fill="#013dba"/>
      <path id="矩形_106" data-name="矩形 106" d="M57.644,0H157.929a0,0,0,0,1,0,0V246.1a0,0,0,0,1,0,0H53.511A53.511,53.511,0,0,1,0,192.586V57.644A57.644,57.644,0,0,1,57.644,0Z" transform="translate(5510.952 -3801.039)" fill="#fd7d9c"/>
      <rect id="矩形_107" data-name="矩形 107" width="1068.074" height="245.403" rx="47.041" transform="translate(5564.249 -3800.346)" fill="#d74465"/>
      <path id="矩形_108" data-name="矩形 108" d="M65.926,0H821.418a71.533,71.533,0,0,1,71.533,71.533V234.979a0,0,0,0,1,0,0H0a0,0,0,0,1,0,0V65.926A65.926,65.926,0,0,1,65.926,0Z" transform="translate(5686.365 -3971.081)" fill="#fd7d9c"/>
      <path id="矩形_109" data-name="矩形 109" d="M65.926,0h944.581a0,0,0,0,1,0,0V84.166a0,0,0,0,1,0,0H0a0,0,0,0,1,0,0V65.926A65.926,65.926,0,0,1,65.926,0Z" transform="translate(5568.81 -3732.056)" fill="#fd7d9c"/>
      <path id="矩形_110" data-name="矩形 110" d="M57.644,0h53.669a0,0,0,0,1,0,0V199.056a0,0,0,0,1,0,0H0a0,0,0,0,1,0,0V57.644A57.644,57.644,0,0,1,57.644,0Z" transform="translate(6521.009 -3801.039)" fill="#d74465"/>
    </g>
    <path id="路径_392" data-name="路径 392" d="M5886.812-3550.181l61.338,17.207-23.595,69.114s-6.28,18.393-15.184,13.486-11.393-21.315-11.393-21.315-14.643-35.493-16.452-42.956S5886.812-3550.181,5886.812-3550.181Z" fill="#f0e55d"/>
    <path id="路径_393" data-name="路径 393" d="M6133.18-4022.872s170.333,1.08,189.554,50.553v8.814H6133.18Z" fill="#fdfbd6"/>
    <path id="路径_394" data-name="路径 394" d="M5910.256-3739.758l-34.454,195.24,71.558,13.251,85.694-193.472s46.822-77.917,0-117.585h-75.092Z" fill="#02399b"/>
    <path id="路径_395" data-name="路径 395" d="M6034.535-3844.324l-249.234.592v112.859l249.234-7.288Z" fill="#0b3582"/>
    <path id="路径_396" data-name="路径 396" d="M5803.936-3943.317l-30.037,53.889,4.417,21.2,69.792,20.319,19.595-16.785.525-26.809-8.636-31.173Z" fill="#fdfbd5"/>
    <path id="路径_397" data-name="路径 397" d="M5935.776-4100.706c0,5.482.108,9.926-3.055,9.926s-8.4-4.444-8.4-9.926.763-9.925,5.727-9.925C5933.211-4110.631,5935.776-4106.187,5935.776-4100.706Z" fill="#f5c59f"/>
    <path id="路径_398" data-name="路径 398" d="M6000.572-4099.635c0,5.112-.1,9.256,2.849,9.256s7.834-4.144,7.834-9.256-.712-9.256-5.341-9.256C6002.964-4108.891,6000.572-4104.747,6000.572-4099.635Z" fill="#f5c59f"/>
    <path id="路径_399" data-name="路径 399" d="M5937.526-4079.814l-3.336,69.687,61.721,2.78-3.336-78.958Z" fill="#fdfbd7"/>
    <path id="路径_400" data-name="路径 400" d="M5946.928-4058.483l48.326,35.612-1.772-41.876Z" fill="#f5c59f"/>
    <path id="路径_401" data-name="路径 401" d="M6003.241-4069.415c0,8.342-9.419,17.762-17.762,17.762l-12.681-.139c-26.567,0-36.484-23.554-37.515-31.745l-1.094-45.842c0-13.359,10.515-23.489,23.874-23.489l47.85,22.743Z" fill="#fdfbd7"/>
    <path id="路径_402" data-name="路径 402" d="M5944.554-4134.094c-1.727,2.508-6.413,10.818-6.413,27.148,0,20.018,7.785,29.1,20.944,29.1s15.94-3.522,19.833-3.522,12.233,5,15.754,5,9.074-4.513,9.074-4.513l-.594,13.408s-3.121,15.509-18.489,15.815c-17.234.344-4.077,0-17.237,0-16.45,0-34.475-10.253-34.475-45.469,0-12.765-.055-21.06-.005-26.694h0c-3.326-29.29,24.283-29.052,24.283-29.052s10.051-.718,17.851-.718,16.809.718,16.809.718,21.13,3.892,21.13,19.276-13.346,18.9-13.346,18.9h-12.6c-12.6,0-35.273-17.763-37.255-19.276C5946.388-4136.577,5944.554-4134.094,5944.554-4134.094Z" fill="#02399b"/>
    <path id="路径_403" data-name="路径 403" d="M5977.951-4110.467v25.022h-5.742" fill="#f5c59f"/>
    <rect id="矩形_111" data-name="矩形 111" width="0.741" height="25.022" transform="translate(5977.666 -4110.467)" fill="#02399b"/>
    <path id="路径_404" data-name="路径 404" d="M5946.129-4110.7s14.21-4.943,19.277-2.966,1.73,4.2,1.73,4.2-5.808,4.448-17.3,1.853C5949.836-4107.613,5944.046-4110.027,5946.129-4110.7Z" fill="#02399b"/>
    <path id="路径_405" data-name="路径 405" d="M6005.375-4111.487s-10.78-4.079-15.663-1.686-1.373,4.331-1.373,4.331,9.875,2.745,14.843,2.051C6006.9-4107.311,6006.289-4111.273,6005.375-4111.487Z" fill="#02399b"/>
    <ellipse id="椭圆_124" data-name="椭圆 124" cx="2.595" cy="3.583" rx="2.595" ry="3.583" transform="translate(5958.212 -4104.289)" fill="#02399b"/>
    <ellipse id="椭圆_125" data-name="椭圆 125" cx="2.595" cy="3.583" rx="2.595" ry="3.583" transform="translate(5992.082 -4103.218)" fill="#02399b"/>
    <g id="组_104" data-name="组 104">
      <path id="路径_406" data-name="路径 406" d="M5976.486-4070c-4.665,0-7.022-1.464-8.2-2.784a1.506,1.506,0,0,1,.8-2.464l1.346-.309a.572.572,0,0,0-.018-.066c.009.027.944,2.663,7.53,2.215a1.68,1.68,0,0,1,1.793,1.716,1.729,1.729,0,0,1-1.645,1.638C5977.527-4070.012,5976.993-4070,5976.486-4070Z" fill="#fff"/>
    </g>
    <path id="路径_407" data-name="路径 407" d="M5865.75-4022.959h267.43v74.252l-56.3,2.1-43.985,103.986-152.189-5.514-21.113-74.539-56.3-18.876S5834.961-4022.959,5865.75-4022.959Z" fill="#f0e55d"/>
    <path id="路径_408" data-name="路径 408" d="M5934.246-4045.941s23.1,19.464,61.6,7.273l2.567,34.222-32.084-14.545-35.078,14.545Z" fill="#fdc254"/>
    <path id="路径_409" data-name="路径 409" d="M5815-3907.4" fill="#f8f5d5"/>
    <path id="路径_410" data-name="路径 410" d="M6110.8-4022.872l22.375-.087v74.252l-22.375.835Z" fill="#fdc254"/>
    <path id="路径_411" data-name="路径 411" d="M5859.592-3922.673,5854.9-3942.3l-45.24-14.038-6.372,14.787Z" fill="#fdc254"/>
    <circle id="椭圆_126" data-name="椭圆 126" cx="56.429" cy="56.429" r="56.429" transform="translate(5728.871 -3844.028)" fill="#0543c0"/>
    <path id="路径_412" data-name="路径 412" d="M5785.3-3844.028l250.123,38.429-5.3,68.025-244.822,6.4Z" fill="#0543c0"/>
    <path id="路径_413" data-name="路径 413" d="M6034.713-3800.948l-3.533,63.607h73.03s19.436,0,17.669-10.012-16.491-17.669-16.491-17.669-28.859-25.325-35.337-29.447S6034.713-3800.948,6034.713-3800.948Z" fill="#f0e55d"/>
    <g id="组_105" data-name="组 105">
      <path id="路径_414" data-name="路径 414" d="M6371.054-3743.368c-.589-1.767,26.5-21.2,40.049-45.35s13.546-44.761,17.669-46.528,17.668,5.89,9.423,40.639S6371.054-3743.368,6371.054-3743.368Z" fill="#fdc254"/>
      <path id="路径_415" data-name="路径 415" d="M6248.256-3982.632s3.534-21.592,7.509-20.955,8.835,13.446,9.276,20.955S6248.256-3982.632,6248.256-3982.632Z" fill="#efba54"/>
      <path id="路径_416" data-name="路径 416" d="M6206.146-3979.687s-7.951,27.828,12.368,32.245,17.669,8.835,16.785,18.552-20.319,42.111-18.552,65.08,10.6,61.841,10.6,115.436c0,0-15.9,1.178-15.9,14.135h24.468l10.87-15.313,7.067-31.8,28.859,17.669,11.19,8.245s-18.846,4.712-18.846,21.2h81.865c32.981,0,38.282-43.583,15.313-77.743s-70.675-38.871-80.687-98.356-14.135-76.939-20.025-93.644-16.491,18.847-16.491,18.847-16.491-2.945-26.5,7.067Z" fill="#f0e55d"/>
      <path id="路径_417" data-name="路径 417" d="M6206.146-3979.687a41.213,41.213,0,0,0-1.531,12.157c.056,1.173,13.208-11.312,13.208-11.312Z" fill="#efba54"/>
      <path id="路径_418" data-name="路径 418" d="M6227.832-3908.284l61.461-15.3,2.252,13.249-68.963,15.588Z" fill="#56b4f6"/>
      <rect id="矩形_112" data-name="矩形 112" width="7.547" height="15.08" transform="translate(6220.103 -3908.125) rotate(-9.78)" fill="#cc4665"/>
    </g>
    <g id="组_106" data-name="组 106">
      <ellipse id="椭圆_127" data-name="椭圆 127" cx="304.938" cy="24.086" rx="304.938" ry="24.086" transform="translate(5776.393 -3412.513)" fill="#2166ea"/>
      <path id="路径_419" data-name="路径 419" d="M5842.543-3537.961l-77.165,151.068h14.333l113.2-135.043Z" fill="#013dba"/>
      <path id="路径_420" data-name="路径 420" d="M6168.17-3537.961l77.165,151.068H6231l-113.2-135.043Z" fill="#013dba"/>
      <ellipse id="椭圆_128" data-name="椭圆 128" cx="262.759" cy="41.649" rx="262.759" ry="41.649" transform="translate(5752.169 -3597.83)" fill="#cc4465"/>
      <ellipse id="椭圆_129" data-name="椭圆 129" cx="262.759" cy="41.649" rx="262.759" ry="41.649" transform="translate(5752.169 -3614.879)" fill="#fdfbd7"/>
    </g>
    <g id="组_108" data-name="组 108">
      <ellipse id="椭圆_130" data-name="椭圆 130" cx="47.84" cy="3.222" rx="47.84" ry="3.222" transform="translate(6141.635 -3575.693)" fill="#f3ceb8"/>
      <g id="组_107" data-name="组 107">
        <rect id="矩形_113" data-name="矩形 113" width="2.429" height="55.215" transform="translate(6139.793 -3720.554) rotate(-14.751)" fill="#1e63e6"/>
        <circle id="椭圆_131" data-name="椭圆 131" cx="11.706" cy="11.706" r="11.706" transform="translate(6126.523 -3742.125)" fill="#56b4f6"/>
        <path id="路径_421" data-name="路径 421" d="M6121.146-3704.225l19.831,9.4s-8.547,4.839-13.741.725S6123.661-3698.721,6121.146-3704.225Z" fill="#1e63e6"/>
        <rect id="矩形_114" data-name="矩形 114" width="2.429" height="92.141" transform="translate(6171.917 -3661.076) rotate(-173.477)" fill="#1e63e6"/>
        <circle id="椭圆_132" data-name="椭圆 132" cx="11.706" cy="11.706" r="11.706" transform="translate(6170.813 -3774.314)" fill="#56b4f6"/>
        <path id="路径_422" data-name="路径 422" d="M6200.472-3742.7l-18.282,12.137s9.151,3.565,13.7-1.25S6198.77-3736.892,6200.472-3742.7Z" fill="#1e63e6"/>
        <rect id="矩形_115" data-name="矩形 115" width="2.429" height="55.215" transform="translate(6163.099 -3655.734) rotate(-179.611)" fill="#1e63e6"/>
        <circle id="椭圆_133" data-name="椭圆 133" cx="10.616" cy="10.616" r="10.616" transform="translate(6153.015 -3730.42)" fill="#56b4f6"/>
        <path id="路径_423" data-name="路径 423" d="M6182.519-3703.015,6165.638-3689s9.48,2.568,13.491-2.706S6181.448-3697.059,6182.519-3703.015Z" fill="#1e63e6"/>
      </g>
      <path id="路径_424" data-name="路径 424" d="M6127.293-3678.73l10.79,28.269s-56.54,79.51,20.319,79.51,23.959-79.772,23.959-79.772l10.5-28.007Z" fill="#56b4f6"/>
      <ellipse id="椭圆_134" data-name="椭圆 134" cx="32.781" cy="4.196" rx="32.781" ry="4.196" transform="translate(6127.293 -3682.844)" fill="#1e63e6"/>
    </g>
    <g id="组_109" data-name="组 109">
      <path id="路径_425" data-name="路径 425" d="M5883.856-3596.2,5842-3577.145s27.307,3.247,38.216,12.517l37.818-20.757S5910.276-3594.745,5883.856-3596.2Z" fill="#61a7d6"/>
      <path id="路径_426" data-name="路径 426" d="M5919.319-3585.156l-39.1,20.528s33.656,7.581,45.346,14.931l33.4-20.362S5945.739-3583.7,5919.319-3585.156Z" fill="#61a7d6"/>
      <path id="路径_427" data-name="路径 427" d="M5919.519-3585.949l-39.3,21.321s37.336,4.2,45.545,14.138l32.243-21.661S5945.938-3584.5,5919.519-3585.949Z" fill="#f0e55d"/>
      <path id="路径_428" data-name="路径 428" d="M5885.338-3596.763l-43.608,18.338s30.279,3.855,38.489,13.8l39.3-21.321S5911.758-3595.309,5885.338-3596.763Z" fill="#efb951"/>
    </g>
    <g id="组_110" data-name="组 110">
      <ellipse id="椭圆_135" data-name="椭圆 135" cx="128.686" cy="11.381" rx="128.686" ry="11.381" transform="translate(6456.143 -3404.28)" fill="#2166ea"/>
      <path id="路径_429" data-name="路径 429" d="M6459.255-3431.92s-16.786,11.043-8.393,21.2c8.345,10.1,46.917,27.981,191.532,16.023a1.853,1.853,0,0,0,1.577-2.512l-4.054-10.419s5.743-30.92-5.742-52.122c0,0-16.785-5.3-26.061,13.251s-32.687-5.932-32.687-5.932,9.717-5.552-5.743-21.454c0,0-34.9,21.644-56.1,26.5S6459.255-3431.92,6459.255-3431.92Z" fill="#f0e55d"/>
      <path id="路径_430" data-name="路径 430" d="M6640.893-3406.828l-75.092,2.65s-36.221,6.185-37.546,5.743-29.595,1.325-77.743-11.485c0,0,17.093,38.569,192.291,15.295a1.723,1.723,0,0,0,1.409-2.246Z" fill="#043699"/>
      <path id="路径_431" data-name="路径 431" d="M6517.966-3435.834l20.024,25.914,10.344-3.534-8.577-9.423,16.877,4.712,12.571-4.712-20.871-25.325-10.933,3.534,10.933,12.957-19.178-8.246Z" fill="#2166ea"/>
      <path id="路径_432" data-name="路径 432" d="M6568.592-3403.436s-3.69-20.76,70.96-41.079l1.04,4.417s4.859,24.294,0,33.57Z" fill="#013dba"/>
      <path id="路径_433" data-name="路径 433" d="M6451.617-3409.92s55.877,14.908,74.871,11.485c0,0,95.659,2.761,116.172-2.209l1.1,2.974s-2.963,4.093-44.043,3.983S6470.61-3387.282,6451.617-3409.92Z" fill="#fdfbd7"/>
    </g>
    <g id="组_111" data-name="组 111">
      <rect id="矩形_116" data-name="矩形 116" width="69.61" height="34.805" rx="5.346" transform="translate(5975.577 -3857.055) rotate(-78.95)" fill="#56b4f6"/>
      <circle id="椭圆_136" data-name="椭圆 136" cx="2.218" cy="2.218" r="2.218" transform="translate(5990.862 -3921.304)" fill="#043699"/>
      <path id="路径_434" data-name="路径 434" d="M6001.1-3891.762a5.937,5.937,0,0,0-2.636-1,3.065,3.065,0,0,0-2.748,1.491c-.853,1.148-1.975,6.014,1.309,8.513,0,0,0,.143.6.118s.933-.389,1.869-.206,1.472.8,2.187.941,2.088-.449,3.534-2.881c0,0-3.2-3.054.664-5.3a4.115,4.115,0,0,0-1.767-1.631c-1.042-.374-2.4.118-2.863.027Z" fill="#043699"/>
      <path id="路径_435" data-name="路径 435" d="M6001.516-3892.368a3.183,3.183,0,0,1,3.166-2.61S6004.121-3891.959,6001.516-3892.368Z" fill="#043699"/>
    </g>
    <g id="组_114" data-name="组 114">
      <ellipse id="椭圆_137" data-name="椭圆 137" cx="29.462" cy="5.097" rx="29.462" ry="5.097" transform="translate(6023.158 -3571.83)" fill="#2a5ea3"/>
      <g id="组_113" data-name="组 113">
        <g id="组_112" data-name="组 112">
          <path id="路径_436" data-name="路径 436" d="M6016.905-3618.064l5.624,50.473,35.227.507,10.961-49.976" fill="#57b5fa"/>
          <ellipse id="椭圆_138" data-name="椭圆 138" cx="4.765" cy="25.91" rx="4.765" ry="25.91" transform="translate(6016.833 -3613.04) rotate(-89.176)" fill="#57b5fa"/>
          <ellipse id="椭圆_139" data-name="椭圆 139" cx="4.765" cy="17.615" rx="4.765" ry="17.615" transform="matrix(0.014, -1, 1, 0.014, 6022.464, -3563.033)" fill="#57b5fa"/>
          <ellipse id="椭圆_140" data-name="椭圆 140" cx="3.297" cy="23.262" rx="3.297" ry="23.262" transform="translate(6019.489 -3613.542) rotate(-89.176)" fill="#1e63e6"/>
        </g>
        <path id="路径_437" data-name="路径 437" d="M6062.675-3607.731a16.407,16.407,0,0,0-16.407,16.407,16.406,16.406,0,0,0,16.407,16.406,16.406,16.406,0,0,0,16.406-16.406A16.407,16.407,0,0,0,6062.675-3607.731Zm0,27.537a11.131,11.131,0,0,1-11.131-11.13,11.132,11.132,0,0,1,11.131-11.131,11.131,11.131,0,0,1,11.13,11.131A11.13,11.13,0,0,1,6062.675-3580.194Z" fill="#57b5fa"/>
      </g>
    </g>
    <g id="组_115" data-name="组 115">
      <path id="路径_438" data-name="路径 438" d="M5812.288-3908.837l107.337,25.177s20.761,4.859,48.589-1.766,26.834-5.522,27.5-4.418-21.092,14.687-21.092,14.687,12.92,4.307,25.4,3.313,19.656-1.91,19.766.149-.773,4.71-5.079,7.361c0,0,2.54.883,1.877,3.312s-4.748,5.411-4.748,5.411a2.563,2.563,0,0,1,2.1,2.54c-.111,2.1-7.178,6.847-7.178,6.847s4.012,1.436,1.509,3.5-8.982,5.006-8.982,5.006H5800.8Z" fill="#fdfbd6"/>
      <circle id="椭圆_141" data-name="椭圆 141" cx="36.11" cy="36.11" r="36.11" transform="translate(5769.924 -3909.39)" fill="#fdfbd6"/>
    </g>
    <g id="组_118" data-name="组 118">
      <rect id="矩形_117" data-name="矩形 117" width="183.716" height="145.878" rx="12.801" transform="translate(6237.316 -4259.019)" fill="#f0e55d"/>
      <g id="组_116" data-name="组 116">
        <path id="路径_439" data-name="路径 439" d="M6293.251-4113.141a12.032,12.032,0,0,1,0-17.015l49.39-49.39a12.032,12.032,0,0,1,17.015,0l49.39,49.39a12.03,12.03,0,0,1,0,17.015" fill="#cc4465"/>
        <path id="路径_440" data-name="路径 440" d="M6254.489-4129.892a12.033,12.033,0,0,1,0-17.015l49.39-49.39a12.032,12.032,0,0,1,17.015,0l49.39,49.39a12.031,12.031,0,0,1,0,17.015" fill="#fd7d9c"/>
        <circle id="椭圆_142" data-name="椭圆 142" cx="12.174" cy="12.174" r="12.174" transform="translate(6338.975 -4221.765)" fill="#cc4465"/>
      </g>
      <g id="组_117" data-name="组 117">
        <path id="矩形_118" data-name="矩形 118" d="M0,0H183.716a0,0,0,0,1,0,0V16.117A10.316,10.316,0,0,1,173.4,26.432H10.316A10.316,10.316,0,0,1,0,16.117V0A0,0,0,0,1,0,0Z" transform="translate(6237.316 -4139.573)" fill="#56b4f6"/>
        <rect id="矩形_119" data-name="矩形 119" width="106.656" height="7.349" transform="translate(6261.776 -4129.337)" fill="#fdfbd7"/>
        <rect id="矩形_120" data-name="矩形 120" width="25.452" height="7.349" transform="translate(6378.128 -4129.337)" fill="#fdfbd7"/>
      </g>
      <path id="路径_441" data-name="路径 441" d="M6814.209-4236.5a75.533,75.533,0,0,0-106.821,0,75.532,75.532,0,0,0,0,106.82,75.534,75.534,0,0,0,106.821,0A75.534,75.534,0,0,0,6814.209-4236.5Zm-89.955,89.954a51.681,51.681,0,0,1,0-73.088,51.68,51.68,0,0,1,73.088,0,51.68,51.68,0,0,1,0,73.088A51.68,51.68,0,0,1,6724.254-4146.546Z" fill="#f0e55d"/>
      <path id="路径_442" data-name="路径 442" d="M6814.209-4236.5l-16.867,16.866a51.68,51.68,0,0,1,0,73.088l16.867,16.866A75.533,75.533,0,0,0,6814.209-4236.5Z" fill="#61a7d6"/>
      <circle id="椭圆_143" data-name="椭圆 143" cx="75.534" cy="75.534" r="75.534" transform="translate(6522.18 -4258.624)" fill="#fd7d9c"/>
      <path id="路径_443" data-name="路径 443" d="M6597.714-4107.556a75.534,75.534,0,0,0,75.534-75.534,75.188,75.188,0,0,0-15.534-45.865l-60,46.748Z" fill="#0543c0"/>
    </g>
  </g>
  <path id="路径_606" data-name="路径 606" d="M18.96.84A38.829,38.829,0,0,1,9.06-.42a24.35,24.35,0,0,1-7.8-3.36l3.9-8.76a25.236,25.236,0,0,0,6.54,3A24.9,24.9,0,0,0,19.02-8.4q6.84,0,6.84-3.42a2.832,2.832,0,0,0-1.95-2.67,35.861,35.861,0,0,0-6.27-1.83,59.844,59.844,0,0,1-7.92-2.19,13.331,13.331,0,0,1-5.46-3.75,10.133,10.133,0,0,1-2.28-6.96,12.049,12.049,0,0,1,2.1-6.93,14.053,14.053,0,0,1,6.27-4.89,25.808,25.808,0,0,1,10.23-1.8,36.087,36.087,0,0,1,8.16.93,24.989,24.989,0,0,1,7.08,2.73l-3.66,8.82A24.451,24.451,0,0,0,20.52-33.6a9.758,9.758,0,0,0-5.16,1.05,3.148,3.148,0,0,0-1.62,2.73,2.707,2.707,0,0,0,1.92,2.52,34.715,34.715,0,0,0,6.18,1.74,57.894,57.894,0,0,1,7.95,2.19,13.728,13.728,0,0,1,5.46,3.72,9.935,9.935,0,0,1,2.31,6.93,11.814,11.814,0,0,1-2.1,6.84,14.315,14.315,0,0,1-6.3,4.89A25.482,25.482,0,0,1,18.96.84ZM70.2.84A25.121,25.121,0,0,1,58.23-1.98a21.187,21.187,0,0,1-8.34-7.8A21.156,21.156,0,0,1,46.86-21a21.156,21.156,0,0,1,3.03-11.22,21.188,21.188,0,0,1,8.34-7.8A25.121,25.121,0,0,1,70.2-42.84a25.121,25.121,0,0,1,11.97,2.82,21.188,21.188,0,0,1,8.34,7.8A21.156,21.156,0,0,1,93.54-21,21.156,21.156,0,0,1,90.51-9.78a21.188,21.188,0,0,1-8.34,7.8A25.121,25.121,0,0,1,70.2.84ZM70.2-9a11.249,11.249,0,0,0,5.76-1.5,10.789,10.789,0,0,0,4.08-4.23A12.807,12.807,0,0,0,81.54-21a12.807,12.807,0,0,0-1.5-6.27,10.789,10.789,0,0,0-4.08-4.23A11.249,11.249,0,0,0,70.2-33a11.249,11.249,0,0,0-5.76,1.5,10.789,10.789,0,0,0-4.08,4.23A12.807,12.807,0,0,0,58.86-21a12.807,12.807,0,0,0,1.5,6.27,10.789,10.789,0,0,0,4.08,4.23A11.249,11.249,0,0,0,70.2-9ZM126.72.84a24.856,24.856,0,0,1-11.85-2.79,20.863,20.863,0,0,1-8.25-7.77,21.43,21.43,0,0,1-3-11.28,21.43,21.43,0,0,1,3-11.28,20.863,20.863,0,0,1,8.25-7.77,24.856,24.856,0,0,1,11.85-2.79A25.435,25.435,0,0,1,137.1-40.8a19.971,19.971,0,0,1,7.68,5.88l-7.56,6.84a12.435,12.435,0,0,0-9.9-4.92,12.218,12.218,0,0,0-6.09,1.5,10.411,10.411,0,0,0-4.14,4.23A13.018,13.018,0,0,0,115.62-21a13.018,13.018,0,0,0,1.47,6.27,10.411,10.411,0,0,0,4.14,4.23A12.218,12.218,0,0,0,127.32-9a12.435,12.435,0,0,0,9.9-4.92l7.56,6.84A19.971,19.971,0,0,1,137.1-1.2,25.435,25.435,0,0,1,126.72.84ZM156.06-42h11.88V0H156.06ZM210.54-8.16H192.78L189.48,0H177.36L195.9-42h11.7L226.2,0H213.84Zm-3.48-8.76-5.4-13.44-5.4,13.44ZM235.56-42h11.88V-9.42h20.04V0H235.56ZM339.54,0l-.12-22.26L328.62-4.14h-5.28L312.6-21.66V0H301.62V-42h9.78l14.76,24.24L340.56-42h9.78l.12,42Zm59.04-9.18V0H364.86V-42H397.8v9.18H376.62v7.08h18.66v8.88H376.62v7.68ZM411.18-42h19.86a27.8,27.8,0,0,1,12.24,2.58,19.433,19.433,0,0,1,8.28,7.32A20.626,20.626,0,0,1,454.5-21a20.626,20.626,0,0,1-2.94,11.1,19.433,19.433,0,0,1-8.28,7.32A27.8,27.8,0,0,1,431.04,0H411.18ZM430.56-9.48a12.176,12.176,0,0,0,8.67-3.06Q442.5-15.6,442.5-21t-3.27-8.46a12.176,12.176,0,0,0-8.67-3.06h-7.5V-9.48ZM466.74-42h11.88V0H466.74ZM521.22-8.16H503.46L500.16,0H488.04l18.54-42h11.7l18.6,42H524.52Zm-3.48-8.76-5.4-13.44-5.4,13.44Z" transform="translate(205 177)" fill="#f0e55d"/>
  <path id="路径_608" data-name="路径 608" d="M3.32-28H9.8V0H3.32Zm25.76,6.16a8.856,8.856,0,0,1,6.46,2.4Q38-17.04,38-12.32V0H31.76V-11.36a5.61,5.61,0,0,0-1.12-3.82,4.107,4.107,0,0,0-3.24-1.26,4.966,4.966,0,0,0-3.76,1.46,6.045,6.045,0,0,0-1.4,4.34V0H16V-21.52h5.96V-19a8.275,8.275,0,0,1,3.08-2.1A10.731,10.731,0,0,1,29.08-21.84ZM54.28.32A13.231,13.231,0,0,1,48.1-1.1a10.633,10.633,0,0,1-4.28-3.94,10.748,10.748,0,0,1-1.54-5.72,10.748,10.748,0,0,1,1.54-5.72,10.633,10.633,0,0,1,4.28-3.94,13.231,13.231,0,0,1,6.18-1.42,11.974,11.974,0,0,1,5.94,1.42,8.422,8.422,0,0,1,3.7,4.06l-4.84,2.6a5.29,5.29,0,0,0-4.84-2.96,5.476,5.476,0,0,0-4.04,1.6,5.891,5.891,0,0,0-1.6,4.36A5.891,5.891,0,0,0,50.2-6.4a5.476,5.476,0,0,0,4.04,1.6,5.236,5.236,0,0,0,4.84-2.96l4.84,2.64a8.591,8.591,0,0,1-3.7,4A11.841,11.841,0,0,1,54.28.32Zm23.2,0a12.9,12.9,0,0,1-6.1-1.42,10.556,10.556,0,0,1-4.22-3.94,10.856,10.856,0,0,1-1.52-5.72,10.856,10.856,0,0,1,1.52-5.72,10.556,10.556,0,0,1,4.22-3.94,12.9,12.9,0,0,1,6.1-1.42,12.785,12.785,0,0,1,6.08,1.42,10.589,10.589,0,0,1,4.2,3.94,10.856,10.856,0,0,1,1.52,5.72,10.856,10.856,0,0,1-1.52,5.72,10.589,10.589,0,0,1-4.2,3.94A12.785,12.785,0,0,1,77.48.32Zm0-5.12a5.2,5.2,0,0,0,3.94-1.62,6.039,6.039,0,0,0,1.54-4.34,6.039,6.039,0,0,0-1.54-4.34,5.2,5.2,0,0,0-3.94-1.62,5.262,5.262,0,0,0-3.96,1.62,5.993,5.993,0,0,0-1.56,4.34,5.993,5.993,0,0,0,1.56,4.34A5.262,5.262,0,0,0,77.48-4.8ZM121-21.84a8.675,8.675,0,0,1,6.42,2.38q2.38,2.38,2.38,7.14V0h-6.24V-11.36a5.83,5.83,0,0,0-1.06-3.82,3.727,3.727,0,0,0-3.02-1.26A4.45,4.45,0,0,0,116-15.02a6.12,6.12,0,0,0-1.28,4.22V0h-6.24V-11.36q0-5.08-4.08-5.08a4.4,4.4,0,0,0-3.44,1.42,6.12,6.12,0,0,0-1.28,4.22V0H93.44V-21.52H99.4v2.48a7.876,7.876,0,0,1,2.94-2.08,9.9,9.9,0,0,1,3.82-.72,9.252,9.252,0,0,1,4.12.9,7.3,7.3,0,0,1,2.96,2.62,8.827,8.827,0,0,1,3.34-2.6A10.537,10.537,0,0,1,121-21.84Zm35.72,11.16q0,.12-.12,1.68H140.32a5.07,5.07,0,0,0,2.08,3.16,6.889,6.889,0,0,0,4.08,1.16,8.262,8.262,0,0,0,2.98-.5,7.218,7.218,0,0,0,2.42-1.58l3.32,3.6Q152.16.32,146.32.32a14.047,14.047,0,0,1-6.44-1.42,10.41,10.41,0,0,1-4.32-3.94,10.856,10.856,0,0,1-1.52-5.72,11,11,0,0,1,1.5-5.7,10.509,10.509,0,0,1,4.12-3.96,12.1,12.1,0,0,1,5.86-1.42,12,12,0,0,1,5.72,1.36,9.927,9.927,0,0,1,4.02,3.9A11.629,11.629,0,0,1,156.72-10.68Zm-11.16-6.44a5.374,5.374,0,0,0-3.56,1.2,5.108,5.108,0,0,0-1.76,3.28h10.6a5.159,5.159,0,0,0-1.76-3.26A5.261,5.261,0,0,0,145.56-17.12Z" transform="translate(1570 297)" fill="#fff"/>
  <path id="路径_607" data-name="路径 607" d="M15.44-28a15.555,15.555,0,0,1,6.46,1.24,9.6,9.6,0,0,1,4.22,3.52,9.7,9.7,0,0,1,1.48,5.4,9.723,9.723,0,0,1-1.48,5.38A9.426,9.426,0,0,1,21.9-8.94a15.776,15.776,0,0,1-6.46,1.22H9.8V0H3.32V-28Zm-.36,15a6.805,6.805,0,0,0,4.44-1.26,4.389,4.389,0,0,0,1.52-3.58,4.435,4.435,0,0,0-1.52-3.62,6.805,6.805,0,0,0-4.44-1.26H9.8V-13Zm30.16-8.84a8.856,8.856,0,0,1,6.46,2.4q2.46,2.4,2.46,7.12V0H47.92V-11.36a5.61,5.61,0,0,0-1.12-3.82,4.107,4.107,0,0,0-3.24-1.26,4.966,4.966,0,0,0-3.76,1.46,6.045,6.045,0,0,0-1.4,4.34V0H32.16V-29.68H38.4v10.4a8.3,8.3,0,0,1,3-1.9A10.853,10.853,0,0,1,45.24-21.84ZM70.28.32a12.9,12.9,0,0,1-6.1-1.42,10.556,10.556,0,0,1-4.22-3.94,10.856,10.856,0,0,1-1.52-5.72,10.856,10.856,0,0,1,1.52-5.72,10.556,10.556,0,0,1,4.22-3.94,12.9,12.9,0,0,1,6.1-1.42,12.785,12.785,0,0,1,6.08,1.42,10.589,10.589,0,0,1,4.2,3.94,10.856,10.856,0,0,1,1.52,5.72,10.856,10.856,0,0,1-1.52,5.72,10.589,10.589,0,0,1-4.2,3.94A12.785,12.785,0,0,1,70.28.32Zm0-5.12a5.2,5.2,0,0,0,3.94-1.62,6.039,6.039,0,0,0,1.54-4.34,6.039,6.039,0,0,0-1.54-4.34,5.2,5.2,0,0,0-3.94-1.62,5.262,5.262,0,0,0-3.96,1.62,5.993,5.993,0,0,0-1.56,4.34,5.993,5.993,0,0,0,1.56,4.34A5.262,5.262,0,0,0,70.28-4.8Zm29.84,3.76A6.414,6.414,0,0,1,97.86-.02a11.426,11.426,0,0,1-2.82.34A8.378,8.378,0,0,1,89.1-1.64,7.5,7.5,0,0,1,87-7.4v-8.84H83.68v-4.8H87v-5.24h6.24v5.24H98.6v4.8H93.24v8.76a2.938,2.938,0,0,0,.7,2.1,2.594,2.594,0,0,0,1.98.74,4.01,4.01,0,0,0,2.52-.8ZM113.2.32a12.9,12.9,0,0,1-6.1-1.42,10.556,10.556,0,0,1-4.22-3.94,10.856,10.856,0,0,1-1.52-5.72,10.856,10.856,0,0,1,1.52-5.72,10.556,10.556,0,0,1,4.22-3.94,12.9,12.9,0,0,1,6.1-1.42,12.785,12.785,0,0,1,6.08,1.42,10.589,10.589,0,0,1,4.2,3.94A10.856,10.856,0,0,1,125-10.76a10.856,10.856,0,0,1-1.52,5.72,10.589,10.589,0,0,1-4.2,3.94A12.785,12.785,0,0,1,113.2.32Zm0-5.12a5.2,5.2,0,0,0,3.94-1.62,6.039,6.039,0,0,0,1.54-4.34,6.039,6.039,0,0,0-1.54-4.34,5.2,5.2,0,0,0-3.94-1.62,5.262,5.262,0,0,0-3.96,1.62,5.993,5.993,0,0,0-1.56,4.34,5.993,5.993,0,0,0,1.56,4.34A5.262,5.262,0,0,0,113.2-4.8ZM136.4.32a20.9,20.9,0,0,1-5.24-.66A13.69,13.69,0,0,1,127.08-2l2.08-4.48a13.091,13.091,0,0,0,3.48,1.5,14.585,14.585,0,0,0,4,.58q3.96,0,3.96-1.96a1.387,1.387,0,0,0-1.08-1.32,16,16,0,0,0-3.32-.68,32.028,32.028,0,0,1-4.36-.92,6.764,6.764,0,0,1-2.98-1.84,5.232,5.232,0,0,1-1.26-3.76,5.89,5.89,0,0,1,1.18-3.62,7.594,7.594,0,0,1,3.44-2.46,14.692,14.692,0,0,1,5.34-.88,20.958,20.958,0,0,1,4.54.5,12.69,12.69,0,0,1,3.74,1.38l-2.08,4.44a12.417,12.417,0,0,0-6.2-1.6,6.308,6.308,0,0,0-3,.56,1.646,1.646,0,0,0-1,1.44,1.43,1.43,0,0,0,1.08,1.4,19.119,19.119,0,0,0,3.44.76,36.824,36.824,0,0,1,4.32.94,6.49,6.49,0,0,1,2.92,1.82,5.164,5.164,0,0,1,1.24,3.68,5.683,5.683,0,0,1-1.2,3.56,7.66,7.66,0,0,1-3.5,2.42A15.593,15.593,0,0,1,136.4.32Z" transform="translate(1216 297)" fill="#fff"/>
</svg>
