<svg xmlns="http://www.w3.org/2000/svg" width="1920" height="1080" viewBox="0 0 1920 1080">
  <g id="组_199" data-name="组 199" transform="translate(0 0)">
    <g id="组_134" data-name="组 134" transform="translate(-5034.976 3095.891)">
      <g id="组_120" data-name="组 120">
        <rect id="矩形_121" data-name="矩形 121" width="1920" height="1080" transform="translate(5034.976 -3095.891)" fill="#3b8cf0"/>
        <path id="路径_444" data-name="路径 444" d="M5034.976-3092.4v1076.51h1104.7C6081.033-2592.282,5615.563-3048.355,5034.976-3092.4Z" fill="#56b4f6"/>
      </g>
      <g id="组_121" data-name="组 121">
        <path id="路径_445" data-name="路径 445" d="M5573.039-2231.2H6808.958l-212.024-37.64H5751.849Z" fill="#2166ea"/>
        <path id="路径_446" data-name="路径 446" d="M5594.242-2334.559l-21.2,103.361h17.227l68.908-100.382Z" fill="#013dba"/>
        <path id="路径_447" data-name="路径 447" d="M6512.1-2334.559l21.2,103.361h-17.227l-68.908-100.382Z" fill="#013dba"/>
        <path id="路径_448" data-name="路径 448" d="M5773.052-2367.587l-21.2,103.361h17.227l68.908-100.382Z" fill="#013dba"/>
        <path id="矩形_122" data-name="矩形 122" d="M57.644,0H157.929a0,0,0,0,1,0,0V246.1a0,0,0,0,1,0,0H53.511A53.511,53.511,0,0,1,0,192.586V57.644A57.644,57.644,0,0,1,57.644,0Z" transform="translate(5501.246 -2556.584)" fill="#fd7d9c"/>
        <rect id="矩形_123" data-name="矩形 123" width="1068.074" height="245.403" rx="47.041" transform="translate(5554.542 -2555.891)" fill="#d74465"/>
        <path id="矩形_124" data-name="矩形 124" d="M65.926,0H821.418a71.533,71.533,0,0,1,71.533,71.533V234.979a0,0,0,0,1,0,0H0a0,0,0,0,1,0,0V65.926A65.926,65.926,0,0,1,65.926,0Z" transform="translate(5676.659 -2726.626)" fill="#fd7d9c"/>
        <path id="矩形_125" data-name="矩形 125" d="M65.926,0h944.581a0,0,0,0,1,0,0V84.166a0,0,0,0,1,0,0H0a0,0,0,0,1,0,0V65.926A65.926,65.926,0,0,1,65.926,0Z" transform="translate(5559.103 -2487.601)" fill="#fd7d9c"/>
        <path id="矩形_126" data-name="矩形 126" d="M57.644,0h53.669a0,0,0,0,1,0,0V199.056a0,0,0,0,1,0,0H0a0,0,0,0,1,0,0V57.644A57.644,57.644,0,0,1,57.644,0Z" transform="translate(6511.303 -2556.584)" fill="#d74465"/>
      </g>
      <path id="路径_449" data-name="路径 449" d="M5877.106-2305.726l61.338,17.207-23.595,69.114s-6.28,18.393-15.184,13.486-11.394-21.315-11.394-21.315-14.643-35.493-16.451-42.956S5877.106-2305.726,5877.106-2305.726Z" fill="#f0e55d"/>
      <path id="路径_450" data-name="路径 450" d="M6123.474-2778.417s170.333,1.08,189.553,50.553v8.814H6123.474Z" fill="#fdfbd6"/>
      <path id="路径_451" data-name="路径 451" d="M5900.55-2495.3,5866.1-2300.064l71.558,13.252,85.693-193.472s46.822-77.918,0-117.585h-75.092Z" fill="#02399b"/>
      <path id="路径_452" data-name="路径 452" d="M6024.829-2599.869l-249.234.592v112.859l249.234-7.288Z" fill="#0b3582"/>
      <path id="路径_453" data-name="路径 453" d="M5794.23-2698.862l-30.037,53.889,4.417,21.2,69.791,20.319,19.6-16.785.525-26.809-8.635-31.173Z" fill="#fdfbd5"/>
      <path id="路径_454" data-name="路径 454" d="M5926.069-2856.251c0,5.482.109,9.925-3.054,9.925s-8.4-4.443-8.4-9.925.764-9.925,5.728-9.925C5923.5-2866.176,5926.069-2861.732,5926.069-2856.251Z" fill="#f5c59f"/>
      <path id="路径_455" data-name="路径 455" d="M5990.866-2855.18c0,5.112-.1,9.256,2.849,9.256s7.834-4.144,7.834-9.256-.712-9.256-5.342-9.256C5993.258-2864.436,5990.866-2860.292,5990.866-2855.18Z" fill="#f5c59f"/>
      <path id="路径_456" data-name="路径 456" d="M5927.819-2835.36l-3.336,69.687,61.721,2.78-3.336-78.958Z" fill="#fdfbd7"/>
      <path id="路径_457" data-name="路径 457" d="M5937.222-2814.028l48.326,35.612-1.772-41.876Z" fill="#f5c59f"/>
      <path id="路径_458" data-name="路径 458" d="M5993.535-2824.961c0,8.343-9.42,17.763-17.762,17.763l-12.681-.139c-26.567,0-36.484-23.555-37.515-31.745l-1.094-45.843c0-13.358,10.515-23.489,23.874-23.489l47.85,22.744Z" fill="#fdfbd7"/>
      <path id="路径_459" data-name="路径 459" d="M5934.848-2889.639c-1.727,2.508-6.413,10.818-6.413,27.148,0,20.018,7.784,29.1,20.944,29.1s15.94-3.522,19.832-3.522,12.233,5.005,15.755,5.005,9.074-4.513,9.074-4.513l-.6,13.408s-3.12,15.509-18.488,15.815c-17.234.343-4.078,0-17.237,0-16.45,0-34.475-10.253-34.475-45.469,0-12.765-.055-21.061,0-26.7h0c-3.326-29.289,24.282-29.052,24.282-29.052s10.051-.717,17.852-.717,16.809.717,16.809.717,21.129,3.893,21.129,19.277-13.345,18.905-13.345,18.905h-12.6c-12.6,0-35.272-17.763-37.254-19.276C5936.682-2892.122,5934.848-2889.639,5934.848-2889.639Z" fill="#02399b"/>
      <path id="路径_460" data-name="路径 460" d="M5968.245-2866.012v25.022H5962.5" fill="#f5c59f"/>
      <rect id="矩形_127" data-name="矩形 127" width="0.741" height="25.022" transform="translate(5967.959 -2866.012)" fill="#02399b"/>
      <path id="路径_461" data-name="路径 461" d="M5936.423-2866.247s14.21-4.943,19.276-2.966,1.73,4.2,1.73,4.2-5.807,4.449-17.3,1.854C5940.13-2863.158,5934.34-2865.573,5936.423-2866.247Z" fill="#02399b"/>
      <path id="路径_462" data-name="路径 462" d="M5995.669-2867.032s-10.78-4.079-15.663-1.686-1.374,4.331-1.374,4.331,9.875,2.745,14.844,2.051C5997.2-2862.856,5996.582-2866.818,5995.669-2867.032Z" fill="#02399b"/>
      <ellipse id="椭圆_144" data-name="椭圆 144" cx="2.595" cy="3.583" rx="2.595" ry="3.583" transform="translate(5948.505 -2859.834)" fill="#02399b"/>
      <ellipse id="椭圆_145" data-name="椭圆 145" cx="2.595" cy="3.583" rx="2.595" ry="3.583" transform="translate(5982.375 -2858.763)" fill="#02399b"/>
      <g id="组_122" data-name="组 122">
        <path id="路径_463" data-name="路径 463" d="M5966.78-2825.54c-4.665,0-7.023-1.464-8.2-2.785a1.505,1.505,0,0,1,.8-2.463l1.346-.309a.372.372,0,0,0-.017-.066c.009.026.943,2.663,7.53,2.215a1.678,1.678,0,0,1,1.792,1.716,1.729,1.729,0,0,1-1.645,1.638C5967.821-2825.557,5967.286-2825.54,5966.78-2825.54Z" fill="#fff"/>
      </g>
      <path id="路径_464" data-name="路径 464" d="M5856.044-2778.5h267.43v74.252l-56.3,2.1-43.985,103.986L5871-2603.679l-21.113-74.539-56.3-18.876S5825.254-2778.5,5856.044-2778.5Z" fill="#f0e55d"/>
      <path id="路径_465" data-name="路径 465" d="M5924.54-2801.486s23.1,19.464,61.6,7.272l2.566,34.223-32.083-14.545-35.078,14.545Z" fill="#fdc254"/>
      <path id="路径_466" data-name="路径 466" d="M5805.295-2662.947" fill="#f8f5d5"/>
      <path id="路径_467" data-name="路径 467" d="M6101.1-2778.417l22.376-.087v74.252l-22.376.835Z" fill="#fdc254"/>
      <path id="路径_468" data-name="路径 468" d="M5849.886-2678.218l-4.69-19.625-45.24-14.038-6.372,14.787Z" fill="#fdc254"/>
      <circle id="椭圆_146" data-name="椭圆 146" cx="56.429" cy="56.429" r="56.429" transform="translate(5719.165 -2599.573)" fill="#0543c0"/>
      <path id="路径_469" data-name="路径 469" d="M5775.594-2599.573l250.123,38.429-5.3,68.025-244.822,6.4Z" fill="#0543c0"/>
      <path id="路径_470" data-name="路径 470" d="M6025.007-2556.493l-3.534,63.607H6094.5s19.436,0,17.669-10.012-16.491-17.669-16.491-17.669-28.859-25.325-35.338-29.448S6025.007-2556.493,6025.007-2556.493Z" fill="#f0e55d"/>
      <g id="组_123" data-name="组 123">
        <path id="路径_471" data-name="路径 471" d="M6361.347-2498.913c-.588-1.767,26.5-21.2,40.05-45.35s13.546-44.761,17.668-46.528,17.669,5.89,9.424,40.638S6361.347-2498.913,6361.347-2498.913Z" fill="#fdc254"/>
        <path id="路径_472" data-name="路径 472" d="M6238.55-2738.177s3.534-21.592,7.509-20.956,8.834,13.447,9.276,20.956S6238.55-2738.177,6238.55-2738.177Z" fill="#efba54"/>
        <path id="路径_473" data-name="路径 473" d="M6196.439-2735.232s-7.95,27.828,12.369,32.245,17.668,8.834,16.785,18.552-20.319,42.111-18.552,65.08,10.6,61.84,10.6,115.435c0,0-15.9,1.178-15.9,14.135h24.468l10.87-15.312,7.067-31.8L6273-2519.232l11.19,8.245s-18.847,4.712-18.847,21.2h81.865c32.982,0,38.283-43.582,15.313-77.742s-70.674-38.871-80.687-98.356-14.135-76.939-20.024-93.644-16.491,18.847-16.491,18.847-16.491-2.945-26.5,7.067Z" fill="#f0e55d"/>
        <path id="路径_474" data-name="路径 474" d="M6196.439-2735.232a41.228,41.228,0,0,0-1.53,12.156c.055,1.174,13.208-11.311,13.208-11.311Z" fill="#efba54"/>
        <path id="路径_475" data-name="路径 475" d="M6218.125-2663.83l61.46-15.3,2.252,13.249-68.964,15.587Z" fill="#56b4f6"/>
        <rect id="矩形_128" data-name="矩形 128" width="7.547" height="15.08" transform="translate(6210.396 -2663.67) rotate(-9.78)" fill="#cc4665"/>
      </g>
      <g id="组_124" data-name="组 124">
        <ellipse id="椭圆_147" data-name="椭圆 147" cx="304.938" cy="24.086" rx="304.938" ry="24.086" transform="translate(5766.686 -2168.058)" fill="#2166ea"/>
        <path id="路径_476" data-name="路径 476" d="M5832.837-2293.506l-77.165,151.068h14.333l113.2-135.043Z" fill="#013dba"/>
        <path id="路径_477" data-name="路径 477" d="M6158.463-2293.506l77.165,151.068h-14.333l-113.2-135.043Z" fill="#013dba"/>
        <ellipse id="椭圆_148" data-name="椭圆 148" cx="262.759" cy="41.649" rx="262.759" ry="41.649" transform="translate(5742.463 -2353.375)" fill="#cc4465"/>
        <ellipse id="椭圆_149" data-name="椭圆 149" cx="262.759" cy="41.649" rx="262.759" ry="41.649" transform="translate(5742.463 -2370.424)" fill="#fdfbd7"/>
      </g>
      <g id="组_126" data-name="组 126">
        <ellipse id="椭圆_150" data-name="椭圆 150" cx="47.84" cy="3.222" rx="47.84" ry="3.222" transform="translate(6131.929 -2331.238)" fill="#f3ceb8"/>
        <g id="组_125" data-name="组 125">
          <rect id="矩形_129" data-name="矩形 129" width="2.429" height="55.215" transform="translate(6130.086 -2476.099) rotate(-14.751)" fill="#1e63e6"/>
          <circle id="椭圆_151" data-name="椭圆 151" cx="11.706" cy="11.706" r="11.706" transform="translate(6116.817 -2497.67)" fill="#56b4f6"/>
          <path id="路径_478" data-name="路径 478" d="M6111.44-2459.77l19.831,9.4s-8.547,4.839-13.741.725S6113.955-2454.266,6111.44-2459.77Z" fill="#1e63e6"/>
          <rect id="矩形_130" data-name="矩形 130" width="2.429" height="92.141" transform="translate(6162.21 -2416.621) rotate(-173.477)" fill="#1e63e6"/>
          <circle id="椭圆_152" data-name="椭圆 152" cx="11.706" cy="11.706" r="11.706" transform="translate(6161.107 -2529.859)" fill="#56b4f6"/>
          <path id="路径_479" data-name="路径 479" d="M6190.766-2498.244l-18.283,12.136s9.151,3.566,13.7-1.249S6189.064-2492.437,6190.766-2498.244Z" fill="#1e63e6"/>
          <rect id="矩形_131" data-name="矩形 131" width="2.429" height="55.215" transform="translate(6153.393 -2411.279) rotate(-179.611)" fill="#1e63e6"/>
          <circle id="椭圆_153" data-name="椭圆 153" cx="10.616" cy="10.616" r="10.616" transform="translate(6143.309 -2485.965)" fill="#56b4f6"/>
          <path id="路径_480" data-name="路径 480" d="M6172.813-2458.561l-16.881,14.021s9.479,2.568,13.491-2.706S6171.742-2452.6,6172.813-2458.561Z" fill="#1e63e6"/>
        </g>
        <path id="路径_481" data-name="路径 481" d="M6117.587-2434.276l10.79,28.27s-56.54,79.509,20.319,79.509,23.959-79.772,23.959-79.772l10.5-28.007Z" fill="#56b4f6"/>
        <ellipse id="椭圆_154" data-name="椭圆 154" cx="32.781" cy="4.196" rx="32.781" ry="4.196" transform="translate(6117.587 -2438.389)" fill="#1e63e6"/>
      </g>
      <g id="组_127" data-name="组 127">
        <path id="路径_482" data-name="路径 482" d="M5874.15-2351.744l-41.854,19.053s27.308,3.247,38.216,12.518l37.819-20.757S5900.57-2350.29,5874.15-2351.744Z" fill="#61a7d6"/>
        <path id="路径_483" data-name="路径 483" d="M5909.613-2340.7l-39.1,20.528s33.656,7.58,45.346,14.931l33.4-20.362S5936.032-2339.248,5909.613-2340.7Z" fill="#61a7d6"/>
        <path id="路径_484" data-name="路径 484" d="M5909.812-2341.494l-39.3,21.321s37.336,4.2,45.546,14.138L5948.3-2327.7S5936.232-2340.041,5909.812-2341.494Z" fill="#f0e55d"/>
        <path id="路径_485" data-name="路径 485" d="M5875.632-2352.308l-43.608,18.337s30.279,3.856,38.488,13.8l39.3-21.321S5902.051-2350.855,5875.632-2352.308Z" fill="#efb951"/>
      </g>
      <g id="组_128" data-name="组 128">
        <ellipse id="椭圆_155" data-name="椭圆 155" cx="128.686" cy="11.381" rx="128.686" ry="11.381" transform="translate(6446.437 -2159.825)" fill="#2166ea"/>
        <path id="路径_486" data-name="路径 486" d="M6449.548-2187.465s-16.785,11.043-8.392,21.2c8.345,10.1,46.917,27.981,191.532,16.023a1.853,1.853,0,0,0,1.577-2.512l-4.054-10.419s5.742-30.92-5.742-52.123c0,0-16.786-5.3-26.062,13.252s-32.687-5.932-32.687-5.932,9.718-5.553-5.742-21.454c0,0-34.9,21.644-56.1,26.5S6449.548-2187.465,6449.548-2187.465Z" fill="#f0e55d"/>
        <path id="路径_487" data-name="路径 487" d="M6631.186-2162.373l-75.092,2.65s-36.22,6.184-37.546,5.743-29.595,1.325-77.742-11.485c0,0,17.093,38.569,192.291,15.3a1.721,1.721,0,0,0,1.408-2.246Z" fill="#043699"/>
        <path id="路径_488" data-name="路径 488" d="M6508.26-2191.379l20.025,25.914,10.344-3.534-8.577-9.423,16.877,4.712,12.57-4.712-20.871-25.325-10.933,3.534,10.933,12.957-19.178-8.245Z" fill="#2166ea"/>
        <path id="路径_489" data-name="路径 489" d="M6558.886-2158.981s-3.69-20.76,70.96-41.079l1.04,4.417s4.859,24.294,0,33.57Z" fill="#013dba"/>
        <path id="路径_490" data-name="路径 490" d="M6441.91-2165.465s55.878,14.908,74.871,11.485c0,0,95.66,2.76,116.172-2.209l1.1,2.973s-2.964,4.094-44.043,3.984S6460.9-2142.827,6441.91-2165.465Z" fill="#fdfbd7"/>
      </g>
      <g id="组_129" data-name="组 129">
        <rect id="矩形_132" data-name="矩形 132" width="69.61" height="34.805" rx="5.346" transform="translate(5965.871 -2612.6) rotate(-78.95)" fill="#56b4f6"/>
        <circle id="椭圆_156" data-name="椭圆 156" cx="2.218" cy="2.218" r="2.218" transform="translate(5981.156 -2676.849)" fill="#043699"/>
        <path id="路径_491" data-name="路径 491" d="M5991.394-2647.307a5.935,5.935,0,0,0-2.636-1,3.068,3.068,0,0,0-2.749,1.492c-.852,1.148-1.974,6.014,1.309,8.513,0,0,0,.143.606.118s.933-.389,1.869-.207,1.472.8,2.187.942,2.088-.45,3.534-2.881c0,0-3.2-3.054.663-5.3a4.115,4.115,0,0,0-1.767-1.631c-1.041-.375-2.4.117-2.862.027Z" fill="#043699"/>
        <path id="路径_492" data-name="路径 492" d="M5991.809-2647.914a3.187,3.187,0,0,1,3.167-2.61S5994.415-2647.5,5991.809-2647.914Z" fill="#043699"/>
      </g>
      <g id="组_132" data-name="组 132">
        <ellipse id="椭圆_157" data-name="椭圆 157" cx="29.462" cy="5.097" rx="29.462" ry="5.097" transform="translate(6013.452 -2327.375)" fill="#2a5ea3"/>
        <g id="组_131" data-name="组 131">
          <g id="组_130" data-name="组 130">
            <path id="路径_493" data-name="路径 493" d="M6007.2-2373.609l5.624,50.473,35.226.507,10.961-49.976" fill="#57b5fa"/>
            <ellipse id="椭圆_158" data-name="椭圆 158" cx="4.765" cy="25.91" rx="4.765" ry="25.91" transform="translate(6007.127 -2368.585) rotate(-89.176)" fill="#57b5fa"/>
            <ellipse id="椭圆_159" data-name="椭圆 159" cx="4.765" cy="17.615" rx="4.765" ry="17.615" transform="matrix(0.014, -1, 1, 0.014, 6012.757, -2318.579)" fill="#57b5fa"/>
            <ellipse id="椭圆_160" data-name="椭圆 160" cx="3.297" cy="23.262" rx="3.297" ry="23.262" transform="translate(6009.782 -2369.088) rotate(-89.176)" fill="#1e63e6"/>
          </g>
          <path id="路径_494" data-name="路径 494" d="M6052.969-2363.276a16.407,16.407,0,0,0-16.407,16.407,16.407,16.407,0,0,0,16.407,16.406,16.406,16.406,0,0,0,16.406-16.406A16.406,16.406,0,0,0,6052.969-2363.276Zm0,27.537a11.13,11.13,0,0,1-11.131-11.13A11.13,11.13,0,0,1,6052.969-2358a11.13,11.13,0,0,1,11.13,11.131A11.13,11.13,0,0,1,6052.969-2335.739Z" fill="#57b5fa"/>
        </g>
      </g>
      <g id="组_133" data-name="组 133">
        <path id="路径_495" data-name="路径 495" d="M5802.581-2664.383l107.338,25.178s20.76,4.859,48.589-1.767,26.834-5.521,27.5-4.417-21.092,14.687-21.092,14.687,12.92,4.307,25.4,3.313,19.657-1.911,19.767.149-.773,4.71-5.08,7.36c0,0,2.54.884,1.878,3.313s-4.749,5.411-4.749,5.411a2.562,2.562,0,0,1,2.1,2.54c-.11,2.1-7.177,6.847-7.177,6.847s4.012,1.435,1.509,3.5-8.982,5.006-8.982,5.006H5791.1Z" fill="#fdfbd6"/>
        <circle id="椭圆_161" data-name="椭圆 161" cx="36.11" cy="36.11" r="36.11" transform="translate(5760.217 -2664.935)" fill="#fdfbd6"/>
      </g>
    </g>
    <path id="路径_601" data-name="路径 601" d="M18.96.84A38.829,38.829,0,0,1,9.06-.42a24.35,24.35,0,0,1-7.8-3.36l3.9-8.76a25.236,25.236,0,0,0,6.54,3A24.9,24.9,0,0,0,19.02-8.4q6.84,0,6.84-3.42a2.832,2.832,0,0,0-1.95-2.67,35.861,35.861,0,0,0-6.27-1.83,59.844,59.844,0,0,1-7.92-2.19,13.331,13.331,0,0,1-5.46-3.75,10.133,10.133,0,0,1-2.28-6.96,12.049,12.049,0,0,1,2.1-6.93,14.053,14.053,0,0,1,6.27-4.89,25.808,25.808,0,0,1,10.23-1.8,36.087,36.087,0,0,1,8.16.93,24.989,24.989,0,0,1,7.08,2.73l-3.66,8.82A24.451,24.451,0,0,0,20.52-33.6a9.758,9.758,0,0,0-5.16,1.05,3.148,3.148,0,0,0-1.62,2.73,2.707,2.707,0,0,0,1.92,2.52,34.715,34.715,0,0,0,6.18,1.74,57.894,57.894,0,0,1,7.95,2.19,13.728,13.728,0,0,1,5.46,3.72,9.935,9.935,0,0,1,2.31,6.93,11.814,11.814,0,0,1-2.1,6.84,14.315,14.315,0,0,1-6.3,4.89A25.482,25.482,0,0,1,18.96.84ZM82.74-9.18V0H49.02V-42H81.96v9.18H60.78v7.08H79.44v8.88H60.78v7.68Zm40.74,1.02H105.72L102.42,0H90.3l18.54-42h11.7l18.6,42H126.78ZM120-16.92l-5.4-13.44-5.4,13.44Zm46.86,5.76h-6.48V0H148.5V-42h19.2a23.955,23.955,0,0,1,9.9,1.89,14.681,14.681,0,0,1,6.48,5.4,14.805,14.805,0,0,1,2.28,8.25,14.628,14.628,0,0,1-2.13,7.95,14.407,14.407,0,0,1-6.09,5.31L187.2,0H174.48Zm7.5-15.3a5.724,5.724,0,0,0-1.86-4.56,8.193,8.193,0,0,0-5.52-1.62h-6.6v12.3h6.6a8.3,8.3,0,0,0,5.52-1.59A5.633,5.633,0,0,0,174.36-26.46ZM219.84.84a24.856,24.856,0,0,1-11.85-2.79,20.863,20.863,0,0,1-8.25-7.77,21.43,21.43,0,0,1-3-11.28,21.43,21.43,0,0,1,3-11.28,20.863,20.863,0,0,1,8.25-7.77,24.856,24.856,0,0,1,11.85-2.79,25.435,25.435,0,0,1,10.38,2.04,19.971,19.971,0,0,1,7.68,5.88l-7.56,6.84a12.435,12.435,0,0,0-9.9-4.92,12.218,12.218,0,0,0-6.09,1.5,10.411,10.411,0,0,0-4.14,4.23A13.018,13.018,0,0,0,208.74-21a13.018,13.018,0,0,0,1.47,6.27,10.411,10.411,0,0,0,4.14,4.23A12.218,12.218,0,0,0,220.44-9a12.435,12.435,0,0,0,9.9-4.92l7.56,6.84a19.971,19.971,0,0,1-7.68,5.88A25.435,25.435,0,0,1,219.84.84ZM289.14-42V0H277.26V-16.38h-16.2V0H249.18V-42h11.88v15.78h16.2V-42Zm77.82,0V0H355.08V-16.38h-16.2V0H327V-42h11.88v15.78h16.2V-42Zm14.4,0h11.88V0H381.36ZM422.46.84a38.829,38.829,0,0,1-9.9-1.26,24.35,24.35,0,0,1-7.8-3.36l3.9-8.76a25.236,25.236,0,0,0,6.54,3,24.9,24.9,0,0,0,7.32,1.14q6.84,0,6.84-3.42a2.832,2.832,0,0,0-1.95-2.67,35.861,35.861,0,0,0-6.27-1.83,59.844,59.844,0,0,1-7.92-2.19,13.33,13.33,0,0,1-5.46-3.75,10.133,10.133,0,0,1-2.28-6.96,12.049,12.049,0,0,1,2.1-6.93,14.053,14.053,0,0,1,6.27-4.89,25.808,25.808,0,0,1,10.23-1.8,36.087,36.087,0,0,1,8.16.93,24.989,24.989,0,0,1,7.08,2.73l-3.66,8.82a24.451,24.451,0,0,0-11.64-3.24,9.758,9.758,0,0,0-5.16,1.05,3.148,3.148,0,0,0-1.62,2.73,2.707,2.707,0,0,0,1.92,2.52,34.715,34.715,0,0,0,6.18,1.74,57.894,57.894,0,0,1,7.95,2.19,13.728,13.728,0,0,1,5.46,3.72,9.935,9.935,0,0,1,2.31,6.93,11.814,11.814,0,0,1-2.1,6.84,14.314,14.314,0,0,1-6.3,4.89A25.482,25.482,0,0,1,422.46.84Zm38.4-33.42h-12.9V-42h37.62v9.42H472.74V0H460.86ZM516.6.84a25.121,25.121,0,0,1-11.97-2.82,21.187,21.187,0,0,1-8.34-7.8A21.156,21.156,0,0,1,493.26-21a21.156,21.156,0,0,1,3.03-11.22,21.187,21.187,0,0,1,8.34-7.8,25.121,25.121,0,0,1,11.97-2.82,25.12,25.12,0,0,1,11.97,2.82,21.188,21.188,0,0,1,8.34,7.8A21.157,21.157,0,0,1,539.94-21a21.157,21.157,0,0,1-3.03,11.22,21.188,21.188,0,0,1-8.34,7.8A25.12,25.12,0,0,1,516.6.84Zm0-9.84a11.249,11.249,0,0,0,5.76-1.5,10.789,10.789,0,0,0,4.08-4.23,12.807,12.807,0,0,0,1.5-6.27,12.807,12.807,0,0,0-1.5-6.27,10.79,10.79,0,0,0-4.08-4.23A11.249,11.249,0,0,0,516.6-33a11.249,11.249,0,0,0-5.76,1.5,10.789,10.789,0,0,0-4.08,4.23,12.807,12.807,0,0,0-1.5,6.27,12.807,12.807,0,0,0,1.5,6.27,10.789,10.789,0,0,0,4.08,4.23A11.249,11.249,0,0,0,516.6-9Zm53.94-2.16h-6.48V0H552.18V-42h19.2a23.954,23.954,0,0,1,9.9,1.89,14.682,14.682,0,0,1,6.48,5.4,14.806,14.806,0,0,1,2.28,8.25,14.628,14.628,0,0,1-2.13,7.95,14.407,14.407,0,0,1-6.09,5.31L590.88,0H578.16Zm7.5-15.3a5.724,5.724,0,0,0-1.86-4.56,8.194,8.194,0,0,0-5.52-1.62h-6.6v12.3h6.6a8.3,8.3,0,0,0,5.52-1.59A5.633,5.633,0,0,0,578.04-26.46Zm46.44,11.4V0H612.6V-15.24L596.58-42h12.54l9.96,16.68L629.04-42h11.52Z" transform="translate(205 177)" fill="#f0e55d"/>
    <path id="路径_605" data-name="路径 605" d="M3.32-28H16.04a17.877,17.877,0,0,1,8.06,1.74,13.028,13.028,0,0,1,5.44,4.9A13.782,13.782,0,0,1,31.48-14a13.782,13.782,0,0,1-1.94,7.36,13.028,13.028,0,0,1-5.44,4.9A17.877,17.877,0,0,1,16.04,0H3.32ZM15.72-5.32a9.41,9.41,0,0,0,6.7-2.34A8.265,8.265,0,0,0,24.92-14a8.265,8.265,0,0,0-2.5-6.34,9.41,9.41,0,0,0-6.7-2.34H9.8V-5.32ZM46.16.32a12.9,12.9,0,0,1-6.1-1.42,10.556,10.556,0,0,1-4.22-3.94,10.856,10.856,0,0,1-1.52-5.72,10.856,10.856,0,0,1,1.52-5.72,10.556,10.556,0,0,1,4.22-3.94,12.9,12.9,0,0,1,6.1-1.42,12.785,12.785,0,0,1,6.08,1.42,10.589,10.589,0,0,1,4.2,3.94,10.856,10.856,0,0,1,1.52,5.72,10.856,10.856,0,0,1-1.52,5.72,10.589,10.589,0,0,1-4.2,3.94A12.785,12.785,0,0,1,46.16.32Zm0-5.12A5.2,5.2,0,0,0,50.1-6.42a6.039,6.039,0,0,0,1.54-4.34A6.039,6.039,0,0,0,50.1-15.1a5.2,5.2,0,0,0-3.94-1.62A5.262,5.262,0,0,0,42.2-15.1a5.993,5.993,0,0,0-1.56,4.34A5.993,5.993,0,0,0,42.2-6.42,5.262,5.262,0,0,0,46.16-4.8ZM84.32-21.52V-3.6q0,5.92-3.08,8.8t-9,2.88a22.509,22.509,0,0,1-5.92-.76,12.943,12.943,0,0,1-4.64-2.2L64.16.64A10.206,10.206,0,0,0,67.6,2.42a13.688,13.688,0,0,0,4.16.66,6.747,6.747,0,0,0,4.78-1.46A5.819,5.819,0,0,0,78.08-2.8v-.92a8.731,8.731,0,0,1-6.8,2.68,11.419,11.419,0,0,1-5.42-1.3A9.907,9.907,0,0,1,61.96-6a10.234,10.234,0,0,1-1.44-5.44,10.234,10.234,0,0,1,1.44-5.44,9.907,9.907,0,0,1,3.9-3.66,11.419,11.419,0,0,1,5.42-1.3,8.541,8.541,0,0,1,7.12,3.08v-2.76ZM72.52-6.16a5.747,5.747,0,0,0,4.06-1.46,4.959,4.959,0,0,0,1.58-3.82,4.959,4.959,0,0,0-1.58-3.82,5.747,5.747,0,0,0-4.06-1.46,5.819,5.819,0,0,0-4.08,1.46,4.928,4.928,0,0,0-1.6,3.82,4.928,4.928,0,0,0,1.6,3.82A5.819,5.819,0,0,0,72.52-6.16Z" transform="translate(1350 455)" fill="#fff"/>
    <path id="路径_604" data-name="路径 604" d="M16.72.48A16.083,16.083,0,0,1,8.98-1.38,13.881,13.881,0,0,1,3.54-6.54,14.216,14.216,0,0,1,1.56-14a14.216,14.216,0,0,1,1.98-7.46,13.881,13.881,0,0,1,5.44-5.16,16.167,16.167,0,0,1,7.78-1.86,16.319,16.319,0,0,1,6.58,1.28,13.179,13.179,0,0,1,4.94,3.68l-4.16,3.84a8.944,8.944,0,0,0-7.04-3.28,9.348,9.348,0,0,0-4.64,1.14,8.1,8.1,0,0,0-3.18,3.18A9.348,9.348,0,0,0,8.12-14,9.348,9.348,0,0,0,9.26-9.36a8.1,8.1,0,0,0,3.18,3.18,9.348,9.348,0,0,0,4.64,1.14,8.9,8.9,0,0,0,7.04-3.32l4.16,3.84A12.967,12.967,0,0,1,23.32-.8,16.462,16.462,0,0,1,16.72.48ZM41.68.32a12.9,12.9,0,0,1-6.1-1.42,10.556,10.556,0,0,1-4.22-3.94,10.856,10.856,0,0,1-1.52-5.72,10.856,10.856,0,0,1,1.52-5.72,10.556,10.556,0,0,1,4.22-3.94,12.9,12.9,0,0,1,6.1-1.42,12.785,12.785,0,0,1,6.08,1.42,10.589,10.589,0,0,1,4.2,3.94,10.856,10.856,0,0,1,1.52,5.72,10.856,10.856,0,0,1-1.52,5.72,10.589,10.589,0,0,1-4.2,3.94A12.785,12.785,0,0,1,41.68.32Zm0-5.12a5.2,5.2,0,0,0,3.94-1.62,6.039,6.039,0,0,0,1.54-4.34,6.039,6.039,0,0,0-1.54-4.34,5.2,5.2,0,0,0-3.94-1.62,5.262,5.262,0,0,0-3.96,1.62,5.993,5.993,0,0,0-1.56,4.34,5.993,5.993,0,0,0,1.56,4.34A5.262,5.262,0,0,0,41.68-4.8Zm22.8-16.24H70v4.8H64.64V0H58.4V-16.24H55.08v-4.8H58.4V-22a7.851,7.851,0,0,1,2.18-5.84A8.347,8.347,0,0,1,66.72-30a11.452,11.452,0,0,1,2.66.3,6.465,6.465,0,0,1,2.1.86l-1.64,4.52a4.267,4.267,0,0,0-2.52-.76q-2.84,0-2.84,3.12Zm15.48,0h5.52v4.8H80.12V0H73.88V-16.24H70.56v-4.8h3.32V-22a7.851,7.851,0,0,1,2.18-5.84A8.347,8.347,0,0,1,82.2-30a11.452,11.452,0,0,1,2.66.3,6.465,6.465,0,0,1,2.1.86l-1.64,4.52a4.267,4.267,0,0,0-2.52-.76q-2.84,0-2.84,3.12ZM109.4-10.68q0,.12-.12,1.68H93a5.07,5.07,0,0,0,2.08,3.16,6.889,6.889,0,0,0,4.08,1.16,8.262,8.262,0,0,0,2.98-.5,7.218,7.218,0,0,0,2.42-1.58l3.32,3.6Q104.84.32,99,.32A14.047,14.047,0,0,1,92.56-1.1a10.409,10.409,0,0,1-4.32-3.94,10.856,10.856,0,0,1-1.52-5.72,11,11,0,0,1,1.5-5.7,10.509,10.509,0,0,1,4.12-3.96,12.1,12.1,0,0,1,5.86-1.42,12,12,0,0,1,5.72,1.36,9.927,9.927,0,0,1,4.02,3.9A11.629,11.629,0,0,1,109.4-10.68ZM98.24-17.12a5.374,5.374,0,0,0-3.56,1.2,5.108,5.108,0,0,0-1.76,3.28h10.6a5.159,5.159,0,0,0-1.76-3.26A5.261,5.261,0,0,0,98.24-17.12Zm36.4,6.44q0,.12-.12,1.68H118.24a5.07,5.07,0,0,0,2.08,3.16,6.889,6.889,0,0,0,4.08,1.16,8.262,8.262,0,0,0,2.98-.5,7.218,7.218,0,0,0,2.42-1.58l3.32,3.6Q130.08.32,124.24.32A14.047,14.047,0,0,1,117.8-1.1a10.409,10.409,0,0,1-4.32-3.94,10.856,10.856,0,0,1-1.52-5.72,11,11,0,0,1,1.5-5.7,10.509,10.509,0,0,1,4.12-3.96,12.1,12.1,0,0,1,5.86-1.42,12,12,0,0,1,5.72,1.36,9.926,9.926,0,0,1,4.02,3.9A11.629,11.629,0,0,1,134.64-10.68Zm-11.16-6.44a5.374,5.374,0,0,0-3.56,1.2,5.108,5.108,0,0,0-1.76,3.28h10.6A5.159,5.159,0,0,0,127-15.9,5.261,5.261,0,0,0,123.48-17.12Z" transform="translate(934 691)" fill="#fff"/>
    <path id="路径_603" data-name="路径 603" d="M23.88-14.56a7.384,7.384,0,0,1,3.76,2.54A7,7,0,0,1,29-7.64a6.471,6.471,0,0,1-2.86,5.66Q23.28,0,17.8,0H3.32V-28H17q5.12,0,7.86,1.96a6.2,6.2,0,0,1,2.74,5.32,6.828,6.828,0,0,1-.98,3.64A6.864,6.864,0,0,1,23.88-14.56ZM9.76-23.12v6.6H16.2a6.5,6.5,0,0,0,3.64-.84,2.8,2.8,0,0,0,1.24-2.48,2.753,2.753,0,0,0-1.24-2.46,6.628,6.628,0,0,0-3.64-.82ZM17.32-4.88a7.181,7.181,0,0,0,3.86-.84,2.877,2.877,0,0,0,1.3-2.6q0-3.48-5.16-3.48H9.76v6.92ZM43.72.32a12.9,12.9,0,0,1-6.1-1.42A10.556,10.556,0,0,1,33.4-5.04a10.856,10.856,0,0,1-1.52-5.72,10.856,10.856,0,0,1,1.52-5.72,10.556,10.556,0,0,1,4.22-3.94,12.9,12.9,0,0,1,6.1-1.42,12.785,12.785,0,0,1,6.08,1.42A10.589,10.589,0,0,1,54-16.48a10.856,10.856,0,0,1,1.52,5.72A10.856,10.856,0,0,1,54-5.04,10.589,10.589,0,0,1,49.8-1.1,12.785,12.785,0,0,1,43.72.32Zm0-5.12a5.2,5.2,0,0,0,3.94-1.62,6.039,6.039,0,0,0,1.54-4.34,6.039,6.039,0,0,0-1.54-4.34,5.2,5.2,0,0,0-3.94-1.62,5.262,5.262,0,0,0-3.96,1.62,5.993,5.993,0,0,0-1.56,4.34,5.993,5.993,0,0,0,1.56,4.34A5.262,5.262,0,0,0,43.72-4.8ZM69.92.32a12.9,12.9,0,0,1-6.1-1.42A10.556,10.556,0,0,1,59.6-5.04a10.856,10.856,0,0,1-1.52-5.72,10.856,10.856,0,0,1,1.52-5.72,10.556,10.556,0,0,1,4.22-3.94,12.9,12.9,0,0,1,6.1-1.42A12.785,12.785,0,0,1,76-20.42a10.589,10.589,0,0,1,4.2,3.94,10.856,10.856,0,0,1,1.52,5.72A10.856,10.856,0,0,1,80.2-5.04,10.589,10.589,0,0,1,76-1.1,12.785,12.785,0,0,1,69.92.32Zm0-5.12a5.2,5.2,0,0,0,3.94-1.62,6.039,6.039,0,0,0,1.54-4.34,6.039,6.039,0,0,0-1.54-4.34,5.2,5.2,0,0,0-3.94-1.62,5.262,5.262,0,0,0-3.96,1.62,5.993,5.993,0,0,0-1.56,4.34,5.993,5.993,0,0,0,1.56,4.34A5.262,5.262,0,0,0,69.92-4.8Zm25.2-3.64-3,2.96V0H85.88V-29.68h6.24v16.8l9.12-8.64h7.44L99.72-12.4,109.48,0h-7.56ZM118.8.32a20.9,20.9,0,0,1-5.24-.66A13.69,13.69,0,0,1,109.48-2l2.08-4.48a13.091,13.091,0,0,0,3.48,1.5,14.585,14.585,0,0,0,4,.58Q123-4.4,123-6.36a1.387,1.387,0,0,0-1.08-1.32,16,16,0,0,0-3.32-.68,32.028,32.028,0,0,1-4.36-.92,6.764,6.764,0,0,1-2.98-1.84A5.232,5.232,0,0,1,110-14.88a5.89,5.89,0,0,1,1.18-3.62,7.594,7.594,0,0,1,3.44-2.46,14.692,14.692,0,0,1,5.34-.88,20.958,20.958,0,0,1,4.54.5,12.69,12.69,0,0,1,3.74,1.38l-2.08,4.44a12.417,12.417,0,0,0-6.2-1.6,6.308,6.308,0,0,0-3,.56,1.646,1.646,0,0,0-1,1.44,1.43,1.43,0,0,0,1.08,1.4,19.119,19.119,0,0,0,3.44.76,36.823,36.823,0,0,1,4.32.94,6.49,6.49,0,0,1,2.92,1.82,5.164,5.164,0,0,1,1.24,3.68,5.683,5.683,0,0,1-1.2,3.56,7.66,7.66,0,0,1-3.5,2.42A15.593,15.593,0,0,1,118.8.32Z" transform="translate(903 870)" fill="#fff"/>
    <path id="路径_602" data-name="路径 602" d="M12.52.48A22.909,22.909,0,0,1,6.1-.42,15.057,15.057,0,0,1,1.12-2.76l2.2-4.88A14.929,14.929,0,0,0,7.6-5.52a16.076,16.076,0,0,0,4.96.8,7.924,7.924,0,0,0,4.08-.82,2.477,2.477,0,0,0,1.32-2.18,2.084,2.084,0,0,0-.78-1.66,5.913,5.913,0,0,0-2-1.06q-1.22-.4-3.3-.88a45.618,45.618,0,0,1-5.24-1.52,8.513,8.513,0,0,1-3.5-2.44,6.589,6.589,0,0,1-1.46-4.48A7.793,7.793,0,0,1,3-24.18a8.879,8.879,0,0,1,3.98-3.14,16.241,16.241,0,0,1,6.5-1.16,21.523,21.523,0,0,1,5.24.64A15.48,15.48,0,0,1,23.2-26l-2,4.92a15.613,15.613,0,0,0-7.76-2.2,7.276,7.276,0,0,0-4.02.88,2.686,2.686,0,0,0-1.3,2.32,2.268,2.268,0,0,0,1.5,2.14,23.551,23.551,0,0,0,4.58,1.38,45.618,45.618,0,0,1,5.24,1.52,8.677,8.677,0,0,1,3.5,2.4A6.435,6.435,0,0,1,24.4-8.2a7.646,7.646,0,0,1-1.34,4.38A9,9,0,0,1,19.04-.68,16.388,16.388,0,0,1,12.52.48ZM41.48-21.84a8.856,8.856,0,0,1,6.46,2.4q2.46,2.4,2.46,7.12V0H44.16V-11.36a5.61,5.61,0,0,0-1.12-3.82,4.107,4.107,0,0,0-3.24-1.26,4.966,4.966,0,0,0-3.76,1.46,6.045,6.045,0,0,0-1.4,4.34V0H28.4V-29.68h6.24v10.4a8.3,8.3,0,0,1,3-1.9A10.853,10.853,0,0,1,41.48-21.84ZM66.52.32a12.9,12.9,0,0,1-6.1-1.42A10.556,10.556,0,0,1,56.2-5.04a10.856,10.856,0,0,1-1.52-5.72,10.856,10.856,0,0,1,1.52-5.72,10.556,10.556,0,0,1,4.22-3.94,12.9,12.9,0,0,1,6.1-1.42,12.785,12.785,0,0,1,6.08,1.42,10.589,10.589,0,0,1,4.2,3.94,10.856,10.856,0,0,1,1.52,5.72A10.856,10.856,0,0,1,76.8-5.04,10.589,10.589,0,0,1,72.6-1.1,12.785,12.785,0,0,1,66.52.32Zm0-5.12a5.2,5.2,0,0,0,3.94-1.62A6.039,6.039,0,0,0,72-10.76a6.039,6.039,0,0,0-1.54-4.34,5.2,5.2,0,0,0-3.94-1.62,5.262,5.262,0,0,0-3.96,1.62A5.993,5.993,0,0,0,61-10.76a5.993,5.993,0,0,0,1.56,4.34A5.262,5.262,0,0,0,66.52-4.8Zm37.04-5.88q0,.12-.12,1.68H87.16a5.07,5.07,0,0,0,2.08,3.16,6.889,6.889,0,0,0,4.08,1.16,8.262,8.262,0,0,0,2.98-.5,7.218,7.218,0,0,0,2.42-1.58l3.32,3.6Q99,.32,93.16.32A14.047,14.047,0,0,1,86.72-1.1,10.409,10.409,0,0,1,82.4-5.04a10.856,10.856,0,0,1-1.52-5.72,11,11,0,0,1,1.5-5.7,10.509,10.509,0,0,1,4.12-3.96,12.1,12.1,0,0,1,5.86-1.42,12,12,0,0,1,5.72,1.36,9.927,9.927,0,0,1,4.02,3.9A11.629,11.629,0,0,1,103.56-10.68ZM92.4-17.12a5.374,5.374,0,0,0-3.56,1.2,5.108,5.108,0,0,0-1.76,3.28h10.6a5.159,5.159,0,0,0-1.76-3.26A5.261,5.261,0,0,0,92.4-17.12ZM114.96.32a20.9,20.9,0,0,1-5.24-.66A13.69,13.69,0,0,1,105.64-2l2.08-4.48a13.091,13.091,0,0,0,3.48,1.5,14.585,14.585,0,0,0,4,.58q3.96,0,3.96-1.96a1.387,1.387,0,0,0-1.08-1.32,16,16,0,0,0-3.32-.68,32.028,32.028,0,0,1-4.36-.92,6.764,6.764,0,0,1-2.98-1.84,5.232,5.232,0,0,1-1.26-3.76,5.89,5.89,0,0,1,1.18-3.62,7.594,7.594,0,0,1,3.44-2.46,14.692,14.692,0,0,1,5.34-.88,20.958,20.958,0,0,1,4.54.5,12.69,12.69,0,0,1,3.74,1.38l-2.08,4.44a12.417,12.417,0,0,0-6.2-1.6,6.308,6.308,0,0,0-3,.56,1.646,1.646,0,0,0-1,1.44,1.43,1.43,0,0,0,1.08,1.4,19.119,19.119,0,0,0,3.44.76,36.823,36.823,0,0,1,4.32.94,6.49,6.49,0,0,1,2.92,1.82,5.164,5.164,0,0,1,1.24,3.68,5.683,5.683,0,0,1-1.2,3.56,7.66,7.66,0,0,1-3.5,2.42A15.593,15.593,0,0,1,114.96.32Z" transform="translate(1627 930)" fill="#fff"/>
  </g>
</svg>
