<svg id="组_201" data-name="组 201" xmlns="http://www.w3.org/2000/svg" width="1920" height="1080" viewBox="0 0 1920 1080">
  <g id="组_100" data-name="组 100" transform="translate(-7048.925 4340.346)">
    <g id="组_84" data-name="组 84">
      <rect id="矩形_89" data-name="矩形 89" width="1920" height="1080" transform="translate(7048.925 -4340.346)" fill="#3b8cf0"/>
      <path id="路径_331" data-name="路径 331" d="M7048.925-4336.856v1076.51h1104.7C8094.981-3836.737,7629.512-4292.81,7048.925-4336.856Z" fill="#56b4f6"/>
    </g>
    <g id="组_85" data-name="组 85">
      <path id="路径_332" data-name="路径 332" d="M7586.988-3475.653H8822.907l-212.025-37.64H7765.8Z" fill="#2166ea"/>
      <path id="路径_333" data-name="路径 333" d="M7608.19-3579.014l-21.2,103.36h17.227l68.908-100.382Z" fill="#013dba"/>
      <path id="路径_334" data-name="路径 334" d="M8526.049-3579.014l21.2,103.36h-17.227l-68.908-100.382Z" fill="#013dba"/>
      <path id="路径_335" data-name="路径 335" d="M7787-3612.042l-21.2,103.361h17.227l68.908-100.382Z" fill="#013dba"/>
      <path id="矩形_90" data-name="矩形 90" d="M57.644,0H157.929a0,0,0,0,1,0,0V246.1a0,0,0,0,1,0,0H53.511A53.511,53.511,0,0,1,0,192.586V57.644A57.644,57.644,0,0,1,57.644,0Z" transform="translate(7515.194 -3801.039)" fill="#fd7d9c"/>
      <rect id="矩形_91" data-name="矩形 91" width="1068.074" height="245.403" rx="47.041" transform="translate(7568.491 -3800.346)" fill="#d74465"/>
      <path id="矩形_92" data-name="矩形 92" d="M65.926,0H821.418a71.533,71.533,0,0,1,71.533,71.533V234.979a0,0,0,0,1,0,0H0a0,0,0,0,1,0,0V65.926A65.926,65.926,0,0,1,65.926,0Z" transform="translate(7690.607 -3971.081)" fill="#fd7d9c"/>
      <path id="矩形_93" data-name="矩形 93" d="M65.926,0h944.581a0,0,0,0,1,0,0V84.166a0,0,0,0,1,0,0H0a0,0,0,0,1,0,0V65.926A65.926,65.926,0,0,1,65.926,0Z" transform="translate(7573.052 -3732.056)" fill="#fd7d9c"/>
      <path id="矩形_94" data-name="矩形 94" d="M57.644,0h53.669a0,0,0,0,1,0,0V199.056a0,0,0,0,1,0,0H0a0,0,0,0,1,0,0V57.644A57.644,57.644,0,0,1,57.644,0Z" transform="translate(8525.252 -3801.039)" fill="#d74465"/>
    </g>
    <path id="路径_336" data-name="路径 336" d="M7891.055-3550.181l61.337,17.207-23.6,69.114s-6.279,18.393-15.184,13.486-11.393-21.315-11.393-21.315-14.643-35.493-16.451-42.956S7891.055-3550.181,7891.055-3550.181Z" fill="#f0e55d"/>
    <path id="路径_337" data-name="路径 337" d="M8137.423-4022.872s170.333,1.08,189.553,50.553v8.814H8137.423Z" fill="#fdfbd6"/>
    <path id="路径_338" data-name="路径 338" d="M7914.5-3739.758l-34.454,195.24,71.558,13.251,85.693-193.472s46.822-77.917,0-117.585H7962.2Z" fill="#02399b"/>
    <path id="路径_339" data-name="路径 339" d="M8038.777-3844.324l-249.234.592v112.859l249.234-7.288Z" fill="#0b3582"/>
    <path id="路径_340" data-name="路径 340" d="M7808.179-3943.317l-30.037,53.889,4.417,21.2,69.791,20.319,19.6-16.785.525-26.809-8.636-31.173Z" fill="#fdfbd5"/>
    <path id="路径_341" data-name="路径 341" d="M7940.018-4100.706c0,5.482.109,9.926-3.055,9.926s-8.4-4.444-8.4-9.926.764-9.925,5.728-9.925C7937.454-4110.631,7940.018-4106.187,7940.018-4100.706Z" fill="#f5c59f"/>
    <path id="路径_342" data-name="路径 342" d="M8004.815-4099.635c0,5.112-.1,9.256,2.849,9.256s7.834-4.144,7.834-9.256-.713-9.256-5.342-9.256C8007.206-4108.891,8004.815-4104.747,8004.815-4099.635Z" fill="#f5c59f"/>
    <path id="路径_343" data-name="路径 343" d="M7941.768-4079.814l-3.336,69.687,61.721,2.78-3.336-78.958Z" fill="#fdfbd7"/>
    <path id="路径_344" data-name="路径 344" d="M7951.17-4058.483l48.327,35.612-1.772-41.876Z" fill="#f5c59f"/>
    <path id="路径_345" data-name="路径 345" d="M8007.484-4069.415c0,8.342-9.42,17.762-17.763,17.762l-12.681-.139c-26.566,0-36.484-23.554-37.514-31.745l-1.094-45.842c0-13.359,10.515-23.489,23.873-23.489l47.851,22.743Z" fill="#fdfbd7"/>
    <path id="路径_346" data-name="路径 346" d="M7948.8-4134.094c-1.727,2.508-6.413,10.818-6.413,27.148,0,20.018,7.784,29.1,20.944,29.1s15.94-3.522,19.832-3.522,12.233,5,15.755,5,9.073-4.513,9.073-4.513l-.594,13.408s-3.12,15.509-18.488,15.815c-17.234.344-4.078,0-17.237,0-16.451,0-34.475-10.253-34.475-45.469,0-12.765-.056-21.06-.006-26.694h0c-3.325-29.29,24.283-29.052,24.283-29.052s10.051-.718,17.852-.718,16.808.718,16.808.718,21.13,3.892,21.13,19.276-13.345,18.9-13.345,18.9h-12.6c-12.6,0-35.272-17.763-37.255-19.276C7950.631-4136.577,7948.8-4134.094,7948.8-4134.094Z" fill="#02399b"/>
    <path id="路径_347" data-name="路径 347" d="M7982.194-4110.467v25.022h-5.742" fill="#f5c59f"/>
    <rect id="矩形_95" data-name="矩形 95" width="0.741" height="25.022" transform="translate(7981.909 -4110.467)" fill="#02399b"/>
    <path id="路径_348" data-name="路径 348" d="M7950.372-4110.7s14.21-4.943,19.276-2.966,1.73,4.2,1.73,4.2-5.808,4.448-17.3,1.853C7954.079-4107.613,7948.289-4110.027,7950.372-4110.7Z" fill="#02399b"/>
    <path id="路径_349" data-name="路径 349" d="M8009.618-4111.487s-10.78-4.079-15.664-1.686-1.373,4.331-1.373,4.331,9.875,2.745,14.844,2.051C8011.146-4107.311,8010.531-4111.273,8009.618-4111.487Z" fill="#02399b"/>
    <ellipse id="椭圆_105" data-name="椭圆 105" cx="2.595" cy="3.583" rx="2.595" ry="3.583" transform="translate(7962.454 -4104.289)" fill="#02399b"/>
    <ellipse id="椭圆_106" data-name="椭圆 106" cx="2.595" cy="3.583" rx="2.595" ry="3.583" transform="translate(7996.324 -4103.218)" fill="#02399b"/>
    <g id="组_86" data-name="组 86">
      <path id="路径_350" data-name="路径 350" d="M7980.729-4070c-4.665,0-7.023-1.464-8.2-2.784a1.507,1.507,0,0,1,.8-2.464l1.346-.309a.373.373,0,0,0-.017-.066c.009.027.943,2.663,7.53,2.215a1.679,1.679,0,0,1,1.792,1.716,1.729,1.729,0,0,1-1.645,1.638C7981.77-4070.012,7981.235-4070,7980.729-4070Z" fill="#fff"/>
    </g>
    <path id="路径_351" data-name="路径 351" d="M7869.993-4022.959h267.43v74.252l-56.3,2.1-43.985,103.986-152.189-5.514-21.113-74.539-56.3-18.876S7839.2-4022.959,7869.993-4022.959Z" fill="#f0e55d"/>
    <path id="路径_352" data-name="路径 352" d="M7938.489-4045.941s23.1,19.464,61.6,7.273l2.567,34.222-32.084-14.545-35.078,14.545Z" fill="#fdc254"/>
    <path id="路径_353" data-name="路径 353" d="M7819.243-3907.4" fill="#f8f5d5"/>
    <path id="路径_354" data-name="路径 354" d="M8115.047-4022.872l22.375-.087v74.252l-22.375.835Z" fill="#fdc254"/>
    <path id="路径_355" data-name="路径 355" d="M7863.835-3922.673l-4.689-19.625-45.24-14.038-6.372,14.787Z" fill="#fdc254"/>
    <circle id="椭圆_107" data-name="椭圆 107" cx="56.429" cy="56.429" r="56.429" transform="translate(7733.114 -3844.028)" fill="#0543c0"/>
    <path id="路径_356" data-name="路径 356" d="M7789.543-3844.028l250.123,38.429-5.3,68.025-244.822,6.4Z" fill="#0543c0"/>
    <path id="路径_357" data-name="路径 357" d="M8038.956-3800.948l-3.534,63.607h73.031s19.435,0,17.668-10.012-16.49-17.669-16.49-17.669-28.859-25.325-35.338-29.447S8038.956-3800.948,8038.956-3800.948Z" fill="#f0e55d"/>
    <g id="组_87" data-name="组 87">
      <path id="路径_358" data-name="路径 358" d="M8375.3-3743.368c-.589-1.767,26.5-21.2,40.049-45.35s13.546-44.761,17.669-46.528,17.669,5.89,9.423,40.639S8375.3-3743.368,8375.3-3743.368Z" fill="#fdc254"/>
      <path id="路径_359" data-name="路径 359" d="M8252.5-3982.632s3.533-21.592,7.509-20.955,8.834,13.446,9.276,20.955S8252.5-3982.632,8252.5-3982.632Z" fill="#efba54"/>
      <path id="路径_360" data-name="路径 360" d="M8210.388-3979.687s-7.951,27.828,12.368,32.245,17.669,8.835,16.786,18.552-20.319,42.111-18.553,65.08,10.6,61.841,10.6,115.436c0,0-15.9,1.178-15.9,14.135h24.468l10.869-15.313,7.067-31.8,28.859,17.669,11.189,8.245s-18.847,4.712-18.847,21.2h81.865c32.981,0,38.282-43.583,15.313-77.743s-70.675-38.871-80.687-98.356-14.135-76.939-20.025-93.644-16.489,18.847-16.489,18.847-16.491-2.945-26.5,7.067Z" fill="#f0e55d"/>
      <path id="路径_361" data-name="路径 361" d="M8210.388-3979.687a41.239,41.239,0,0,0-1.529,12.157c.055,1.173,13.208-11.312,13.208-11.312Z" fill="#efba54"/>
      <path id="路径_362" data-name="路径 362" d="M8232.074-3908.284l61.461-15.3,2.252,13.249-68.964,15.588Z" fill="#56b4f6"/>
      <rect id="矩形_96" data-name="矩形 96" width="7.547" height="15.08" transform="translate(8224.346 -3908.125) rotate(-9.78)" fill="#cc4665"/>
    </g>
    <g id="组_88" data-name="组 88">
      <ellipse id="椭圆_108" data-name="椭圆 108" cx="304.938" cy="24.086" rx="304.938" ry="24.086" transform="translate(7780.635 -3412.513)" fill="#2166ea"/>
      <path id="路径_363" data-name="路径 363" d="M7846.786-3537.961l-77.165,151.068h14.333l113.2-135.043Z" fill="#013dba"/>
      <path id="路径_364" data-name="路径 364" d="M8172.412-3537.961l77.165,151.068h-14.334l-113.2-135.043Z" fill="#013dba"/>
      <ellipse id="椭圆_109" data-name="椭圆 109" cx="262.759" cy="41.649" rx="262.759" ry="41.649" transform="translate(7756.412 -3597.83)" fill="#cc4465"/>
      <ellipse id="椭圆_110" data-name="椭圆 110" cx="262.759" cy="41.649" rx="262.759" ry="41.649" transform="translate(7756.412 -3614.879)" fill="#fdfbd7"/>
    </g>
    <g id="组_90" data-name="组 90">
      <ellipse id="椭圆_111" data-name="椭圆 111" cx="47.84" cy="3.222" rx="47.84" ry="3.222" transform="translate(8145.878 -3575.693)" fill="#f3ceb8"/>
      <g id="组_89" data-name="组 89">
        <rect id="矩形_97" data-name="矩形 97" width="2.429" height="55.215" transform="translate(8144.036 -3720.554) rotate(-14.751)" fill="#1e63e6"/>
        <circle id="椭圆_112" data-name="椭圆 112" cx="11.706" cy="11.706" r="11.706" transform="translate(8130.766 -3742.125)" fill="#56b4f6"/>
        <path id="路径_365" data-name="路径 365" d="M8125.388-3704.225l19.831,9.4s-8.546,4.839-13.74.725S8127.9-3698.721,8125.388-3704.225Z" fill="#1e63e6"/>
        <rect id="矩形_98" data-name="矩形 98" width="2.429" height="92.141" transform="translate(8176.159 -3661.076) rotate(-173.477)" fill="#1e63e6"/>
        <circle id="椭圆_113" data-name="椭圆 113" cx="11.706" cy="11.706" r="11.706" transform="translate(8175.056 -3774.314)" fill="#56b4f6"/>
        <path id="路径_366" data-name="路径 366" d="M8204.714-3742.7l-18.282,12.137s9.151,3.565,13.7-1.25S8203.013-3736.892,8204.714-3742.7Z" fill="#1e63e6"/>
        <rect id="矩形_99" data-name="矩形 99" width="2.429" height="55.215" transform="translate(8167.342 -3655.734) rotate(-179.611)" fill="#1e63e6"/>
        <circle id="椭圆_114" data-name="椭圆 114" cx="10.616" cy="10.616" r="10.616" transform="translate(8157.257 -3730.42)" fill="#56b4f6"/>
        <path id="路径_367" data-name="路径 367" d="M8186.762-3703.015,8169.881-3689s9.479,2.568,13.491-2.706S8185.69-3697.059,8186.762-3703.015Z" fill="#1e63e6"/>
      </g>
      <path id="路径_368" data-name="路径 368" d="M8131.536-3678.73l10.789,28.269s-56.54,79.51,20.319,79.51,23.959-79.772,23.959-79.772l10.495-28.007Z" fill="#56b4f6"/>
      <ellipse id="椭圆_115" data-name="椭圆 115" cx="32.781" cy="4.196" rx="32.781" ry="4.196" transform="translate(8131.536 -3682.844)" fill="#1e63e6"/>
    </g>
    <g id="组_91" data-name="组 91">
      <path id="路径_369" data-name="路径 369" d="M7888.1-3596.2l-41.854,19.054s27.307,3.247,38.216,12.517l37.819-20.757S7914.519-3594.745,7888.1-3596.2Z" fill="#61a7d6"/>
      <path id="路径_370" data-name="路径 370" d="M7923.561-3585.156l-39.1,20.528s33.656,7.581,45.346,14.931l33.4-20.362S7949.981-3583.7,7923.561-3585.156Z" fill="#61a7d6"/>
      <path id="路径_371" data-name="路径 371" d="M7923.761-3585.949l-39.3,21.321s37.336,4.2,45.546,14.138l32.243-21.661S7950.181-3584.5,7923.761-3585.949Z" fill="#f0e55d"/>
      <path id="路径_372" data-name="路径 372" d="M7889.58-3596.763l-43.608,18.338s30.279,3.855,38.489,13.8l39.3-21.321S7916-3595.309,7889.58-3596.763Z" fill="#efb951"/>
    </g>
    <g id="组_92" data-name="组 92">
      <ellipse id="椭圆_116" data-name="椭圆 116" cx="128.686" cy="11.381" rx="128.686" ry="11.381" transform="translate(8460.385 -3404.28)" fill="#2166ea"/>
      <path id="路径_373" data-name="路径 373" d="M8463.5-3431.92s-16.785,11.043-8.392,21.2c8.345,10.1,46.916,27.981,191.531,16.023a1.853,1.853,0,0,0,1.577-2.512l-4.054-10.419s5.742-30.92-5.743-52.122c0,0-16.785-5.3-26.061,13.251s-32.687-5.932-32.687-5.932,9.718-5.552-5.742-21.454c0,0-34.9,21.644-56.1,26.5S8463.5-3431.92,8463.5-3431.92Z" fill="#f0e55d"/>
      <path id="路径_374" data-name="路径 374" d="M8645.135-3406.828l-75.092,2.65s-36.221,6.185-37.546,5.743-29.595,1.325-77.742-11.485c0,0,17.093,38.569,192.291,15.295a1.722,1.722,0,0,0,1.408-2.246Z" fill="#043699"/>
      <path id="路径_375" data-name="路径 375" d="M8522.209-3435.834l20.024,25.914,10.344-3.534-8.577-9.423,16.877,4.712,12.571-4.712-20.871-25.325-10.933,3.534,10.933,12.957-19.179-8.246Z" fill="#2166ea"/>
      <path id="路径_376" data-name="路径 376" d="M8572.835-3403.436s-3.691-20.76,70.96-41.079l1.04,4.417s4.859,24.294,0,33.57Z" fill="#013dba"/>
      <path id="路径_377" data-name="路径 377" d="M8455.859-3409.92s55.877,14.908,74.871,11.485c0,0,95.659,2.761,116.172-2.209l1.1,2.974s-2.963,4.093-44.042,3.983S8474.853-3387.282,8455.859-3409.92Z" fill="#fdfbd7"/>
    </g>
    <g id="组_93" data-name="组 93">
      <rect id="矩形_100" data-name="矩形 100" width="69.61" height="34.805" rx="5.346" transform="translate(7979.82 -3857.055) rotate(-78.95)" fill="#56b4f6"/>
      <circle id="椭圆_117" data-name="椭圆 117" cx="2.218" cy="2.218" r="2.218" transform="translate(7995.105 -3921.304)" fill="#043699"/>
      <path id="路径_378" data-name="路径 378" d="M8005.343-3891.762a5.939,5.939,0,0,0-2.636-1,3.067,3.067,0,0,0-2.749,1.491c-.852,1.148-1.974,6.014,1.309,8.513,0,0,0,.143.606.118s.933-.389,1.868-.206,1.472.8,2.188.941,2.088-.449,3.534-2.881c0,0-3.2-3.054.663-5.3a4.118,4.118,0,0,0-1.767-1.631c-1.041-.374-2.4.118-2.862.027Z" fill="#043699"/>
      <path id="路径_379" data-name="路径 379" d="M8005.758-3892.368a3.184,3.184,0,0,1,3.167-2.61S8008.364-3891.959,8005.758-3892.368Z" fill="#043699"/>
    </g>
    <g id="组_96" data-name="组 96">
      <ellipse id="椭圆_118" data-name="椭圆 118" cx="29.462" cy="5.097" rx="29.462" ry="5.097" transform="translate(8027.401 -3571.83)" fill="#2a5ea3"/>
      <g id="组_95" data-name="组 95">
        <g id="组_94" data-name="组 94">
          <path id="路径_380" data-name="路径 380" d="M8021.148-3618.064l5.624,50.473,35.226.507,10.961-49.976" fill="#57b5fa"/>
          <ellipse id="椭圆_119" data-name="椭圆 119" cx="4.765" cy="25.91" rx="4.765" ry="25.91" transform="translate(8021.076 -3613.04) rotate(-89.176)" fill="#57b5fa"/>
          <ellipse id="椭圆_120" data-name="椭圆 120" cx="4.765" cy="17.615" rx="4.765" ry="17.615" transform="matrix(0.014, -1, 1, 0.014, 8026.706, -3563.033)" fill="#57b5fa"/>
          <ellipse id="椭圆_121" data-name="椭圆 121" cx="3.297" cy="23.262" rx="3.297" ry="23.262" transform="translate(8023.731 -3613.542) rotate(-89.176)" fill="#1e63e6"/>
        </g>
        <path id="路径_381" data-name="路径 381" d="M8066.917-3607.731a16.406,16.406,0,0,0-16.406,16.407,16.405,16.405,0,0,0,16.406,16.406,16.407,16.407,0,0,0,16.407-16.406A16.408,16.408,0,0,0,8066.917-3607.731Zm0,27.537a11.13,11.13,0,0,1-11.13-11.13,11.131,11.131,0,0,1,11.13-11.131,11.131,11.131,0,0,1,11.131,11.131A11.13,11.13,0,0,1,8066.917-3580.194Z" fill="#57b5fa"/>
      </g>
    </g>
    <g id="组_97" data-name="组 97">
      <path id="路径_382" data-name="路径 382" d="M7816.53-3908.837l107.337,25.177s20.761,4.859,48.589-1.766,26.835-5.522,27.5-4.418-21.092,14.687-21.092,14.687,12.921,4.307,25.4,3.313,19.657-1.91,19.767.149-.773,4.71-5.08,7.361c0,0,2.54.883,1.878,3.312s-4.749,5.411-4.749,5.411a2.562,2.562,0,0,1,2.1,2.54c-.11,2.1-7.178,6.847-7.178,6.847s4.013,1.436,1.51,3.5-8.982,5.006-8.982,5.006H7805.045Z" fill="#fdfbd6"/>
      <circle id="椭圆_122" data-name="椭圆 122" cx="36.11" cy="36.11" r="36.11" transform="translate(7774.167 -3909.39)" fill="#fdfbd6"/>
    </g>
    <g id="组_99" data-name="组 99">
      <g id="组_98" data-name="组 98">
        <path id="路径_383" data-name="路径 383" d="M8680.937-4104.423H8572.392a8.477,8.477,0,0,1-8.468-8.467v-128.379a8.477,8.477,0,0,1,8.468-8.467h108.545a8.478,8.478,0,0,1,8.469,8.467v128.379A8.477,8.477,0,0,1,8680.937-4104.423Zm-108.545-139.953a3.111,3.111,0,0,0-3.107,3.107v128.379a3.11,3.11,0,0,0,3.107,3.107h108.545a3.111,3.111,0,0,0,3.108-3.107v-128.379a3.111,3.111,0,0,0-3.108-3.107Z" fill="#fff"/>
      </g>
      <rect id="矩形_101" data-name="矩形 101" width="191.806" height="146.211" rx="13.252" transform="translate(8353.58 -4250.185)" fill="#fd7d9c"/>
      <rect id="矩形_102" data-name="矩形 102" width="146.211" height="146.211" rx="9.718" transform="translate(8188.713 -4250.185)" fill="#f0e55d"/>
      <circle id="椭圆_123" data-name="椭圆 123" cx="25.517" cy="25.517" r="25.517" transform="translate(8236.301 -4213.213)" fill="#56b4f6"/>
      <path id="路径_384" data-name="路径 384" d="M8212.219-4103.974a49.6,49.6,0,0,1,49.6-49.6,49.6,49.6,0,0,1,49.6,49.6" fill="#0543c0"/>
      <rect id="矩形_103" data-name="矩形 103" width="19.697" height="146.211" transform="translate(8714.601 -4250.185)" fill="#fd7d9c"/>
      <rect id="矩形_104" data-name="矩形 104" width="19.697" height="43.669" transform="translate(8714.601 -4231.365)" fill="#cc4465"/>
      <path id="路径_385" data-name="路径 385" d="M8430.071-4143.931h-.925c-1.85-.463-3.235-1.387-3.7-3.236l-11.093-40.212-6.934,16.64a4.442,4.442,0,0,1-4.16,2.773H8368.6a4.367,4.367,0,0,1-4.622-4.622,4.367,4.367,0,0,1,4.622-4.622h31.431l11.093-25.884a5.085,5.085,0,0,1,4.622-2.773,4.44,4.44,0,0,1,4.16,3.236l12.017,43.447,11.093-16.177a4.2,4.2,0,0,1,3.7-1.849H8461.5l9.244-16.177a4.853,4.853,0,0,1,4.16-2.311,4.442,4.442,0,0,1,4.159,2.773l10.631,23.572,2.772-5.546a4.854,4.854,0,0,1,4.16-2.311h33.741a4.367,4.367,0,0,1,4.622,4.622,4.367,4.367,0,0,1-4.622,4.622H8499.4l-6.009,11.093a4.854,4.854,0,0,1-4.159,2.311,4.442,4.442,0,0,1-4.16-2.773l-11.093-24.035-6.01,10.631a4.854,4.854,0,0,1-4.159,2.311h-14.79l-15.716,22.186a3.476,3.476,0,0,1-3.234,2.311Z" fill="#d74465"/>
      <path id="路径_386" data-name="路径 386" d="M8619.569-4170.334a3.723,3.723,0,0,0-5.249-.186,41.623,41.623,0,0,0-14.109,30.973,3.723,3.723,0,0,0,3.725,3.721,3.723,3.723,0,0,0,3.722-3.721,34.066,34.066,0,0,1,11.726-25.538,3.722,3.722,0,0,0,.187-5.249Zm37.859,17.274a40.364,40.364,0,0,0-5.956-11.168,53.279,53.279,0,0,0-13.811-12.546c8.339-5.323,22.113-17.124,22.113-37.227a3.723,3.723,0,0,0-3.727-3.72,3.723,3.723,0,0,0-3.72,3.72c0,20.1-17.087,30.414-22.336,33.1a49.952,49.952,0,0,1-10.015-7.036h10.015a3.723,3.723,0,0,0,3.723-3.723,3.723,3.723,0,0,0-3.723-3.723h-16.566a34.9,34.9,0,0,1-3.723-7.445h31.457a3.722,3.722,0,0,0,3.722-3.723,3.721,3.721,0,0,0-3.722-3.722H8607.88a30.235,30.235,0,0,1-.223-3.723,3.723,3.723,0,0,0-3.724-3.723,3.723,3.723,0,0,0-3.723,3.723c0,28.181,27.176,40.168,28.33,40.652a48.127,48.127,0,0,1,11.5,7.743h-10.051a3.723,3.723,0,0,0-3.72,3.726,3.723,3.723,0,0,0,3.72,3.72h16.492a33.746,33.746,0,0,1,3.722,7.445h-31.382a3.722,3.722,0,0,0-3.72,3.726,3.723,3.723,0,0,0,3.72,3.72h33.281a30.788,30.788,0,0,1,.223,3.722,3.723,3.723,0,0,0,3.726,3.72,3.723,3.723,0,0,0,3.721-3.72,39.158,39.158,0,0,0-.819-8.153,34.285,34.285,0,0,0-1.527-5.36Z" fill="#f0e55d"/>
    </g>
  </g>
  <text id="OTHERS" transform="translate(205 177)" fill="#f0e55d" font-size="60" font-family="Montserrat-ExtraBold, Montserrat" font-weight="800" letter-spacing="0.1em"><tspan x="0" y="0">OTHERS</tspan></text>
  <text id="DNA" transform="translate(1534 302)" fill="#fff" font-size="40" font-family="Montserrat-Bold, Montserrat" font-weight="700"><tspan x="0" y="0">DNA</tspan></text>
  <text id="Heath" transform="translate(1262 302)" fill="#fff" font-size="40" font-family="Montserrat-Bold, Montserrat" font-weight="700"><tspan x="0" y="0">Heath</tspan></text>
</svg>
