<svg xmlns="http://www.w3.org/2000/svg" width="679.12" height="241.07" viewBox="0 0 679.12 241.07">
  <g id="组_202" data-name="组 202" transform="translate(-259.88 -252.52)">
    <path id="路径_604" data-name="路径 604" d="M3.32-26.751H49.142q16.427,0,29.035,6.268a46.931,46.931,0,0,1,19.6,17.652q6.989,11.384,6.989,26.513T97.774,50.2a46.931,46.931,0,0,1-19.6,17.652q-12.608,6.268-29.035,6.268H3.32Zm44.669,81.7q15.13,0,24.136-8.43t9.006-22.839q0-14.41-9.006-22.839T47.989-7.586H26.663V54.951ZM185.6,75.845a58.875,58.875,0,0,1-28.315-6.772,50.265,50.265,0,0,1-19.741-18.66,50.943,50.943,0,0,1-7.133-26.73,50.943,50.943,0,0,1,7.133-26.73,50.265,50.265,0,0,1,19.741-18.66A58.875,58.875,0,0,1,185.6-28.48a58.456,58.456,0,0,1,28.243,6.772,50.916,50.916,0,0,1,19.741,18.66,50.553,50.553,0,0,1,7.2,26.73,50.553,50.553,0,0,1-7.2,26.73,50.916,50.916,0,0,1-19.741,18.66A58.456,58.456,0,0,1,185.6,75.845Zm0-19.885a32.007,32.007,0,0,0,16.139-4.107A29.47,29.47,0,0,0,213.05,40.4a33.675,33.675,0,0,0,4.107-16.715A33.675,33.675,0,0,0,213.05,6.967,29.47,29.47,0,0,0,201.739-4.488a33.764,33.764,0,0,0-32.277,0A29.47,29.47,0,0,0,158.15,6.967a33.675,33.675,0,0,0-4.107,16.715A33.675,33.675,0,0,0,158.15,40.4a29.47,29.47,0,0,0,11.311,11.456A32.007,32.007,0,0,0,185.6,55.96ZM420.475-26.751V74.116H401.311l-50.289-61.24v61.24H327.966V-26.751h19.309L397.42,34.49v-61.24Zm87.178,102.6a58.875,58.875,0,0,1-28.315-6.772A50.265,50.265,0,0,1,459.6,50.412a50.943,50.943,0,0,1-7.133-26.73A50.943,50.943,0,0,1,459.6-3.047a50.265,50.265,0,0,1,19.741-18.66,58.875,58.875,0,0,1,28.315-6.772A58.456,58.456,0,0,1,535.9-21.708a50.916,50.916,0,0,1,19.741,18.66,50.553,50.553,0,0,1,7.2,26.73,50.553,50.553,0,0,1-7.2,26.73A50.916,50.916,0,0,1,535.9,69.072,58.456,58.456,0,0,1,507.653,75.845Zm0-19.885a32.007,32.007,0,0,0,16.139-4.107A29.47,29.47,0,0,0,535.1,40.4a33.675,33.675,0,0,0,4.107-16.715A33.676,33.676,0,0,0,535.1,6.967,29.47,29.47,0,0,0,523.791-4.488a33.765,33.765,0,0,0-32.277,0A29.471,29.471,0,0,0,480.2,6.967,33.676,33.676,0,0,0,476.1,23.682,33.676,33.676,0,0,0,480.2,40.4a29.47,29.47,0,0,0,11.311,11.456A32.008,32.008,0,0,0,507.653,55.96ZM614.283-7.73H582.006V-26.751h87.9V-7.73H637.627V74.116H614.283Z" transform="translate(265.35 281)" fill="#f0e55d"/>
    <path id="路径_603" data-name="路径 603" d="M162.122-26.751l-33,100.867H104.052L81.861,5.815,58.95,74.116H34.022L.88-26.751H25.088L47.855,44.144,71.631-26.751H93.245L116.3,44.72l23.488-71.471ZM244.4,75.845a58.875,58.875,0,0,1-28.315-6.772,50.265,50.265,0,0,1-19.741-18.66,50.943,50.943,0,0,1-7.133-26.73,50.943,50.943,0,0,1,7.133-26.73,50.265,50.265,0,0,1,19.741-18.66A58.875,58.875,0,0,1,244.4-28.48a58.456,58.456,0,0,1,28.243,6.772,50.916,50.916,0,0,1,19.741,18.66,50.553,50.553,0,0,1,7.2,26.73,50.553,50.553,0,0,1-7.2,26.73,50.916,50.916,0,0,1-19.741,18.66A58.456,58.456,0,0,1,244.4,75.845Zm0-19.885a32.007,32.007,0,0,0,16.139-4.107A29.47,29.47,0,0,0,271.851,40.4a33.675,33.675,0,0,0,4.107-16.715,33.675,33.675,0,0,0-4.107-16.715A29.47,29.47,0,0,0,260.539-4.488a33.764,33.764,0,0,0-32.277,0A29.47,29.47,0,0,0,216.951,6.967a33.676,33.676,0,0,0-4.107,16.715A33.675,33.675,0,0,0,216.951,40.4a29.47,29.47,0,0,0,11.311,11.456A32.007,32.007,0,0,0,244.4,55.96ZM403.049,74.116,383.6,46.017h-21.47v28.1H338.783V-26.751h43.661q13.4,0,23.271,4.467a34.574,34.574,0,0,1,15.2,12.68,34.933,34.933,0,0,1,5.332,19.453q0,11.239-5.4,19.381A34.249,34.249,0,0,1,405.5,41.694l22.623,32.421Zm-.432-64.266q0-8.5-5.476-13.041T381.147-7.73H362.126V27.429h19.021q10.519,0,15.995-4.611T402.617,9.849ZM530.573,74.116l-19.453-28.1H489.65v28.1H466.307V-26.751h43.661q13.4,0,23.271,4.467a34.573,34.573,0,0,1,15.2,12.68,34.932,34.932,0,0,1,5.332,19.453q0,11.239-5.4,19.381a34.249,34.249,0,0,1-15.346,12.464l22.623,32.421Zm-.432-64.266q0-8.5-5.476-13.041T508.671-7.73H489.65V27.429h19.021q10.519,0,15.995-4.611T530.141,9.849ZM640.806,38.38V74.116H617.463V38.092l-39.05-64.843H603.2l26.946,44.814,26.946-44.814H680Z" transform="translate(259 417.745)" fill="#fd7d9c"/>
  </g>
</svg>
